<svg width="1175" height="1009" viewBox="0 0 1175 1009" fill="none" xmlns="http://www.w3.org/2000/svg">
<g opacity="0.8" filter="url(#filter0_f_81_5201)">
<ellipse cx="196.135" cy="504.629" rx="157.5" ry="234" transform="rotate(-26.4063 196.135 504.629)" fill="#FDB658" fill-opacity="0.28"/>
</g>
<path d="M-351.838 96.5039C-301.404 131.715 -259.218 168.661 -227.913 205.037C-181.926 259.001 -192.713 275.131 -143.709 315.837C-96.0759 355.388 -23.1398 392.278 40.1784 412.672C126.578 440.493 140 419.858 261.521 430.745C332.978 437.166 466.994 449.16 603.486 512.953C672.443 545.184 736.328 587.97 795.716 627.734C868.506 676.473 876.644 688.798 917.822 710.741C966.73 736.811 1046.32 767.974 1174.72 780.716" stroke="#1D1F43" stroke-opacity="0.12" stroke-width="0.2" stroke-miterlimit="10"/>
<path d="M-355.163 99.9282C-309.607 131.404 -270.529 164.362 -239.881 197.154C-236.96 200.311 -234.058 203.512 -231.147 206.769C-184.173 260.094 -193.775 275.802 -145.302 315.796C-124.184 333.257 -99.0009 350.099 -71.217 365.345C-51.3124 376.258 -30.3955 386.293 -9.00457 395.192C6.99322 401.844 23.1832 407.722 39.2592 412.716C57.1318 418.375 74.6503 422.539 91.106 425.039C121.4 429.612 144.648 428.114 179.213 428.579C205.245 428.938 232.874 430.926 261.789 434.52C277.126 436.368 295.106 438.375 315.61 441.335C370.483 449.22 439.574 461.902 517.059 489.586C543.373 498.931 569.589 509.624 595.208 521.463C599.134 523.274 603.014 525.116 606.831 526.957C644.628 545.166 679.53 565.059 714.654 586.597C740.955 602.662 765.317 619.029 789.59 635.006C799.74 641.734 808.798 647.779 816.954 653.303C866.199 686.693 877.778 698.156 913.38 716.44C940.432 730.33 976.575 745.659 1025.05 759.123C1064.8 770.172 1113.27 780.024 1171.99 787.003" stroke="#1D1F43" stroke-opacity="0.12" stroke-width="0.2" stroke-miterlimit="10"/>
<path d="M-358.391 103.42C-313.189 134.301 -274.192 166.687 -243.298 199.002C-240.344 202.108 -237.406 205.251 -234.483 208.431C-186.391 261.187 -194.744 276.474 -146.869 315.765C-125.734 333.342 -100.505 350.318 -72.6367 365.717C-52.6153 376.695 -31.5465 386.762 -10.0061 395.642C6.04791 402.229 22.2824 407.973 38.3427 412.747C56.2221 418.158 73.7027 422.168 90.1836 424.638C121.659 429.463 145.801 428.732 179.687 429.866C205.59 430.806 233.204 433.585 262.111 438.162C277.249 440.47 294.667 442.805 314.699 446.329C368.082 455.714 432.301 469.131 508.565 497.546C534.938 507.306 561.166 518.146 586.914 529.927C590.895 531.761 594.812 533.594 598.66 535.435C637.161 553.807 671.388 572.729 707.524 594.018C734.738 610.062 758.893 626.235 783.412 642.241C793.6 648.882 802.8 654.898 811.207 660.439C860.9 693.243 873.158 704.48 908.891 722.092C936.116 735.511 972.168 750.305 1020.92 763.799C1060.75 774.806 1109.71 785.081 1169.25 793.311" stroke="#1D1F43" stroke-opacity="0.12" stroke-width="0.2" stroke-miterlimit="10"/>
<path d="M-361.862 106.728C-316.908 137.075 -277.909 168.958 -246.721 200.859C-243.757 203.918 -240.775 207.01 -237.835 210.124C-188.564 262.325 -195.815 277.153 -148.492 315.71C-126.08 333.964 -103.178 350.048 -74.1438 366.063C-53.9894 377.118 -32.749 387.225 -11.0406 396.089C5.07722 402.613 21.3594 408.218 37.3981 412.765C55.2924 417.934 72.7563 421.798 89.2875 424.247C121.89 429.302 146.889 429.347 180.12 431.172C205.915 432.698 233.528 436.295 262.395 441.89C277.469 444.717 294.215 447.334 313.75 451.409C365.933 462.291 425.004 476.413 500.055 505.538C526.487 515.718 552.754 526.719 578.655 538.458C582.668 540.293 586.725 542.173 590.469 543.956C628.283 561.895 665.059 581.151 700.288 601.457C728.419 617.47 752.376 633.505 777.273 649.532C787.49 656.107 796.81 662.071 805.494 667.641C855.614 699.836 868.587 710.838 904.409 727.798C931.824 740.779 967.882 755.042 1016.83 768.53C1056.75 779.572 1106.17 790.125 1166.53 799.552" stroke="#1D1F43" stroke-opacity="0.12" stroke-width="0.2" stroke-miterlimit="10"/>
<path d="M-365.214 110.131C-320.579 139.92 -281.623 171.261 -250.14 202.71C-247.157 205.725 -244.119 208.764 -241.182 211.81C-190.889 263.44 -196.804 277.795 -150.094 315.682C-127.146 334.26 -105.147 350.121 -75.598 366.438C-55.3312 377.564 -33.9328 387.701 -12.0718 396.531C4.14657 403.022 20.5152 408.509 36.5605 412.834C54.4241 417.763 71.8453 421.497 88.4155 423.951C122.15 429.224 148.127 430.136 180.637 432.508C203.567 434.192 229.755 438.334 262.764 445.648C277.755 448.96 293.972 451.906 312.922 456.509C364.196 468.961 417.819 483.736 491.522 513.512C517.979 524.086 544.281 535.242 570.322 546.935C574.394 548.783 578.402 550.629 582.237 552.426C620.23 570.144 657.369 589.053 693.255 608.95C722.357 624.956 745.949 640.793 771.184 656.784C781.293 663.234 790.908 669.261 799.853 674.828C850.347 706.457 864.061 717.168 900.031 733.49C927.641 746.022 963.64 759.752 1012.81 773.256C1052.76 784.222 1102.65 795.175 1163.82 805.808" stroke="#1D1F43" stroke-opacity="0.12" stroke-width="0.2" stroke-miterlimit="10"/>
<path d="M-368.535 113.544C-324.232 142.775 -285.33 173.569 -253.556 204.558C-250.549 207.518 -247.483 210.491 -244.517 213.472C-193.077 264.468 -197.841 278.477 -151.738 315.605C-128.257 334.519 -107.161 350.157 -77.1253 366.763C-56.7252 377.967 -35.1513 388.141 -13.1219 396.946C3.12948 403.371 19.5103 408.712 35.4822 412.795C53.3331 417.478 70.7338 421.07 87.3537 423.502C122.237 429.027 149.206 430.852 180.94 433.746C204.372 435.909 230.734 441.063 262.923 449.297C277.887 453.118 293.564 456.415 311.872 461.455C362.646 475.578 410.493 490.941 482.993 521.405C508.189 531.99 536.079 543.654 562.017 555.355C566.147 557.216 570.106 559.027 574.032 560.837C612.145 578.309 649.571 596.835 686.009 616.268C716.029 632.243 739.444 647.964 765.016 663.998C775.29 670.442 784.903 676.325 794.116 681.942C844.962 713.06 859.391 723.757 895.47 739.162C923.351 751.07 959.247 764.443 1008.62 777.919C1048.64 788.798 1099.02 800.186 1160.98 812.036" stroke="#1D1F43" stroke-opacity="0.12" stroke-width="0.2" stroke-miterlimit="10"/>
<path d="M-371.878 116.932C-327.904 145.617 -289.05 175.871 -256.972 206.405C-253.941 209.31 -250.824 212.24 -247.857 215.144C-195.276 265.594 -198.837 279.136 -153.359 315.55C-129.418 334.742 -109.176 350.19 -78.6036 367.122C-58.1058 378.373 -36.4051 388.563 -14.2586 397.336C2.07772 403.709 18.5172 408.92 34.4577 412.778C52.2645 417.189 69.633 420.638 86.3138 423.074C122.329 428.818 150.417 431.559 181.221 434.959C205.201 437.569 231.735 443.813 263.055 452.933C278.046 457.286 293.953 462.949 310.752 466.486C361.162 487.39 403.975 496.582 474.281 529.348C499.108 540.931 527.67 552.236 553.542 563.791C557.727 565.675 561.776 567.5 565.653 569.276C607.176 588.271 638.813 603.125 678.717 623.617C709.659 639.55 732.812 655.131 758.74 671.163C768.907 677.482 778.771 683.383 788.261 689.03C839.424 719.492 854.767 729.648 890.928 744.712C918.956 756.358 954.896 769.034 1004.46 782.526C1044.53 793.429 1095.37 805.106 1158.18 818.197" stroke="#1D1F43" stroke-opacity="0.12" stroke-width="0.2" stroke-miterlimit="10"/>
<path d="M-375.23 120.332C-331.588 148.468 -292.781 178.174 -260.387 208.241C-257.31 211.114 -254.164 213.978 -251.196 216.804C-197.328 266.746 -199.722 279.831 -154.875 315.542C-130.288 335.105 -111.059 350.284 -80.0034 367.515C-59.3313 378.872 -37.4033 389.118 -15.0406 397.868C3.11522 405.042 18.7475 409.257 33.7608 412.891C51.5341 417.042 68.8933 420.357 85.6558 422.801C122.798 428.774 152.09 432.533 181.96 436.374C206.429 439.495 233.266 446.822 263.515 456.699C278.609 461.632 293.845 467.875 310.005 471.617C359.373 494.919 396.019 505.675 465.947 537.378C491.024 548.757 519.613 560.894 545.417 572.381C549.653 574.222 553.747 576.092 557.606 577.834C599.902 596.983 630.877 610.834 671.71 631.195C703.542 647.085 726.465 662.528 752.744 678.569C762.939 684.822 772.922 690.671 782.69 696.347C834.246 726.277 850.324 736.154 886.621 750.534C914.839 761.742 950.721 773.885 1000.51 787.383C1040.6 798.298 1091.94 810.298 1155.58 824.619" stroke="#1D1F43" stroke-opacity="0.12" stroke-width="0.2" stroke-miterlimit="10"/>
<path d="M-378.547 123.733C-335.265 151.324 -296.518 180.47 -263.79 210.056C-260.693 212.885 -257.497 215.706 -254.359 218.515C-199.45 267.842 -200.591 280.495 -156.45 315.456C-131.327 335.344 -113.006 350.309 -81.4315 367.832C-60.6658 379.256 -38.6004 389.531 -16.1096 398.25C2.31917 405.464 17.7832 409.398 32.7769 412.854C51.2908 417.124 67.0015 419.525 84.647 422.376C122.939 428.601 156.427 436.891 182.348 437.636C209.227 444.2 236.175 446.146 263.836 460.419C278.233 467.847 293.661 472.755 309.125 476.689C357.483 502.39 388.894 513.085 457.502 545.373C482.535 557.15 511.557 569.553 537.173 580.88C541.49 582.756 545.618 584.55 549.485 586.348C592.499 605.626 622.854 618.452 664.597 638.649C697.438 654.522 720.045 669.801 746.647 685.84C756.871 692.027 766.996 697.847 777.019 703.53C828.828 732.879 845.836 742.471 882.236 756.244C910.681 767.004 946.531 778.625 996.486 792.106C1036.66 802.979 1088.35 815.309 1152.91 830.906" stroke="#1D1F43" stroke-opacity="0.12" stroke-width="0.2" stroke-miterlimit="10"/>
<path d="M-381.891 127.121C-338.947 154.192 -300.258 182.803 -267.215 211.923C-264.095 214.698 -260.851 217.41 -257.677 220.208C-201.427 269.05 -201.613 281.142 -158.049 315.423C-132.356 335.636 -114.971 350.377 -82.9141 368.201C-62.0158 379.693 -39.7849 390.001 -17.142 398.697C1.55973 405.951 16.8698 409.571 31.8568 412.894C50.0924 416.913 65.7163 419.068 83.721 421.984C123.149 428.416 157.996 438.039 182.878 438.945C210.421 446.357 238.607 449.466 264.217 464.149C278.225 472.177 293.502 477.657 308.22 481.748C355.567 509.848 381.76 520.515 449.032 553.355C474.026 565.518 503.226 578.103 528.93 589.377L541.339 594.77C585.13 614.19 614.905 626.049 657.514 646.036C691.304 661.879 713.617 677.017 740.576 693.054C750.828 699.176 761.073 704.943 771.378 710.645C823.429 739.436 841.337 748.741 877.848 761.886C906.493 772.186 942.311 783.286 992.459 796.772C1032.69 807.601 1084.96 820.357 1150.24 837.126" stroke="#1D1F43" stroke-opacity="0.12" stroke-width="0.2" stroke-miterlimit="10"/>
<path d="M-385.234 130.501C-342.691 157.042 -304.096 185.087 -270.735 213.704C-267.545 216.392 -264.301 219.104 -261.084 221.804C-203.733 270.043 -202.639 281.715 -159.693 315.337C-133.427 335.864 -116.846 350.451 -84.41 368.518C-63.4015 380.089 -41.0098 390.432 -18.2197 399.091C0.78209 406.398 15.8825 409.757 30.8642 412.87C48.8502 416.572 64.3811 418.569 82.7402 421.561C123.323 428.235 159.509 439.156 183.186 440.162C211.425 448.424 236.767 458.004 264.381 467.778C279.236 475.64 293.129 482.445 307.205 486.752C353.496 517.284 374.431 527.866 440.434 561.248C465.361 573.864 494.87 586.778 520.555 597.797C524.954 599.709 529.163 601.538 533.046 603.225C577.786 622.394 606.684 633.598 650.258 653.445C685.024 669.269 707.021 684.244 734.357 700.302C744.643 706.347 755.052 712.107 765.513 717.747C817.807 745.979 836.515 754.929 873.219 767.481C902.086 777.344 937.846 787.91 988.244 801.414C1028.52 812.211 1081.17 825.288 1147.36 843.31" stroke="#1D1F43" stroke-opacity="0.12" stroke-width="0.2" stroke-miterlimit="10"/>
<path d="M-388.552 133.902C-346.324 159.943 -307.751 187.456 -274.011 215.599C-270.849 218.276 -267.544 220.922 -264.299 223.557C-205.679 271.254 -203.473 282.446 -161.229 315.307C-134.403 336.181 -118.889 350.474 -85.8347 368.9C-64.649 380.578 -42.0278 390.977 -19.0266 399.612C0.356702 407.007 15.3113 410.107 30.0561 412.948C47.9139 416.425 63.2847 418.196 81.9677 421.186C123.65 428.077 161.231 440.32 183.756 441.451C212.66 450.561 238.025 461.128 264.812 471.467C279.61 479.981 293.024 487.294 306.434 491.794C351.702 524.68 367.365 535.288 432.072 569.2C456.945 582.236 486.784 595.359 512.416 606.276C516.87 608.211 521.078 610.04 524.988 611.739C570.456 631.016 598.766 641.196 643.241 660.901C678.929 676.683 700.659 691.529 728.351 707.586C738.661 713.576 749.122 719.216 760.005 725C812.533 752.695 832.262 761.373 868.97 773.25C898.036 782.653 933.76 792.709 984.354 806.206C1024.68 816.972 1077.92 830.463 1144.82 849.667" stroke="#1D1F43" stroke-opacity="0.12" stroke-width="0.2" stroke-miterlimit="10"/>
<path d="M-391.896 137.282C-350.027 162.824 -311.515 189.792 -277.428 217.438C-274.238 220.126 -270.881 222.652 -267.612 225.231C-207.692 272.387 -204.373 283.099 -162.823 315.255C-135.424 336.444 -120.846 350.512 -87.2816 369.251C-66.0203 380.977 -43.2874 391.389 -20.191 399.981C-0.77436 407.299 14.333 410.271 29.0631 412.923C46.5482 416.069 61.8675 417.662 80.9625 420.817C123.804 427.938 162.721 441.491 184.126 442.747C213.726 452.707 239.034 464.148 265.024 475.207C279.741 484.35 292.699 492.194 305.418 496.875C349.67 532.171 360.052 542.749 423.49 577.204C448.306 590.67 478.545 603.837 503.999 614.794C508.506 616.753 512.742 618.594 516.652 620.293C562.902 639.701 590.377 649.349 635.968 668.419C672.735 683.798 694.046 698.865 722.08 714.954C732.531 720.913 743.24 726.697 754.16 732.279C806.915 759.449 827.563 767.797 864.382 779.045C893.676 787.999 929.336 797.533 980.126 811.025C1020.63 821.817 1074.23 835.606 1141.95 856.04" stroke="#1D1F43" stroke-opacity="0.12" stroke-width="0.2" stroke-miterlimit="10"/>
<path d="M-394.216 138.314C-352.71 163.386 -314.268 189.823 -279.839 216.972C-276.602 219.551 -273.218 222.089 -269.893 224.615C-208.699 271.217 -204.214 281.473 -163.408 312.888C-135.445 334.414 -121.802 348.258 -87.7502 367.287C-66.3637 379.092 -43.4619 389.543 -20.2143 398.106C-0.384181 405.513 14.4912 408.202 29.2064 410.665C46.3794 413.414 61.5338 414.792 81.06 418.07C125.014 425.454 165.345 440.285 185.593 441.676C215.862 452.473 241.126 464.832 266.347 476.548C280.98 486.331 293.459 494.683 305.508 499.567C348.75 537.262 353.84 547.91 416.017 582.741C440.802 596.649 471.38 610.003 496.812 620.859L509.563 626.283C556.41 646.25 583.599 654.03 629.91 673.374C667.538 689.074 688.644 703.649 717.048 719.703C727.646 725.653 738.508 731.413 749.58 736.952C802.429 763.537 824.14 771.592 861.039 782.211C890.56 790.717 926.183 799.74 977.17 813.226C1017.69 823.975 1071.8 838.142 1140.35 859.805" stroke="#1D1F43" stroke-opacity="0.12" stroke-width="0.2" stroke-miterlimit="10"/>
<path d="M-396.143 138.297C-355.001 162.854 -316.617 188.714 -281.828 215.314C-278.545 217.861 -275.132 220.333 -271.778 222.793C-209.185 268.923 -203.715 278.695 -163.502 309.397C-134.939 331.249 -122.263 344.868 -87.7019 364.209C-66.1737 376.08 -43.0941 386.551 -19.6969 395.064C0.383789 402.488 15.1438 404.996 29.7546 407.18C46.6799 409.757 61.8195 410.946 81.569 414.23C126.692 421.822 168.348 437.984 187.472 439.512C218.437 451.158 245.35 463.14 268.105 476.817C284.407 486.622 294.657 496.167 305.98 501.087C348.185 541.17 347.955 551.876 408.877 587.216C433.567 601.565 464.543 615.117 489.869 625.849C494.485 627.855 498.813 629.632 502.715 631.275C550.344 651.374 576.882 658.128 624.135 677.309C662.69 692.957 683.524 707.413 712.298 723.432C723.023 729.381 734.031 735.113 745.256 740.593C798.296 766.662 820.967 774.366 857.973 784.368C887.699 792.403 923.285 800.916 974.464 814.407C1015.01 825.112 1069.63 839.658 1139.03 862.485" stroke="#1D1F43" stroke-opacity="0.12" stroke-width="0.2" stroke-miterlimit="10"/>
<path d="M-397.928 138.314C-357.145 162.398 -318.823 187.707 -283.676 213.768C-280.341 216.271 -276.873 218.69 -273.523 221.083C-209.632 266.605 -203.067 275.864 -163.6 305.903C-134.49 328.057 -122.755 341.463 -87.543 361.165C-65.9254 373.149 -42.6824 383.692 -19.1306 392.197C1.25488 399.662 15.9105 401.891 30.4012 403.905C47.0849 406.221 62.1282 407.186 82.3678 410.604C128.59 418.414 171.609 435.898 189.641 437.563C221.262 450.002 248.295 463.194 270.071 477.266C286.427 487.837 296.119 497.699 306.802 502.979C347.965 545.46 342.42 556.213 402.135 592.031C426.757 606.832 458.027 620.525 483.335 631.223L496.282 636.641C544.661 656.87 570.579 662.6 618.765 681.639C658.306 697.247 678.785 711.628 707.956 727.624C718.805 733.581 729.955 739.297 741.327 744.729C794.526 770.282 818.189 777.636 855.302 787.02C885.227 794.595 920.75 802.585 972.152 816.083C1026.7 830.059 1082.14 846.626 1137.84 865.587" stroke="#1D1F43" stroke-opacity="0.12" stroke-width="0.2" stroke-miterlimit="10"/>
<path d="M-399.6 137.851C-359.18 161.491 -320.925 186.264 -285.43 211.784C-282.044 214.245 -278.552 216.608 -275.173 218.936C-209.918 263.919 -202.319 272.728 -163.532 302.03C-133.794 324.522 -123.053 337.691 -87.4676 357.646C-65.7113 369.702 -42.2829 380.264 -18.5813 388.701C2.05475 396.185 16.614 398.189 31.0356 399.991C47.4506 402.034 62.3928 402.786 82.9326 406.256C130.309 414.307 174.582 433.065 191.576 434.89C223.874 448.223 250.946 462.513 271.861 477.005C288.236 488.352 297.364 498.62 307.36 504.07C347.512 548.95 336.621 559.749 395.101 596.033C419.656 611.286 451.306 625.144 476.543 635.708C481.269 637.683 485.679 639.495 489.59 641.117C538.833 661.514 564.012 666.193 613.082 685.057C653.55 700.611 673.777 714.83 703.285 730.869C714.274 736.814 725.574 742.49 737.095 747.853C790.477 772.912 815.113 779.882 852.328 788.659C882.458 795.764 917.94 803.254 969.543 816.735C1024.56 830.863 1080.61 848.043 1136.79 867.997" stroke="#1D1F43" stroke-opacity="0.12" stroke-width="0.2" stroke-miterlimit="10"/>
<path d="M-400.904 136.543C-360.837 159.74 -322.643 183.969 -286.802 208.924C-283.393 211.33 -279.85 213.651 -276.447 215.924C-209.787 260.345 -201.016 268.688 -163.082 297.28C-132.743 320.098 -122.975 333.053 -86.8701 353.299C-64.9991 365.434 -41.4064 376.033 -17.5655 384.432C3.35297 391.934 17.8112 393.725 32.1365 395.302C48.2956 397.117 63.151 397.623 84.0452 401.17C132.549 409.45 178.249 429.53 194.059 431.48C227.026 445.65 254.059 461.069 274.195 476.016C290.497 488.126 299.162 498.791 308.492 504.434C347.603 551.712 331.343 562.535 388.646 599.297C413.075 614.99 445.122 629.047 470.311 639.498C475.069 641.475 479.511 643.288 483.427 644.898C533.366 665.402 557.93 669.046 607.905 687.756C649.332 703.259 669.283 717.371 699.092 733.384C710.233 739.325 721.687 744.978 733.355 750.292C786.915 774.868 812.503 781.431 849.82 789.602C880.14 796.269 915.628 803.228 967.421 816.713C1022.85 830.92 1079.45 848.652 1136.03 869.529" stroke="#1D1F43" stroke-opacity="0.12" stroke-width="0.2" stroke-miterlimit="10"/>
<path d="M-402.178 135.245C-362.476 158.016 -324.352 181.702 -288.176 206.072C-284.716 208.435 -281.139 210.679 -277.713 212.897C-209.633 256.803 -200.081 264.535 -162.629 292.527C-131.712 315.648 -122.888 328.401 -86.3009 348.948C-64.3102 361.174 -40.5367 371.811 -16.5463 380.159C4.65939 387.669 19.0071 389.269 33.268 390.623C49.1998 392.143 63.9127 392.457 85.1613 396.08C134.805 404.634 181.918 425.993 196.549 428.055C226.462 441.225 254.181 457.499 276.51 475.002C292.707 487.873 300.968 498.948 309.601 504.783C347.701 554.46 326.041 565.305 382.195 602.557C406.492 618.701 438.957 632.913 464.056 643.274C468.901 645.275 473.347 647.077 477.3 648.677C527.976 669.267 551.963 672.01 602.868 690.512C645.195 705.95 664.928 719.967 695.093 735.979C705.588 741.542 716.99 746.653 729.76 752.776C782.707 778.167 810.059 783.048 847.483 790.602C878.022 796.765 913.454 803.257 965.444 816.737C1021.33 831.046 1078.53 849.334 1135.5 871.109" stroke="#1D1F43" stroke-opacity="0.12" stroke-width="0.2" stroke-miterlimit="10"/>
<path d="M-403.483 133.938C-364.127 156.298 -326.06 179.443 -289.548 203.212C-286.032 205.522 -282.437 207.722 -278.955 209.886C-209.476 253.098 -198.796 260.538 -162.179 287.777C-130.634 311.236 -122.914 323.705 -85.7082 344.612C-63.558 356.941 -39.5692 367.633 -15.3948 375.948C6.071 383.454 20.3128 384.852 34.5046 385.994C50.1133 387.218 64.7796 387.342 86.3825 391.04C137.199 399.792 185.703 422.484 199.141 424.691C229.634 438.716 257.363 455.9 278.821 474.068C294.835 487.654 302.742 499.174 310.683 505.19C347.773 557.267 320.685 568.122 375.685 605.875C399.883 622.471 432.732 636.837 457.828 647.131C462.704 649.133 467.215 650.936 471.141 652.525C522.603 673.235 545.958 674.909 597.777 693.314C641.089 708.711 660.401 722.585 691.067 738.632C702.601 744.433 714.324 750.014 726.187 755.352C779.472 780.187 807.614 784.735 845.168 791.694C875.885 797.374 911.302 803.378 963.38 816.805C1019.68 831.219 1077.42 850.071 1134.7 872.74" stroke="#1D1F43" stroke-opacity="0.12" stroke-width="0.2" stroke-miterlimit="10"/>
<path d="M-404.783 132.626C-365.761 154.595 -327.737 177.203 -290.884 200.349C-287.345 202.603 -283.73 204.76 -280.215 206.847C-209.34 249.52 -197.607 256.468 -161.636 283.114C-129.57 306.786 -122.827 319.051 -85.1335 340.248C-62.9004 352.653 -38.768 363.371 -14.4833 371.627C7.26963 379.14 21.4328 380.348 35.5011 381.254C50.945 382.263 65.4335 382.128 87.418 385.914C139.335 394.883 189.272 418.953 201.538 421.185C232.711 436.078 260.533 454.181 281.187 473.009C296.957 487.308 304.545 499.263 311.822 505.472C347.869 559.947 315.325 570.879 369.258 609.08C393.325 626.126 426.559 640.646 451.571 650.838C456.506 652.853 461.048 654.658 464.983 656.224C517.26 677.067 539.931 677.714 592.683 695.978C636.959 711.313 655.958 725.089 686.93 741.1C698.589 746.912 710.459 752.466 722.475 757.731C776.1 782.011 805.032 786.225 842.692 792.567C873.636 797.798 909.045 803.304 961.3 816.769C1018.06 831.291 1076.37 850.709 1133.94 874.256" stroke="#1D1F43" stroke-opacity="0.12" stroke-width="0.2" stroke-miterlimit="10"/>
<path d="M-406.036 131.341C-361.592 156.318 -321.965 179.306 -292.236 197.51C-288.619 199.734 -284.971 201.814 -281.468 203.856C-209.132 245.914 -196.406 252.434 -161.231 278.239C-128.471 302.318 -122.591 314.416 -84.4966 335.879C-62.1482 348.366 -37.8439 359.12 -13.4235 367.324C8.62144 374.834 22.6964 375.873 36.6732 376.544C51.8483 377.28 66.2358 376.931 88.5747 380.793C141.645 390.004 192.978 415.396 204.046 417.784C235.871 433.549 263.741 452.541 283.57 471.975C299.067 486.977 307.744 499.47 312.999 505.803C361.684 564.623 309.963 573.627 362.848 612.31C386.751 629.806 420.457 644.505 445.383 654.595C450.378 656.622 454.929 658.405 458.896 659.973C511.879 680.901 533.893 680.534 587.6 698.678C632.839 713.95 651.53 727.619 682.895 743.618C694.597 749.557 706.639 755.1 718.862 760.172C773.193 782.897 802.552 787.766 840.337 793.523C871.463 798.261 906.803 803.256 959.377 816.729C1016.62 831.377 1075.53 851.366 1133.38 875.77" stroke="#1D1F43" stroke-opacity="0.12" stroke-width="0.2" stroke-miterlimit="10"/>
<path d="M-407.366 130.025C-362.345 155.084 -322.785 177.482 -293.635 194.641C-289.961 196.811 -286.29 198.836 -282.763 200.824C-208.911 242.291 -195.251 248.37 -160.822 273.513C-127.429 297.919 -122.558 309.813 -83.9761 331.565C-61.4953 344.147 -36.9994 354.943 -12.4257 363.101C9.88887 370.585 23.8486 371.443 37.7338 371.879C52.6945 372.366 66.8451 371.745 89.647 375.73C143.849 385.159 196.409 411.814 206.52 414.398C242.877 432.801 268.795 453.386 285.864 471.01C301.024 486.711 309.286 499.715 314.064 506.178C359.314 567.334 304.517 576.433 356.321 615.597C380.066 633.531 414.243 648.409 439.084 658.397C444.142 660.426 448.748 662.233 452.693 663.778C506.467 684.815 527.861 683.424 582.465 701.437C628.636 716.645 647.014 730.216 678.744 746.192C690.592 752.13 702.783 757.641 715.141 762.647C769.685 784.957 799.982 789.374 837.901 794.526C869.205 798.781 904.531 803.288 957.356 816.779C998.294 827.239 1056.81 844.714 1132.72 877.363" stroke="#1D1F43" stroke-opacity="0.12" stroke-width="0.2" stroke-miterlimit="10"/>
<path d="M-408.667 128.714C-363.109 153.875 -323.593 175.63 -295.008 191.789C-291.274 193.893 -287.579 195.863 -284.052 197.851C-208.814 238.58 -194.062 244.301 -160.368 268.759C-126.675 293.217 -122.471 305.16 -83.3746 327.214C-60.7876 339.89 -36.1152 350.728 -11.4061 358.827C11.1828 366.274 25.072 366.998 38.8609 367.21C53.5753 367.446 67.711 366.637 90.7587 370.65C146.092 380.375 200.042 408.285 209.002 410.994C246.055 430.247 271.601 451.763 288.202 470.017C303.032 486.33 310.747 499.851 315.192 506.483C356.736 569.777 299.074 579.155 349.889 618.813C373.439 637.197 408.065 652.23 432.876 662.14C437.966 664.17 442.609 665.966 446.667 667.547C501.219 688.65 521.96 686.31 577.474 704.16C624.604 719.316 642.696 732.802 674.792 748.754C686.786 754.694 699.125 760.178 711.614 765.121C766.376 787.004 797.558 790.947 835.633 795.515C867.114 799.288 902.426 803.307 955.502 816.815C996.513 827.256 1055.49 845.075 1132.22 878.975" stroke="#1D1F43" stroke-opacity="0.12" stroke-width="0.2" stroke-miterlimit="10"/>
<path d="M-409.945 127.416C-363.869 152.646 -324.405 173.78 -296.391 188.948C-292.601 190.998 -288.887 192.925 -285.308 194.792C-208.662 234.883 -192.877 240.232 -159.924 264.017C-125.246 289.033 -122.416 300.496 -82.8099 322.863C-60.1072 335.639 -35.2437 346.52 -10.3911 354.555C12.4768 361.953 26.2954 362.543 39.9833 362.541C54.4608 362.505 68.4636 361.482 91.8976 365.572C148.354 375.46 204.778 403.325 211.483 407.58C246.112 429.515 274.383 450.107 290.535 469.026C304.993 485.971 312.342 500.036 316.3 506.898C353.96 572.15 293.553 581.975 343.405 622.139C366.765 640.961 401.871 656.152 426.593 665.971C431.769 668.025 436.416 669.81 440.398 671.345C495.723 692.601 515.799 689.191 572.246 706.899C620.312 721.98 638.087 735.381 670.575 751.322C682.718 757.262 695.204 762.718 707.823 767.599C762.798 789.068 794.895 792.536 833.073 796.498C864.74 799.844 900.062 803.32 953.36 816.834C994.418 827.243 1053.91 845.453 1131.43 880.559" stroke="#1D1F43" stroke-opacity="0.12" stroke-width="0.2" stroke-miterlimit="10"/>
<path d="M-411.25 126.108C-364.651 151.474 -325.229 171.887 -297.754 186.066C-293.904 188.051 -290.17 189.934 -286.54 191.759C-208.5 231.166 -191.665 236.178 -159.47 259.256C-124.033 284.68 -122.41 295.8 -82.1982 318.482C-59.3713 331.35 -34.3223 342.271 -9.32928 350.253C13.7682 357.569 27.5339 358.057 41.0888 357.841C55.3614 357.534 69.2265 356.308 93.0101 360.485C150.621 370.614 207.429 400.938 213.971 404.158C253.849 423.818 277.145 448.432 292.765 467.978C303.231 481.427 311.455 494.571 317.302 507.192C351.082 574.312 287.952 584.685 336.951 625.403C360.093 644.651 395.692 660.043 420.361 669.761C425.569 671.816 430.28 673.602 434.185 675.091C490.262 696.4 509.703 691.999 567.097 709.61C616.077 724.594 633.573 737.965 666.436 753.86C678.73 759.802 691.366 765.227 704.115 770.039C759.33 791.103 792.277 794.029 830.624 797.453C862.469 800.239 897.749 803.293 951.32 816.848C992.452 827.236 1052.38 845.778 1130.75 882.126" stroke="#1D1F43" stroke-opacity="0.12" stroke-width="0.2" stroke-miterlimit="10"/>
<path d="M-412.55 124.801C-365.463 150.158 -326.067 169.96 -299.122 183.206C-209.959 227.03 -191.907 231.099 -159.016 254.506C-123.022 280.133 -122.246 291.198 -81.6425 314.167C-58.6998 327.134 -33.4622 338.102 -8.32829 346.027C39.4242 360.789 46.8694 347.074 94.127 355.398C152.869 365.745 210.899 397.642 216.457 400.747C290.568 442.066 311.782 492.047 318.521 507.591C348.411 576.458 282.518 587.467 330.473 628.655C358.307 652.558 405.561 670.398 428.086 678.885C484.913 700.325 503.729 694.91 562.033 712.357C627.741 732.006 636.825 748.765 700.516 772.536C802.142 810.411 831.201 787.145 949.208 816.815C990.385 827.171 1050.8 846.081 1129.99 883.658" stroke="#1D1F43" stroke-opacity="0.12" stroke-width="0.2" stroke-miterlimit="10"/>
<path d="M-411.679 126.806C-365.461 151.786 -326.829 171.49 -299.913 184.801C-213.272 227.816 -194.681 232.354 -162.011 255.677C-126.717 280.909 -125.338 291.924 -85.808 314.466C-63.362 327.201 -38.7115 338.065 -14.0403 346.096C32.7865 361.354 40.5681 348.202 87.0027 356.637C144.395 366.971 200.824 397.572 207.418 400.971C269.126 432.721 293.184 473.185 304.573 494.148C306.909 498.431 308.433 501.905 309.755 504.51C342.011 571.424 279.373 582.298 326.927 622.179C355.328 645.965 403.03 663.817 426.454 672.759C447.91 680.975 469.43 687.277 489.828 691.316C510.506 695.732 530.176 699.124 560.671 708.953C570.013 711.971 578.205 714.958 585.555 717.657C630.099 734.007 644.145 747.518 698.129 766.512C719.005 773.879 739.728 779.544 759.415 783.263C812.806 793.446 851.784 786.95 933.333 805.281C938.118 806.354 943.093 807.535 948.257 808.824C989.859 819.169 1051.27 838.161 1131.76 876.094" stroke="#1D1F43" stroke-opacity="0.12" stroke-width="0.2" stroke-miterlimit="10"/>
<path d="M-410.808 128.812C-365.568 153.366 -327.548 172.922 -300.672 186.398C-216.602 228.569 -197.562 233.562 -165.011 256.859C-130.347 281.609 -128.473 292.748 -90.0772 314.706C-68.1116 327.225 -44.032 338.001 -19.8114 346.152C26.032 361.817 34.243 349.384 79.856 357.853C135.893 368.261 191.354 396.854 198.323 401.172C253.395 435.194 283.191 470.925 295.433 491.334C297.922 495.488 299.435 498.84 300.777 501.324C335.293 566.304 276.134 577.049 323.219 615.633C352.029 639.219 400.308 657.153 424.636 666.54C446.234 674.881 467.936 681.515 488.781 686.147C509.595 691.066 529.285 695.156 559.142 705.488C568.434 708.693 576.586 711.923 583.935 714.622C628.344 730.913 642.228 742.792 695.558 760.395C716.386 767.234 736.91 772.445 756.379 775.838C807.951 785.229 848.749 778.704 932.029 797.215C936.88 798.307 941.922 799.483 947.144 800.763C989.143 811.085 1051.55 830.159 1133.37 868.448" stroke="#1D1F43" stroke-opacity="0.12" stroke-width="0.2" stroke-miterlimit="10"/>
<path d="M-409.937 130.817C-365.669 154.936 -328.314 174.385 -301.536 188.014C-219.995 229.32 -200.468 234.824 -168.08 258.051C-134.092 282.351 -131.657 293.538 -94.2299 315.049C-72.7504 327.33 -49.2523 337.987 -25.5188 346.21C19.1878 362.188 27.964 350.535 72.7364 359.081C127.436 369.52 181.474 396.414 189.293 401.374C232.674 429.192 266.594 459.651 286.33 488.51C288.971 492.535 290.5 495.777 291.83 498.139C328.591 561.074 272.911 571.833 319.446 609.084C348.77 632.529 397.555 650.487 422.777 660.342C444.531 668.794 466.41 675.752 487.669 680.977C508.675 686.421 528.406 691.233 557.553 702.011C566.841 705.449 574.93 708.898 582.279 711.597C626.638 727.854 640.21 738.074 692.868 754.252C713.615 760.537 733.937 765.3 753.22 768.397C803.005 776.922 845.712 770.536 930.578 789.111C935.466 790.193 940.57 791.374 945.889 792.653C988.281 802.964 1051.71 822.132 1134.83 860.777" stroke="#1D1F43" stroke-opacity="0.12" stroke-width="0.2" stroke-miterlimit="10"/>
<path d="M-409.062 132.814C-365.777 156.52 -329.053 175.863 -302.273 189.636C-223.262 230.077 -203.22 236.105 -171.108 259.225C-137.828 283.074 -134.715 294.334 -98.4776 315.315C-77.4768 327.404 -54.5399 337.993 -31.2603 346.348C12.5125 362.766 21.6509 351.765 65.6146 360.39C119.015 370.772 169.963 398.015 180.247 401.612C235.645 431.245 263.321 466.355 277.238 485.734C280.037 489.619 281.559 492.728 283.063 495.061C322.109 556.007 269.942 566.706 315.909 602.59C345.8 625.917 395.005 643.875 421.159 654.186C443.084 662.762 465.15 670.049 486.794 675.861C508.018 681.842 527.705 687.351 556.227 698.6C565.489 702.247 573.509 705.928 580.913 708.65C625.218 724.883 638.496 733.401 690.626 748.268C712.715 754.561 731.581 758.021 750.518 761.094C798.548 768.83 843.053 762.392 929.607 781.167C934.523 782.236 939.691 783.418 945.11 784.714C987.931 795.003 1052.36 814.253 1136.77 853.254" stroke="#1D1F43" stroke-opacity="0.12" stroke-width="0.2" stroke-miterlimit="10"/>
<path d="M-408.217 134.807C-365.986 158.041 -329.814 177.315 -302.926 191.212C-226.494 230.754 -206.096 237.301 -173.965 260.377C-141.402 283.797 -137.797 295.037 -102.5 315.583C-82.0129 327.447 -59.6742 337.926 -36.9111 346.351C5.79961 362.984 15.4285 352.861 58.5515 361.563C110.545 372.063 159.732 398.085 171.272 401.837C225.145 430.299 253.379 464.051 268.19 482.933C271.142 486.689 272.679 489.688 274.281 491.946C315.593 550.87 267.016 561.553 312.346 596.08C342.805 619.289 392.461 637.248 419.483 648.014C446.998 658.982 467.126 665.034 485.888 670.739C507.33 677.258 527.823 682.101 554.848 695.161C562.826 699.048 571.059 702.56 579.358 705.616C623.636 721.837 636.543 728.683 688.146 742.164C709.741 747.812 728.456 750.802 747.687 753.717C793.948 760.697 840.236 754.24 928.48 773.137C933.46 774.208 938.693 775.388 944.18 776.679C987.393 786.956 1052.82 806.288 1138.56 845.645" stroke="#1D1F43" stroke-opacity="0.12" stroke-width="0.2" stroke-miterlimit="10"/>
<path d="M-407.35 136.824C-365.988 159.681 -330.556 178.802 -303.829 192.772C-229.826 231.441 -208.928 238.543 -176.969 261.571C-145.011 284.598 -140.88 295.819 -106.702 315.892C-76.9187 333.378 -50.3587 343.944 -42.5279 346.501C-0.756673 360.096 9.21761 354.08 51.5272 362.872C102.157 373.39 149.622 398.248 162.332 402.131C214.648 429.422 243.432 461.759 259.209 480.202C262.286 483.817 263.84 486.706 265.506 488.888C309.086 545.789 264.195 556.46 308.868 589.673C339.949 612.788 389.976 630.713 417.924 641.947C445.872 653.181 466.127 659.535 485.077 665.7C506.71 672.744 527.659 678.32 553.555 691.825C561.357 695.931 569.573 699.594 577.893 702.675C622.117 718.873 634.68 724.059 685.724 736.151C706.851 741.166 725.338 743.64 744.683 746.371C789.167 752.683 837.305 746.131 927.212 765.139C932.237 766.203 937.534 767.385 943.102 768.686C986.74 778.952 1053.16 798.365 1140.21 838.068" stroke="#1D1F43" stroke-opacity="0.12" stroke-width="0.2" stroke-miterlimit="10"/>
<path d="M-406.463 138.798C-366.092 161.263 -331.325 180.277 -304.604 194.337C-233.102 232.075 -211.744 239.754 -179.949 262.711C-148.747 285.253 -143.98 296.568 -110.856 316.17C-81.9418 333.279 -56.2672 343.876 -48.3421 346.513C-7.49153 360.073 2.77753 355.162 44.3008 364.054C93.5711 374.581 139.197 398.249 153.205 402.266C203.995 428.386 233.282 459.197 250.008 477.31C252.418 480.122 254.61 482.912 256.576 485.671C302.368 540.527 261.249 551.209 305.098 583.049C336.834 606.07 387.235 623.95 416.073 635.662C443.82 646.912 464.809 653.807 483.968 660.453C505.821 668.036 527.193 674.42 551.969 688.272C559.616 692.614 567.879 696.461 576.294 699.598C620.495 715.773 632.678 719.309 683.2 730.003C703.887 734.397 722.082 736.354 741.667 738.902C784.441 744.471 834.357 737.912 925.927 757.03C930.998 758.088 936.359 759.272 942.009 760.582C985.99 770.802 1053.47 790.321 1141.84 830.391" stroke="#1D1F43" stroke-opacity="0.12" stroke-width="0.2" stroke-miterlimit="10"/>
<path d="M-405.584 140.784C-366.182 162.802 -332.059 181.667 -305.361 195.925C-236.396 232.742 -214.574 240.988 -182.805 263.933C-152.285 286.036 -146.943 297.366 -114.896 316.475C-86.6878 333.276 -62.0344 343.846 -53.9063 346.61C-13.9636 360.179 -3.27687 356.387 37.329 365.31C85.2353 375.856 129.189 398.394 144.303 402.54C193.541 427.479 223.228 456.848 241.075 474.538C243.566 477.238 245.836 479.925 247.876 482.584C295.94 535.406 258.602 546.078 301.619 576.566C334.003 599.505 384.743 617.35 414.48 629.517C442.443 640.94 463.808 648.232 483.151 655.349C506.122 663.852 528.858 673.789 550.674 684.861C560.017 689.507 567.636 693.964 574.88 696.682C619.032 712.822 630.824 714.731 680.829 724.015C700.962 727.752 719.016 729.218 738.859 731.618C779.938 736.555 831.595 729.853 924.936 749.129C930.03 750.184 935.487 751.371 941.242 752.687C985.683 762.886 1054.17 782.521 1143.76 822.911" stroke="#1D1F43" stroke-opacity="0.12" stroke-width="0.2" stroke-miterlimit="10"/>
<path d="M-404.804 143.362C-366.374 164.944 -332.893 183.725 -306.237 198.082C-239.877 233.911 -217.591 242.723 -186.163 265.559C-156.296 287.235 -150.412 298.579 -119.418 317.217C-92.1879 333.594 -68.3337 344.22 -60.0074 347.122C-20.9325 360.757 -9.99921 357.957 29.8746 367.004C76.3896 377.558 118.618 398.942 134.901 403.219C182.668 427.01 212.576 454.758 231.591 472.212C234.164 474.801 236.523 477.382 238.658 479.944C288.776 530.639 255.495 541.407 297.62 570.532C330.708 593.412 381.731 611.197 412.395 623.833C440.515 635.414 462.283 643.116 481.808 650.703C504.07 659.349 524.143 668.944 548.935 681.944C558.32 686.868 565.83 691.499 573.071 694.151C617.169 710.268 628.598 710.56 678.094 718.413C697.729 721.516 715.55 722.478 735.633 724.696C775.036 729.034 828.433 722.19 923.333 741.519C928.496 742.565 933.984 743.752 939.835 745.071C984.659 755.28 1054.08 774.939 1145.08 815.721" stroke="#1D1F43" stroke-opacity="0.12" stroke-width="0.2" stroke-miterlimit="10"/>
<path d="M-405.532 148.682C-368.08 169.839 -335.243 188.47 -308.627 202.992C-244.623 237.927 -221.897 247.36 -190.607 270.071C-161.421 291.307 -154.972 302.689 -125.028 320.844C-98.6666 336.844 -75.7203 347.479 -67.1686 350.531C-28.971 364.253 -17.7544 362.436 21.306 371.573C66.4535 382.079 106.927 402.375 124.417 406.773C170.549 429.424 197.388 456.137 221.056 472.762C223.857 475.75 226.321 478.253 228.339 480.145C280.598 528.737 251.365 539.624 292.544 567.361C326.372 590.172 377.679 607.899 409.237 621.001C437.514 632.742 459.685 640.853 479.403 648.888C501.883 658.072 522.023 668.555 545.971 681.787C555.396 686.989 562.799 691.795 570.017 694.424C614.087 710.529 625.103 709.248 674.083 715.614C693.236 718.117 710.829 718.563 731.158 720.588C768.906 724.35 824.026 717.331 920.589 736.771C925.79 737.825 931.355 739.01 937.282 740.328C982.507 750.581 1053 770.357 1145.2 811.504" stroke="#1D1F43" stroke-opacity="0.12" stroke-width="0.2" stroke-miterlimit="10"/>
<path d="M-405.999 153.554C-369.443 174.322 -337.256 192.814 -310.67 207.479C-249.125 241.462 -225.855 251.575 -194.883 274.199C-166.373 294.986 -159.359 306.405 -130.497 324.077C-104.999 339.688 -82.9416 350.289 -74.1565 353.547C-36.8186 367.39 -25.3411 366.532 13.0144 375.805C56.8379 386.387 95.5228 405.45 114.21 409.99C158.814 431.404 185.826 456.826 210.78 472.943C213.105 475.301 215.626 477.661 218.329 480.012C272.638 526.487 247.582 537.419 287.749 563.844C322.344 586.598 373.881 604.241 406.329 617.822C434.795 629.723 457.369 638.244 477.233 646.759C499.932 656.48 520.155 667.885 543.351 681.363C552.785 686.842 560.111 691.823 567.353 694.397C611.347 710.455 622.021 707.582 670.467 712.504C689.029 714.361 706.498 714.349 726.991 716.146C763.075 719.354 819.9 712.126 918.131 731.665C923.385 732.647 929.009 733.893 935.015 735.227C980.666 745.392 1052.06 765.258 1145.7 806.72" stroke="#1D1F43" stroke-opacity="0.12" stroke-width="0.2" stroke-miterlimit="10"/>
<path d="M-406.337 158.484C-370.785 178.815 -339.221 197.18 -312.729 211.986C-253.629 244.985 -230.081 255.648 -199.142 278.271C-171.313 298.619 -163.734 310.075 -135.921 327.265C-111.238 342.522 -89.7616 352.232 -81.1319 356.516C-46.2246 373.873 -32.9105 370.571 4.51815 379.897C46.8817 390.495 83.9092 408.396 103.798 413.068C146.877 433.311 174.027 457.374 200.404 473.042C202.805 475.3 205.406 477.553 208.191 479.784C264.527 524.12 243.699 535.131 282.967 560.28C318.307 582.954 370.091 600.549 403.466 614.597C432.115 626.67 455.06 635.599 475.113 644.574C498.03 654.832 518.273 667.157 540.738 680.903C550.208 686.672 557.409 691.793 564.622 694.433C608.593 710.469 618.913 706.035 666.784 709.458C684.973 710.761 702.133 710.198 722.925 711.826C757.286 714.468 815.902 707.054 915.819 726.65C921.109 727.699 926.808 728.873 932.914 730.173C978.962 740.315 1051.4 760.232 1146.32 802.082" stroke="#1D1F43" stroke-opacity="0.12" stroke-width="0.2" stroke-miterlimit="10"/>
<path d="M-406.732 163.408C-372.177 183.358 -341.266 201.517 -314.781 216.489C-258.127 248.504 -234.175 259.798 -203.403 282.362C-176.25 302.259 -168.087 313.709 -141.398 330.515C-117.557 345.406 -96.9235 355.049 -88.1607 359.547C-54.3018 376.865 -40.5333 374.672 -3.89104 384.099C37.1098 394.638 72.4098 411.463 93.473 416.255C134.995 435.327 162.457 458.08 189.925 473.167C192.4 475.328 195.083 477.474 197.95 479.584C256.255 521.767 239.816 532.928 277.833 556.648C314.063 579.28 365.985 596.779 400.223 611.293C429.061 623.525 452.405 632.875 472.64 642.32C495.775 653.115 516.029 666.382 537.803 680.31C547.271 686.377 554.401 691.663 561.592 694.28C605.509 710.292 615.523 704.333 662.905 706.28C680.612 706.984 697.539 705.916 718.554 707.328C751.432 709.521 811.6 701.805 913.146 721.588C918.489 722.616 924.241 723.814 930.405 725.182C976.872 735.324 1050.28 755.311 1146.53 797.529" stroke="#1D1F43" stroke-opacity="0.12" stroke-width="0.2" stroke-miterlimit="10"/>
<path d="M-407.122 168.312C-373.602 187.747 -343.279 205.846 -316.833 220.983C-262.533 252.027 -238.274 263.949 -207.66 286.431C-181.16 305.902 -172.484 317.431 -146.82 333.7C-123.848 348.214 -104.057 357.79 -95.1344 362.514C-62.3748 379.836 -48.0962 378.698 -12.2721 388.225C27.3422 398.761 60.9114 414.442 83.1764 419.366C123.173 437.268 150.692 458.626 179.582 473.264C182.141 475.328 184.907 477.362 187.851 479.344C247.942 519.348 236.08 530.598 272.948 553.024C309.817 575.451 362.079 593.059 397.253 608.019C426.252 620.4 449.999 630.159 470.472 640.097C493.798 651.419 514.09 665.562 535.152 679.792C544.62 686.158 551.687 691.586 558.847 694.203C602.714 710.18 612.44 702.729 659.126 703.084C676.401 703.223 693.095 701.651 714.338 702.836C745.609 704.565 807.447 696.572 910.653 716.399C916.017 717.428 921.842 718.657 928.117 719.965C974.947 730.018 1049.38 750.098 1146.91 792.716" stroke="#1D1F43" stroke-opacity="0.12" stroke-width="0.2" stroke-miterlimit="10"/>
<path d="M-407.506 173.209C-374.883 192.255 -345.258 210.18 -318.847 225.472C-267.064 255.474 -242.356 268.072 -211.91 290.495C-186.092 309.526 -176.791 321.106 -152.244 336.824C-130.087 350.983 -111.138 360.494 -102.083 365.431C-70.3713 382.714 -55.6655 382.673 -20.6007 392.313C17.6048 402.822 49.4336 417.383 72.8461 422.415C111.295 439.123 138.98 459.135 169.184 473.275C171.849 475.252 174.703 477.185 177.713 479.052C239.852 517.017 232.388 528.251 268.075 549.384C306.051 571.862 358.222 589.235 394.294 604.728C423.459 617.246 447.604 627.426 468.206 637.811C491.751 649.67 511.975 664.786 532.409 679.198C541.857 685.908 548.849 691.433 556.013 694.039C599.849 710.015 609.292 701.061 655.363 699.861C672.178 699.422 688.703 697.424 710.083 698.292C739.803 699.581 803.256 691.288 908.13 711.214C913.557 712.245 919.444 713.432 925.79 714.775C973.042 724.894 1048.47 745.045 1147.35 787.975" stroke="#1D1F43" stroke-opacity="0.12" stroke-width="0.2" stroke-miterlimit="10"/>
<path d="M-407.906 178.141C-376.26 196.762 -347.276 214.526 -320.909 229.994C-271.525 258.979 -246.433 272.253 -216.186 294.615C-191.039 313.185 -181.232 324.789 -157.681 340.049C-142.203 349.9 -125.939 359.398 -109.071 368.438C-78.4029 385.671 -63.27 386.727 -28.9962 396.478C7.80035 406.962 38.0756 420.417 62.5892 425.589C99.4768 441.137 127.364 459.792 158.876 473.447C161.639 475.327 164.576 477.148 167.649 478.886C231.461 514.636 228.734 525.962 263.182 545.788C302.098 568.181 354.238 585.774 391.291 601.46C420.736 613.93 445.157 624.738 465.974 635.593C489.655 647.954 509.908 664.046 529.699 678.674C539.133 685.638 546.072 691.362 553.209 693.955C596.995 709.897 606.2 699.486 651.633 696.706C667.985 695.701 684.259 693.165 705.889 693.829C734.025 694.677 799.098 686.073 905.64 706.099C911.085 707.163 917.043 708.307 923.464 709.652C971.15 719.739 1047.58 739.983 1147.75 783.269" stroke="#1D1F43" stroke-opacity="0.12" stroke-width="0.2" stroke-miterlimit="10"/>
<path d="M-408.302 183.062C-377.498 201.317 -349.258 218.862 -322.953 234.472C-275.958 262.419 -250.513 276.367 -220.407 298.681C-195.99 316.777 -185.596 328.441 -163.121 343.207C-148.097 352.945 -132.367 362.392 -116.069 371.466C-86.3806 388.651 -70.8796 390.791 -37.4064 400.676C-2.00927 411.111 26.4251 423.455 52.2634 428.773C87.6306 443.139 115.684 460.447 148.482 473.593C151.353 475.377 154.369 477.089 157.494 478.707C223.117 512.367 225.097 523.707 258.268 542.236C298.168 564.522 350.331 582.061 388.297 598.247C417.925 610.888 442.722 622.094 463.722 633.42C487.676 646.342 507.767 663.326 526.997 678.205C536.344 685.444 543.275 691.333 550.385 693.915C594.149 709.835 603.116 697.965 647.857 693.583C663.803 692.025 679.863 689.018 701.644 689.409C728.3 689.874 794.944 680.924 903.184 701.05C908.68 702.072 914.716 703.263 921.232 704.61C969.338 714.696 1046.81 735.046 1148.24 778.654" stroke="#1D1F43" stroke-opacity="0.12" stroke-width="0.2" stroke-miterlimit="10"/>
<path d="M-408.724 187.966C-379.001 205.739 -351.238 223.193 -325.019 239C-280.5 265.885 -254.594 280.554 -224.682 302.795C-200.892 320.477 -190.002 332.187 -168.562 346.438C-153.97 356.012 -138.768 365.35 -123.054 374.39C-94.3143 391.527 -78.4547 394.774 -45.8541 404.736C-11.8387 415.156 14.8554 426.379 41.9002 431.817C75.7105 445.013 103.934 460.962 138.078 473.612C141.052 475.303 144.149 476.906 147.328 478.4C214.754 509.992 221.392 521.235 253.322 538.535C294.209 560.703 346.391 578.198 385.26 594.906C415.05 607.696 440.25 619.311 461.433 631.107C485.606 644.566 505.588 662.468 524.23 677.586C533.513 685.122 540.424 691.133 547.524 693.736C591.233 709.632 600.048 696.33 644.07 690.333C659.58 688.22 675.528 684.801 697.361 684.85C722.613 684.978 790.701 675.679 900.66 695.862C906.192 696.873 912.292 698.066 918.899 699.427C967.398 709.502 1045.82 729.899 1148.61 773.93" stroke="#1D1F43" stroke-opacity="0.12" stroke-width="0.2" stroke-miterlimit="10"/>
<path d="M-409.115 192.887C-380.375 210.245 -353.156 227.541 -327.077 243.522C-284.803 269.405 -258.694 284.722 -228.945 306.893C-205.804 324.136 -194.371 335.861 -174.017 349.64C-159.869 359.094 -145.184 368.358 -130.034 377.385C-102.242 394.475 -86.0732 398.793 -54.1598 408.925C-21.5437 419.297 3.43239 429.422 31.6742 435.003C63.9594 447.028 92.3532 461.619 127.801 473.794C130.913 475.351 134.084 476.837 137.294 478.245C205.726 509.454 217.879 518.928 248.504 534.996C290.407 556.981 342.702 574.29 382.333 591.695C412.15 604.795 437.911 616.68 459.277 628.946C483.667 642.943 503.483 661.748 521.596 677.118C530.814 684.952 537.717 691.128 544.795 693.709C588.477 709.593 597.131 694.88 640.38 687.246C655.484 684.579 671.213 680.699 693.243 680.443C716.929 680.165 786.692 670.5 898.164 690.768C903.771 691.781 909.915 692.971 916.595 694.338C965.5 704.368 1044.94 724.87 1149.05 769.224" stroke="#1D1F43" stroke-opacity="0.12" stroke-width="0.2" stroke-miterlimit="10"/>
<path d="M-409.502 197.793C-381.734 214.716 -355.119 231.841 -329.121 248.008C-289.168 272.843 -262.774 288.844 -233.198 310.966C-210.733 327.759 -198.767 339.52 -179.436 352.829C-161.551 365.158 -146.754 374.192 -137.013 380.377C-110.132 397.41 -93.6595 402.81 -62.5514 413.087C-34.3946 422.343 -6.36209 430.711 21.3717 438.139C51.6979 446.501 83.2637 455.427 117.425 473.905C120.569 475.486 123.855 476.878 127.157 478.03C198.259 505.621 214.272 516.537 243.609 531.408C286.574 553.177 338.813 570.541 379.357 588.446C409.448 601.731 435.494 614 457.048 626.725C481.606 641.303 501.302 660.98 518.885 676.602C528.011 684.721 534.939 691.064 542.022 693.634C585.627 709.472 594.178 693.36 636.573 684.052C651.272 680.832 666.852 676.55 688.939 675.941C711.026 675.332 782.532 665.37 895.601 685.603C901.225 686.627 907.538 687.848 914.223 689.178C963.548 699.208 1043.96 719.78 1149.42 764.502" stroke="#1D1F43" stroke-opacity="0.12" stroke-width="0.2" stroke-miterlimit="10"/>
<path d="M-409.901 202.711C-383.111 219.209 -357.039 236.098 -331.165 252.55C-293.559 276.325 -266.859 293.032 -237.478 315.082C-215.553 331.484 -203.163 343.235 -184.908 356.05C-167.87 368.023 -153.706 377.03 -144 383.369C-118.003 400.356 -101.276 406.805 -70.946 417.238C-41.1512 427.491 -20.7788 432.907 11.0568 441.286C39.7375 448.829 68.7047 460.466 107.069 474.027C110.595 475.273 113.871 476.722 117.035 477.837C190.024 503.462 210.667 514.125 238.707 527.82C282.73 549.308 334.94 566.814 376.346 585.186C406.626 598.63 433.07 611.32 454.817 624.493C479.613 639.565 499.099 660.167 516.176 676.063C525.211 684.468 532.271 691.025 539.218 693.536C582.769 709.35 591.25 691.841 632.913 680.874C647.234 677.112 662.684 672.461 684.815 671.454C705.658 670.513 778.498 660.154 893.208 680.475C898.895 681.502 905.164 682.677 912.026 684.044C961.744 694.063 1043.18 714.729 1149.92 759.784" stroke="#1D1F43" stroke-opacity="0.12" stroke-width="0.2" stroke-miterlimit="10"/>
<path d="M-410.155 207.678C-384.343 223.752 -358.825 240.504 -333.067 257.074C-297.75 279.803 -270.784 297.159 -241.589 319.193C-220.448 335.098 -207.39 346.944 -190.189 359.288C-174.015 370.873 -160.589 379.793 -150.828 386.378C-125.688 403.331 -108.706 410.828 -79.1589 421.429C-50.7811 431.599 -32.0413 436.241 0.882156 444.494C27.9989 451.253 56.964 461.484 96.8216 474.208C100.363 475.344 103.792 476.665 107.053 477.704C181.979 501.398 206.412 513.812 233.945 524.293C280.808 542.237 327.424 561.52 373.493 582.019C403.967 595.613 430.782 608.711 452.783 622.412C477.797 638.021 497.063 659.504 513.584 675.64C522.499 684.318 529.508 690.996 536.531 693.554C580.06 709.345 588.438 690.437 629.277 677.875C643.215 673.582 658.59 668.585 680.714 667.147C700.144 665.891 774.439 655.084 890.811 675.515C896.535 676.532 902.786 677.673 909.821 679.09C959.968 689.086 1042.38 709.822 1150.43 755.256" stroke="#1D1F43" stroke-opacity="0.12" stroke-width="0.2" stroke-miterlimit="10"/>
<path d="M-410.159 211.337C-385.323 226.985 -360.336 243.546 -334.623 260.37C-301.559 282.042 -274.423 300.123 -245.242 322.112C-224.731 337.535 -211.163 349.472 -195.007 361.323C-179.707 372.542 -166.99 381.387 -157.215 388.161C-132.846 405.104 -115.69 413.614 -86.9263 424.382C-59.9383 434.483 -42.7734 438.44 -8.78176 446.389C16.8301 452.377 45.8829 461.292 87.1119 473.089C90.7012 474.115 94.1967 475.283 97.5864 476.248C174.494 498.056 203.703 509.656 229.689 519.464C277.202 537.367 324.48 556.768 371.161 577.518C401.796 591.26 429.009 604.779 451.085 618.903C476.335 635.083 495.367 657.401 511.54 673.816C520.31 682.756 527.283 689.589 534.393 692.17C577.872 707.927 586.229 687.656 626.191 673.398C639.757 668.553 655.127 663.268 677.164 661.361C695.241 659.804 770.957 648.547 888.997 669.078C894.758 670.085 901.181 671.275 908.198 672.658C958.742 682.632 1042.18 703.461 1151.54 749.24" stroke="#1D1F43" stroke-opacity="0.12" stroke-width="0.2" stroke-miterlimit="10"/>
<path d="M-409.494 213.592C-385.636 228.816 -361.11 245.176 -335.724 262.158C-304.912 282.773 -277.443 301.571 -248.656 323.429C-228.808 338.446 -214.725 350.386 -199.614 361.743C-185.16 372.607 -173.144 381.357 -163.356 388.397C-139.757 405.331 -122.423 414.842 -94.474 425.777C-68.8711 435.796 -53.2058 439.193 -18.245 446.769C5.87002 452.041 35.1062 459.643 77.5756 470.443C81.2349 471.382 84.8241 472.408 88.2886 473.276C167.296 493.223 201.079 503.881 225.638 513.108C273.447 531.085 324.907 551.651 368.997 571.501C399.83 585.381 427.41 599.319 449.696 613.925C475.147 630.61 493.925 653.807 509.65 670.587C518.295 679.812 525.411 686.836 532.413 689.371C575.86 705.126 584.178 683.458 623.281 667.539C636.468 662.151 651.885 656.613 673.762 654.182C690.507 652.345 767.619 640.627 887.326 661.258C893.146 662.277 899.611 663.446 906.724 664.831C957.687 674.805 1042.09 695.705 1152.79 741.819" stroke="#1D1F43" stroke-opacity="0.12" stroke-width="0.2" stroke-miterlimit="10"/>
<path d="M-408.66 215.828C-385.748 230.628 -361.657 246.8 -336.525 263.996C-307.097 283.988 -278.771 304.301 -251.666 324.853C-232.472 339.444 -217.996 351.372 -203.79 362.284C-190.246 372.792 -178.899 381.446 -169.083 388.719C-146.232 405.666 -128.743 416.157 -101.613 427.269C-77.3638 437.208 -63.1452 440.145 -27.3001 447.247C-4.53515 451.763 24.8782 458.139 68.4746 467.906C72.1815 468.736 75.8645 469.62 79.4261 470.413C160.506 488.488 198.87 497.518 221.995 506.851C270.291 526.38 322.276 545.221 367.268 565.593C398.299 579.612 426.236 593.992 448.71 609.057C474.379 626.278 492.863 650.376 508.172 667.444C516.644 676.919 523.839 684.134 530.836 686.68C574.238 702.39 582.459 679.312 620.756 661.754C634.548 654.936 651.348 650.004 670.783 647.066C686.233 644.941 764.708 632.76 886.056 653.479C891.912 654.488 898.441 655.659 905.645 657.058C957.005 667.009 1042.43 688.002 1154.42 734.494" stroke="#1D1F43" stroke-opacity="0.12" stroke-width="0.2" stroke-miterlimit="10"/>
<path d="M-407.852 217.977C-354.029 253.257 -302.85 289.422 -254.729 326.179C-177.323 385.321 -158.653 407.208 -108.8 428.651C-72.4885 444.261 -61.2322 441.758 59.2992 465.247C149.951 482.912 195.26 491.783 218.301 500.494C301.042 531.906 391.726 565.69 447.677 604.078C488.013 631.748 509.728 676.713 529.249 683.79C587.125 704.749 582.628 654.259 667.788 639.842C681.971 637.439 761.777 624.795 884.792 645.614C932.542 653.697 1026.81 673.596 1156.07 727.049" stroke="#1D1F43" stroke-opacity="0.12" stroke-width="0.2" stroke-miterlimit="10"/>
<rect x="444.391" y="267" width="2.83784" height="2.83784" rx="1.34409" transform="rotate(45 444.391 267)" fill="url(#paint0_linear_81_5201)"/>
<rect x="452.417" y="275.027" width="2.83784" height="2.83784" rx="1.34409" transform="rotate(45 452.417 275.027)" fill="url(#paint1_linear_81_5201)"/>
<rect x="460.444" y="283.053" width="2.83784" height="2.83784" rx="1.34409" transform="rotate(45 460.444 283.053)" fill="url(#paint2_linear_81_5201)"/>
<rect x="468.47" y="291.08" width="2.83784" height="2.83784" rx="1.34409" transform="rotate(45 468.47 291.08)" fill="url(#paint3_linear_81_5201)"/>
<rect x="476.497" y="299.106" width="2.83784" height="2.83784" rx="1.34409" transform="rotate(45 476.497 299.106)" fill="url(#paint4_linear_81_5201)"/>
<rect x="484.524" y="307.133" width="2.83784" height="2.83784" rx="1.34409" transform="rotate(45 484.524 307.133)" fill="url(#paint5_linear_81_5201)"/>
<rect x="492.55" y="315.16" width="2.83784" height="2.83784" rx="1.34409" transform="rotate(45 492.55 315.16)" fill="url(#paint6_linear_81_5201)"/>
<rect x="500.577" y="323.187" width="2.83784" height="2.83784" rx="1.34409" transform="rotate(45 500.577 323.187)" fill="url(#paint7_linear_81_5201)"/>
<rect x="508.604" y="331.213" width="2.83784" height="2.83784" rx="1.34409" transform="rotate(45 508.604 331.213)" fill="url(#paint8_linear_81_5201)"/>
<rect x="516.63" y="339.239" width="2.83784" height="2.83784" rx="1.34409" transform="rotate(45 516.63 339.239)" fill="url(#paint9_linear_81_5201)"/>
<rect x="436.364" y="275.027" width="2.83784" height="2.83784" rx="1.34409" transform="rotate(45 436.364 275.027)" fill="url(#paint10_linear_81_5201)"/>
<rect x="444.391" y="283.053" width="2.83784" height="2.83784" rx="1.34409" transform="rotate(45 444.391 283.053)" fill="url(#paint11_linear_81_5201)"/>
<rect x="452.417" y="291.08" width="2.83784" height="2.83784" rx="1.34409" transform="rotate(45 452.417 291.08)" fill="url(#paint12_linear_81_5201)"/>
<rect x="460.444" y="299.106" width="2.83784" height="2.83784" rx="1.34409" transform="rotate(45 460.444 299.106)" fill="url(#paint13_linear_81_5201)"/>
<rect x="468.471" y="307.133" width="2.83784" height="2.83784" rx="1.34409" transform="rotate(45 468.471 307.133)" fill="url(#paint14_linear_81_5201)"/>
<rect x="476.497" y="315.16" width="2.83784" height="2.83784" rx="1.34409" transform="rotate(45 476.497 315.16)" fill="url(#paint15_linear_81_5201)"/>
<rect x="484.524" y="323.187" width="2.83784" height="2.83784" rx="1.34409" transform="rotate(45 484.524 323.187)" fill="url(#paint16_linear_81_5201)"/>
<rect x="492.55" y="331.213" width="2.83784" height="2.83784" rx="1.34409" transform="rotate(45 492.55 331.213)" fill="url(#paint17_linear_81_5201)"/>
<rect x="500.577" y="339.24" width="2.83784" height="2.83784" rx="1.34409" transform="rotate(45 500.577 339.24)" fill="url(#paint18_linear_81_5201)"/>
<rect x="508.604" y="347.266" width="2.83784" height="2.83784" rx="1.34409" transform="rotate(45 508.604 347.266)" fill="url(#paint19_linear_81_5201)"/>
<rect x="428.337" y="283.053" width="2.83784" height="2.83784" rx="1.34409" transform="rotate(45 428.337 283.053)" fill="url(#paint20_linear_81_5201)"/>
<rect x="436.364" y="291.08" width="2.83784" height="2.83784" rx="1.34409" transform="rotate(45 436.364 291.08)" fill="url(#paint21_linear_81_5201)"/>
<rect x="444.391" y="299.106" width="2.83784" height="2.83784" rx="1.34409" transform="rotate(45 444.391 299.106)" fill="url(#paint22_linear_81_5201)"/>
<rect x="452.417" y="307.133" width="2.83784" height="2.83784" rx="1.34409" transform="rotate(45 452.417 307.133)" fill="url(#paint23_linear_81_5201)"/>
<rect x="460.444" y="315.16" width="2.83784" height="2.83784" rx="1.34409" transform="rotate(45 460.444 315.16)" fill="url(#paint24_linear_81_5201)"/>
<rect x="468.471" y="323.187" width="2.83784" height="2.83784" rx="1.34409" transform="rotate(45 468.471 323.187)" fill="url(#paint25_linear_81_5201)"/>
<rect x="476.497" y="331.213" width="2.83784" height="2.83784" rx="1.34409" transform="rotate(45 476.497 331.213)" fill="url(#paint26_linear_81_5201)"/>
<rect x="484.524" y="339.24" width="2.83784" height="2.83784" rx="1.34409" transform="rotate(45 484.524 339.24)" fill="url(#paint27_linear_81_5201)"/>
<rect x="492.55" y="347.266" width="2.83784" height="2.83784" rx="1.34409" transform="rotate(45 492.55 347.266)" fill="url(#paint28_linear_81_5201)"/>
<rect x="500.577" y="355.293" width="2.83784" height="2.83784" rx="1.34409" transform="rotate(45 500.577 355.293)" fill="url(#paint29_linear_81_5201)"/>
<rect x="420.311" y="291.08" width="2.83784" height="2.83784" rx="1.34409" transform="rotate(45 420.311 291.08)" fill="url(#paint30_linear_81_5201)"/>
<rect x="428.337" y="299.106" width="2.83784" height="2.83784" rx="1.34409" transform="rotate(45 428.337 299.106)" fill="url(#paint31_linear_81_5201)"/>
<rect x="436.364" y="307.133" width="2.83784" height="2.83784" rx="1.34409" transform="rotate(45 436.364 307.133)" fill="url(#paint32_linear_81_5201)"/>
<rect x="444.391" y="315.16" width="2.83784" height="2.83784" rx="1.34409" transform="rotate(45 444.391 315.16)" fill="url(#paint33_linear_81_5201)"/>
<rect x="452.417" y="323.187" width="2.83784" height="2.83784" rx="1.34409" transform="rotate(45 452.417 323.187)" fill="url(#paint34_linear_81_5201)"/>
<rect x="460.444" y="331.213" width="2.83784" height="2.83784" rx="1.34409" transform="rotate(45 460.444 331.213)" fill="url(#paint35_linear_81_5201)"/>
<rect x="468.471" y="339.24" width="2.83784" height="2.83784" rx="1.34409" transform="rotate(45 468.471 339.24)" fill="url(#paint36_linear_81_5201)"/>
<rect x="476.497" y="347.266" width="2.83784" height="2.83784" rx="1.34409" transform="rotate(45 476.497 347.266)" fill="url(#paint37_linear_81_5201)"/>
<rect x="484.524" y="355.293" width="2.83784" height="2.83784" rx="1.34409" transform="rotate(45 484.524 355.293)" fill="url(#paint38_linear_81_5201)"/>
<rect x="492.55" y="363.319" width="2.83784" height="2.83784" rx="1.34409" transform="rotate(45 492.55 363.319)" fill="url(#paint39_linear_81_5201)"/>
<rect x="412.284" y="299.106" width="2.83784" height="2.83784" rx="1.34409" transform="rotate(45 412.284 299.106)" fill="url(#paint40_linear_81_5201)"/>
<rect x="420.311" y="307.133" width="2.83784" height="2.83784" rx="1.34409" transform="rotate(45 420.311 307.133)" fill="url(#paint41_linear_81_5201)"/>
<rect x="428.337" y="315.16" width="2.83784" height="2.83784" rx="1.34409" transform="rotate(45 428.337 315.16)" fill="url(#paint42_linear_81_5201)"/>
<rect x="436.364" y="323.187" width="2.83784" height="2.83784" rx="1.34409" transform="rotate(45 436.364 323.187)" fill="url(#paint43_linear_81_5201)"/>
<rect x="444.391" y="331.213" width="2.83784" height="2.83784" rx="1.34409" transform="rotate(45 444.391 331.213)" fill="url(#paint44_linear_81_5201)"/>
<rect x="452.417" y="339.24" width="2.83784" height="2.83784" rx="1.34409" transform="rotate(45 452.417 339.24)" fill="url(#paint45_linear_81_5201)"/>
<rect x="460.444" y="347.266" width="2.83784" height="2.83784" rx="1.34409" transform="rotate(45 460.444 347.266)" fill="url(#paint46_linear_81_5201)"/>
<rect x="468.471" y="355.293" width="2.83784" height="2.83784" rx="1.34409" transform="rotate(45 468.471 355.293)" fill="url(#paint47_linear_81_5201)"/>
<rect x="476.497" y="363.319" width="2.83784" height="2.83784" rx="1.34409" transform="rotate(45 476.497 363.319)" fill="url(#paint48_linear_81_5201)"/>
<rect x="484.523" y="371.346" width="2.83784" height="2.83784" rx="1.34409" transform="rotate(45 484.523 371.346)" fill="url(#paint49_linear_81_5201)"/>
<rect x="404.257" y="307.133" width="2.83784" height="2.83784" rx="1.34409" transform="rotate(45 404.257 307.133)" fill="url(#paint50_linear_81_5201)"/>
<rect x="412.284" y="315.16" width="2.83784" height="2.83784" rx="1.34409" transform="rotate(45 412.284 315.16)" fill="url(#paint51_linear_81_5201)"/>
<rect x="420.311" y="323.187" width="2.83784" height="2.83784" rx="1.34409" transform="rotate(45 420.311 323.187)" fill="url(#paint52_linear_81_5201)"/>
<rect x="428.337" y="331.213" width="2.83784" height="2.83784" rx="1.34409" transform="rotate(45 428.337 331.213)" fill="url(#paint53_linear_81_5201)"/>
<rect x="436.364" y="339.24" width="2.83784" height="2.83784" rx="1.34409" transform="rotate(45 436.364 339.24)" fill="url(#paint54_linear_81_5201)"/>
<rect x="444.391" y="347.266" width="2.83784" height="2.83784" rx="1.34409" transform="rotate(45 444.391 347.266)" fill="url(#paint55_linear_81_5201)"/>
<rect x="452.417" y="355.293" width="2.83784" height="2.83784" rx="1.34409" transform="rotate(45 452.417 355.293)" fill="url(#paint56_linear_81_5201)"/>
<rect x="460.444" y="363.319" width="2.83784" height="2.83784" rx="1.34409" transform="rotate(45 460.444 363.319)" fill="url(#paint57_linear_81_5201)"/>
<rect x="468.471" y="371.346" width="2.83784" height="2.83784" rx="1.34409" transform="rotate(45 468.471 371.346)" fill="url(#paint58_linear_81_5201)"/>
<rect x="476.497" y="379.373" width="2.83784" height="2.83784" rx="1.34409" transform="rotate(45 476.497 379.373)" fill="url(#paint59_linear_81_5201)"/>
<rect x="396.231" y="315.16" width="2.83784" height="2.83784" rx="1.34409" transform="rotate(45 396.231 315.16)" fill="url(#paint60_linear_81_5201)"/>
<rect x="388.49" y="322.901" width="2.83784" height="2.83784" rx="1.34409" transform="rotate(45 388.49 322.901)" fill="url(#paint61_linear_81_5201)"/>
<rect x="380.748" y="330.643" width="2.83784" height="2.83784" rx="1.34409" transform="rotate(45 380.748 330.643)" fill="url(#paint62_linear_81_5201)"/>
<rect x="373.007" y="338.384" width="2.83784" height="2.83784" rx="1.34409" transform="rotate(45 373.007 338.384)" fill="url(#paint63_linear_81_5201)"/>
<rect x="404.257" y="323.187" width="2.83784" height="2.83784" rx="1.34409" transform="rotate(45 404.257 323.187)" fill="url(#paint64_linear_81_5201)"/>
<rect x="396.516" y="330.928" width="2.83784" height="2.83784" rx="1.34409" transform="rotate(45 396.516 330.928)" fill="url(#paint65_linear_81_5201)"/>
<rect x="388.775" y="338.669" width="2.83784" height="2.83784" rx="1.34409" transform="rotate(45 388.775 338.669)" fill="url(#paint66_linear_81_5201)"/>
<rect x="381.033" y="346.411" width="2.83784" height="2.83784" rx="1.34409" transform="rotate(45 381.033 346.411)" fill="url(#paint67_linear_81_5201)"/>
<rect x="412.284" y="331.213" width="2.83784" height="2.83784" rx="1.34409" transform="rotate(45 412.284 331.213)" fill="url(#paint68_linear_81_5201)"/>
<rect x="404.543" y="338.955" width="2.83784" height="2.83784" rx="1.34409" transform="rotate(45 404.543 338.955)" fill="url(#paint69_linear_81_5201)"/>
<rect x="396.801" y="346.696" width="2.83784" height="2.83784" rx="1.34409" transform="rotate(45 396.801 346.696)" fill="url(#paint70_linear_81_5201)"/>
<rect x="389.06" y="354.437" width="2.83784" height="2.83784" rx="1.34409" transform="rotate(45 389.06 354.437)" fill="url(#paint71_linear_81_5201)"/>
<rect x="420.311" y="339.24" width="2.83784" height="2.83784" rx="1.34409" transform="rotate(45 420.311 339.24)" fill="url(#paint72_linear_81_5201)"/>
<rect x="412.569" y="346.981" width="2.83784" height="2.83784" rx="1.34409" transform="rotate(45 412.569 346.981)" fill="url(#paint73_linear_81_5201)"/>
<rect x="404.828" y="354.722" width="2.83784" height="2.83784" rx="1.34409" transform="rotate(45 404.828 354.722)" fill="url(#paint74_linear_81_5201)"/>
<rect x="397.086" y="362.464" width="2.83784" height="2.83784" rx="1.34409" transform="rotate(45 397.086 362.464)" fill="url(#paint75_linear_81_5201)"/>
<rect x="428.337" y="347.266" width="2.83784" height="2.83784" rx="1.34409" transform="rotate(45 428.337 347.266)" fill="url(#paint76_linear_81_5201)"/>
<rect x="420.596" y="355.008" width="2.83784" height="2.83784" rx="1.34409" transform="rotate(45 420.596 355.008)" fill="url(#paint77_linear_81_5201)"/>
<rect x="412.854" y="362.749" width="2.83784" height="2.83784" rx="1.34409" transform="rotate(45 412.854 362.749)" fill="url(#paint78_linear_81_5201)"/>
<rect x="405.113" y="370.49" width="2.83784" height="2.83784" rx="1.34409" transform="rotate(45 405.113 370.49)" fill="url(#paint79_linear_81_5201)"/>
<rect x="436.364" y="355.293" width="2.83784" height="2.83784" rx="1.34409" transform="rotate(45 436.364 355.293)" fill="url(#paint80_linear_81_5201)"/>
<rect x="428.623" y="363.034" width="2.83784" height="2.83784" rx="1.34409" transform="rotate(45 428.623 363.034)" fill="url(#paint81_linear_81_5201)"/>
<rect x="420.881" y="370.775" width="2.83784" height="2.83784" rx="1.34409" transform="rotate(45 420.881 370.775)" fill="url(#paint82_linear_81_5201)"/>
<rect x="413.14" y="378.517" width="2.83784" height="2.83784" rx="1.34409" transform="rotate(45 413.14 378.517)" fill="url(#paint83_linear_81_5201)"/>
<rect x="444.391" y="363.319" width="2.83784" height="2.83784" rx="1.34409" transform="rotate(45 444.391 363.319)" fill="url(#paint84_linear_81_5201)"/>
<rect x="436.649" y="371.061" width="2.83784" height="2.83784" rx="1.34409" transform="rotate(45 436.649 371.061)" fill="url(#paint85_linear_81_5201)"/>
<rect x="428.908" y="378.802" width="2.83784" height="2.83784" rx="1.34409" transform="rotate(45 428.908 378.802)" fill="url(#paint86_linear_81_5201)"/>
<rect x="421.167" y="386.543" width="2.83784" height="2.83784" rx="1.34409" transform="rotate(45 421.167 386.543)" fill="url(#paint87_linear_81_5201)"/>
<rect x="452.417" y="371.346" width="2.83784" height="2.83784" rx="1.34409" transform="rotate(45 452.417 371.346)" fill="url(#paint88_linear_81_5201)"/>
<rect x="444.676" y="379.087" width="2.83784" height="2.83784" rx="1.34409" transform="rotate(45 444.676 379.087)" fill="url(#paint89_linear_81_5201)"/>
<rect x="436.935" y="386.829" width="2.83784" height="2.83784" rx="1.34409" transform="rotate(45 436.935 386.829)" fill="url(#paint90_linear_81_5201)"/>
<rect x="429.193" y="394.57" width="2.83784" height="2.83784" rx="1.34409" transform="rotate(45 429.193 394.57)" fill="url(#paint91_linear_81_5201)"/>
<rect x="460.444" y="379.373" width="2.83784" height="2.83784" rx="1.34409" transform="rotate(45 460.444 379.373)" fill="url(#paint92_linear_81_5201)"/>
<rect x="452.703" y="387.114" width="2.83784" height="2.83784" rx="1.34409" transform="rotate(45 452.703 387.114)" fill="url(#paint93_linear_81_5201)"/>
<rect x="444.961" y="394.855" width="2.83784" height="2.83784" rx="1.34409" transform="rotate(45 444.961 394.855)" fill="url(#paint94_linear_81_5201)"/>
<rect x="437.22" y="402.597" width="2.83784" height="2.83784" rx="1.34409" transform="rotate(45 437.22 402.597)" fill="url(#paint95_linear_81_5201)"/>
<rect x="468.47" y="387.399" width="2.83784" height="2.83784" rx="1.34409" transform="rotate(45 468.47 387.399)" fill="url(#paint96_linear_81_5201)"/>
<rect x="460.729" y="395.141" width="2.83784" height="2.83784" rx="1.34409" transform="rotate(45 460.729 395.141)" fill="url(#paint97_linear_81_5201)"/>
<rect x="452.988" y="402.882" width="2.83784" height="2.83784" rx="1.34409" transform="rotate(45 452.988 402.882)" fill="url(#paint98_linear_81_5201)"/>
<rect x="445.246" y="410.624" width="2.83784" height="2.83784" rx="1.34409" transform="rotate(45 445.246 410.624)" fill="url(#paint99_linear_81_5201)"/>
<defs>
<filter id="filter0_f_81_5201" x="-262.176" y="0.589355" width="916.622" height="1008.08" filterUnits="userSpaceOnUse" color-interpolation-filters="sRGB">
<feFlood flood-opacity="0" result="BackgroundImageFix"/>
<feBlend mode="normal" in="SourceGraphic" in2="BackgroundImageFix" result="shape"/>
<feGaussianBlur stdDeviation="141.5" result="effect1_foregroundBlur_81_5201"/>
</filter>
<linearGradient id="paint0_linear_81_5201" x1="445.81" y1="267" x2="445.81" y2="269.838" gradientUnits="userSpaceOnUse">
<stop stop-color="#7733FF"/>
<stop offset="0.901042" stop-color="#FDB658"/>
</linearGradient>
<linearGradient id="paint1_linear_81_5201" x1="453.836" y1="275.027" x2="453.836" y2="277.865" gradientUnits="userSpaceOnUse">
<stop stop-color="#7733FF"/>
<stop offset="0.901042" stop-color="#FDB658"/>
</linearGradient>
<linearGradient id="paint2_linear_81_5201" x1="461.863" y1="283.053" x2="461.863" y2="285.891" gradientUnits="userSpaceOnUse">
<stop stop-color="#7733FF"/>
<stop offset="0.901042" stop-color="#FDB658"/>
</linearGradient>
<linearGradient id="paint3_linear_81_5201" x1="469.889" y1="291.08" x2="469.889" y2="293.917" gradientUnits="userSpaceOnUse">
<stop stop-color="#7733FF"/>
<stop offset="0.901042" stop-color="#FDB658"/>
</linearGradient>
<linearGradient id="paint4_linear_81_5201" x1="477.916" y1="299.106" x2="477.916" y2="301.944" gradientUnits="userSpaceOnUse">
<stop stop-color="#7733FF"/>
<stop offset="0.901042" stop-color="#FDB658"/>
</linearGradient>
<linearGradient id="paint5_linear_81_5201" x1="485.943" y1="307.133" x2="485.943" y2="309.971" gradientUnits="userSpaceOnUse">
<stop stop-color="#7733FF"/>
<stop offset="0.901042" stop-color="#FDB658"/>
</linearGradient>
<linearGradient id="paint6_linear_81_5201" x1="493.969" y1="315.16" x2="493.969" y2="317.998" gradientUnits="userSpaceOnUse">
<stop stop-color="#7733FF"/>
<stop offset="0.901042" stop-color="#FDB658"/>
</linearGradient>
<linearGradient id="paint7_linear_81_5201" x1="501.996" y1="323.187" x2="501.996" y2="326.024" gradientUnits="userSpaceOnUse">
<stop stop-color="#7733FF"/>
<stop offset="0.901042" stop-color="#FDB658"/>
</linearGradient>
<linearGradient id="paint8_linear_81_5201" x1="510.022" y1="331.213" x2="510.022" y2="334.051" gradientUnits="userSpaceOnUse">
<stop stop-color="#7733FF"/>
<stop offset="0.901042" stop-color="#FDB658"/>
</linearGradient>
<linearGradient id="paint9_linear_81_5201" x1="518.049" y1="339.239" x2="518.049" y2="342.077" gradientUnits="userSpaceOnUse">
<stop stop-color="#7733FF"/>
<stop offset="0.901042" stop-color="#FDB658"/>
</linearGradient>
<linearGradient id="paint10_linear_81_5201" x1="437.783" y1="275.027" x2="437.783" y2="277.865" gradientUnits="userSpaceOnUse">
<stop stop-color="#7733FF"/>
<stop offset="0.901042" stop-color="#FDB658"/>
</linearGradient>
<linearGradient id="paint11_linear_81_5201" x1="445.81" y1="283.053" x2="445.81" y2="285.891" gradientUnits="userSpaceOnUse">
<stop stop-color="#7733FF"/>
<stop offset="0.901042" stop-color="#FDB658"/>
</linearGradient>
<linearGradient id="paint12_linear_81_5201" x1="453.836" y1="291.08" x2="453.836" y2="293.918" gradientUnits="userSpaceOnUse">
<stop stop-color="#7733FF"/>
<stop offset="0.901042" stop-color="#FDB658"/>
</linearGradient>
<linearGradient id="paint13_linear_81_5201" x1="461.863" y1="299.106" x2="461.863" y2="301.944" gradientUnits="userSpaceOnUse">
<stop stop-color="#7733FF"/>
<stop offset="0.901042" stop-color="#FDB658"/>
</linearGradient>
<linearGradient id="paint14_linear_81_5201" x1="469.89" y1="307.133" x2="469.89" y2="309.971" gradientUnits="userSpaceOnUse">
<stop stop-color="#7733FF"/>
<stop offset="0.901042" stop-color="#FDB658"/>
</linearGradient>
<linearGradient id="paint15_linear_81_5201" x1="477.916" y1="315.16" x2="477.916" y2="317.998" gradientUnits="userSpaceOnUse">
<stop stop-color="#7733FF"/>
<stop offset="0.901042" stop-color="#FDB658"/>
</linearGradient>
<linearGradient id="paint16_linear_81_5201" x1="485.943" y1="323.187" x2="485.943" y2="326.024" gradientUnits="userSpaceOnUse">
<stop stop-color="#7733FF"/>
<stop offset="0.901042" stop-color="#FDB658"/>
</linearGradient>
<linearGradient id="paint17_linear_81_5201" x1="493.969" y1="331.213" x2="493.969" y2="334.051" gradientUnits="userSpaceOnUse">
<stop stop-color="#7733FF"/>
<stop offset="0.901042" stop-color="#FDB658"/>
</linearGradient>
<linearGradient id="paint18_linear_81_5201" x1="501.996" y1="339.24" x2="501.996" y2="342.078" gradientUnits="userSpaceOnUse">
<stop stop-color="#7733FF"/>
<stop offset="0.901042" stop-color="#FDB658"/>
</linearGradient>
<linearGradient id="paint19_linear_81_5201" x1="510.022" y1="347.266" x2="510.022" y2="350.104" gradientUnits="userSpaceOnUse">
<stop stop-color="#7733FF"/>
<stop offset="0.901042" stop-color="#FDB658"/>
</linearGradient>
<linearGradient id="paint20_linear_81_5201" x1="429.756" y1="283.053" x2="429.756" y2="285.891" gradientUnits="userSpaceOnUse">
<stop stop-color="#7733FF"/>
<stop offset="0.901042" stop-color="#FDB658"/>
</linearGradient>
<linearGradient id="paint21_linear_81_5201" x1="437.783" y1="291.08" x2="437.783" y2="293.918" gradientUnits="userSpaceOnUse">
<stop stop-color="#7733FF"/>
<stop offset="0.901042" stop-color="#FDB658"/>
</linearGradient>
<linearGradient id="paint22_linear_81_5201" x1="445.81" y1="299.106" x2="445.81" y2="301.944" gradientUnits="userSpaceOnUse">
<stop stop-color="#7733FF"/>
<stop offset="0.901042" stop-color="#FDB658"/>
</linearGradient>
<linearGradient id="paint23_linear_81_5201" x1="453.836" y1="307.133" x2="453.836" y2="309.971" gradientUnits="userSpaceOnUse">
<stop stop-color="#7733FF"/>
<stop offset="0.901042" stop-color="#FDB658"/>
</linearGradient>
<linearGradient id="paint24_linear_81_5201" x1="461.863" y1="315.16" x2="461.863" y2="317.998" gradientUnits="userSpaceOnUse">
<stop stop-color="#7733FF"/>
<stop offset="0.901042" stop-color="#FDB658"/>
</linearGradient>
<linearGradient id="paint25_linear_81_5201" x1="469.89" y1="323.187" x2="469.89" y2="326.024" gradientUnits="userSpaceOnUse">
<stop stop-color="#7733FF"/>
<stop offset="0.901042" stop-color="#FDB658"/>
</linearGradient>
<linearGradient id="paint26_linear_81_5201" x1="477.916" y1="331.213" x2="477.916" y2="334.051" gradientUnits="userSpaceOnUse">
<stop stop-color="#7733FF"/>
<stop offset="0.901042" stop-color="#FDB658"/>
</linearGradient>
<linearGradient id="paint27_linear_81_5201" x1="485.943" y1="339.24" x2="485.943" y2="342.078" gradientUnits="userSpaceOnUse">
<stop stop-color="#7733FF"/>
<stop offset="0.901042" stop-color="#FDB658"/>
</linearGradient>
<linearGradient id="paint28_linear_81_5201" x1="493.969" y1="347.266" x2="493.969" y2="350.104" gradientUnits="userSpaceOnUse">
<stop stop-color="#7733FF"/>
<stop offset="0.901042" stop-color="#FDB658"/>
</linearGradient>
<linearGradient id="paint29_linear_81_5201" x1="501.996" y1="355.293" x2="501.996" y2="358.131" gradientUnits="userSpaceOnUse">
<stop stop-color="#7733FF"/>
<stop offset="0.901042" stop-color="#FDB658"/>
</linearGradient>
<linearGradient id="paint30_linear_81_5201" x1="421.729" y1="291.08" x2="421.729" y2="293.918" gradientUnits="userSpaceOnUse">
<stop stop-color="#7733FF"/>
<stop offset="0.901042" stop-color="#FDB658"/>
</linearGradient>
<linearGradient id="paint31_linear_81_5201" x1="429.756" y1="299.106" x2="429.756" y2="301.944" gradientUnits="userSpaceOnUse">
<stop stop-color="#7733FF"/>
<stop offset="0.901042" stop-color="#FDB658"/>
</linearGradient>
<linearGradient id="paint32_linear_81_5201" x1="437.783" y1="307.133" x2="437.783" y2="309.971" gradientUnits="userSpaceOnUse">
<stop stop-color="#7733FF"/>
<stop offset="0.901042" stop-color="#FDB658"/>
</linearGradient>
<linearGradient id="paint33_linear_81_5201" x1="445.81" y1="315.16" x2="445.81" y2="317.998" gradientUnits="userSpaceOnUse">
<stop stop-color="#7733FF"/>
<stop offset="0.901042" stop-color="#FDB658"/>
</linearGradient>
<linearGradient id="paint34_linear_81_5201" x1="453.836" y1="323.187" x2="453.836" y2="326.024" gradientUnits="userSpaceOnUse">
<stop stop-color="#7733FF"/>
<stop offset="0.901042" stop-color="#FDB658"/>
</linearGradient>
<linearGradient id="paint35_linear_81_5201" x1="461.863" y1="331.213" x2="461.863" y2="334.051" gradientUnits="userSpaceOnUse">
<stop stop-color="#7733FF"/>
<stop offset="0.901042" stop-color="#FDB658"/>
</linearGradient>
<linearGradient id="paint36_linear_81_5201" x1="469.89" y1="339.24" x2="469.89" y2="342.078" gradientUnits="userSpaceOnUse">
<stop stop-color="#7733FF"/>
<stop offset="0.901042" stop-color="#FDB658"/>
</linearGradient>
<linearGradient id="paint37_linear_81_5201" x1="477.916" y1="347.266" x2="477.916" y2="350.104" gradientUnits="userSpaceOnUse">
<stop stop-color="#7733FF"/>
<stop offset="0.901042" stop-color="#FDB658"/>
</linearGradient>
<linearGradient id="paint38_linear_81_5201" x1="485.943" y1="355.293" x2="485.943" y2="358.131" gradientUnits="userSpaceOnUse">
<stop stop-color="#7733FF"/>
<stop offset="0.901042" stop-color="#FDB658"/>
</linearGradient>
<linearGradient id="paint39_linear_81_5201" x1="493.969" y1="363.319" x2="493.969" y2="366.157" gradientUnits="userSpaceOnUse">
<stop stop-color="#7733FF"/>
<stop offset="0.901042" stop-color="#FDB658"/>
</linearGradient>
<linearGradient id="paint40_linear_81_5201" x1="413.703" y1="299.106" x2="413.703" y2="301.944" gradientUnits="userSpaceOnUse">
<stop stop-color="#7733FF"/>
<stop offset="0.901042" stop-color="#FDB658"/>
</linearGradient>
<linearGradient id="paint41_linear_81_5201" x1="421.73" y1="307.133" x2="421.73" y2="309.971" gradientUnits="userSpaceOnUse">
<stop stop-color="#7733FF"/>
<stop offset="0.901042" stop-color="#FDB658"/>
</linearGradient>
<linearGradient id="paint42_linear_81_5201" x1="429.756" y1="315.16" x2="429.756" y2="317.998" gradientUnits="userSpaceOnUse">
<stop stop-color="#7733FF"/>
<stop offset="0.901042" stop-color="#FDB658"/>
</linearGradient>
<linearGradient id="paint43_linear_81_5201" x1="437.783" y1="323.187" x2="437.783" y2="326.024" gradientUnits="userSpaceOnUse">
<stop stop-color="#7733FF"/>
<stop offset="0.901042" stop-color="#FDB658"/>
</linearGradient>
<linearGradient id="paint44_linear_81_5201" x1="445.81" y1="331.213" x2="445.81" y2="334.051" gradientUnits="userSpaceOnUse">
<stop stop-color="#7733FF"/>
<stop offset="0.901042" stop-color="#FDB658"/>
</linearGradient>
<linearGradient id="paint45_linear_81_5201" x1="453.836" y1="339.24" x2="453.836" y2="342.078" gradientUnits="userSpaceOnUse">
<stop stop-color="#7733FF"/>
<stop offset="0.901042" stop-color="#FDB658"/>
</linearGradient>
<linearGradient id="paint46_linear_81_5201" x1="461.863" y1="347.266" x2="461.863" y2="350.104" gradientUnits="userSpaceOnUse">
<stop stop-color="#7733FF"/>
<stop offset="0.901042" stop-color="#FDB658"/>
</linearGradient>
<linearGradient id="paint47_linear_81_5201" x1="469.89" y1="355.293" x2="469.89" y2="358.131" gradientUnits="userSpaceOnUse">
<stop stop-color="#7733FF"/>
<stop offset="0.901042" stop-color="#FDB658"/>
</linearGradient>
<linearGradient id="paint48_linear_81_5201" x1="477.916" y1="363.319" x2="477.916" y2="366.157" gradientUnits="userSpaceOnUse">
<stop stop-color="#7733FF"/>
<stop offset="0.901042" stop-color="#FDB658"/>
</linearGradient>
<linearGradient id="paint49_linear_81_5201" x1="485.942" y1="371.346" x2="485.942" y2="374.184" gradientUnits="userSpaceOnUse">
<stop stop-color="#7733FF"/>
<stop offset="0.901042" stop-color="#FDB658"/>
</linearGradient>
<linearGradient id="paint50_linear_81_5201" x1="405.676" y1="307.133" x2="405.676" y2="309.971" gradientUnits="userSpaceOnUse">
<stop stop-color="#7733FF"/>
<stop offset="0.901042" stop-color="#FDB658"/>
</linearGradient>
<linearGradient id="paint51_linear_81_5201" x1="413.703" y1="315.16" x2="413.703" y2="317.998" gradientUnits="userSpaceOnUse">
<stop stop-color="#7733FF"/>
<stop offset="0.901042" stop-color="#FDB658"/>
</linearGradient>
<linearGradient id="paint52_linear_81_5201" x1="421.73" y1="323.187" x2="421.73" y2="326.024" gradientUnits="userSpaceOnUse">
<stop stop-color="#7733FF"/>
<stop offset="0.901042" stop-color="#FDB658"/>
</linearGradient>
<linearGradient id="paint53_linear_81_5201" x1="429.756" y1="331.213" x2="429.756" y2="334.051" gradientUnits="userSpaceOnUse">
<stop stop-color="#7733FF"/>
<stop offset="0.901042" stop-color="#FDB658"/>
</linearGradient>
<linearGradient id="paint54_linear_81_5201" x1="437.783" y1="339.24" x2="437.783" y2="342.078" gradientUnits="userSpaceOnUse">
<stop stop-color="#7733FF"/>
<stop offset="0.901042" stop-color="#FDB658"/>
</linearGradient>
<linearGradient id="paint55_linear_81_5201" x1="445.81" y1="347.266" x2="445.81" y2="350.104" gradientUnits="userSpaceOnUse">
<stop stop-color="#7733FF"/>
<stop offset="0.901042" stop-color="#FDB658"/>
</linearGradient>
<linearGradient id="paint56_linear_81_5201" x1="453.836" y1="355.293" x2="453.836" y2="358.131" gradientUnits="userSpaceOnUse">
<stop stop-color="#7733FF"/>
<stop offset="0.901042" stop-color="#FDB658"/>
</linearGradient>
<linearGradient id="paint57_linear_81_5201" x1="461.863" y1="363.319" x2="461.863" y2="366.157" gradientUnits="userSpaceOnUse">
<stop stop-color="#7733FF"/>
<stop offset="0.901042" stop-color="#FDB658"/>
</linearGradient>
<linearGradient id="paint58_linear_81_5201" x1="469.89" y1="371.346" x2="469.89" y2="374.184" gradientUnits="userSpaceOnUse">
<stop stop-color="#7733FF"/>
<stop offset="0.901042" stop-color="#FDB658"/>
</linearGradient>
<linearGradient id="paint59_linear_81_5201" x1="477.916" y1="379.373" x2="477.916" y2="382.21" gradientUnits="userSpaceOnUse">
<stop stop-color="#7733FF"/>
<stop offset="0.901042" stop-color="#FDB658"/>
</linearGradient>
<linearGradient id="paint60_linear_81_5201" x1="397.65" y1="315.16" x2="397.65" y2="317.998" gradientUnits="userSpaceOnUse">
<stop stop-color="#7733FF"/>
<stop offset="0.901042" stop-color="#FDB658"/>
</linearGradient>
<linearGradient id="paint61_linear_81_5201" x1="389.909" y1="322.901" x2="389.909" y2="325.739" gradientUnits="userSpaceOnUse">
<stop stop-color="#7733FF"/>
<stop offset="0.901042" stop-color="#FDB658"/>
</linearGradient>
<linearGradient id="paint62_linear_81_5201" x1="382.167" y1="330.643" x2="382.167" y2="333.48" gradientUnits="userSpaceOnUse">
<stop stop-color="#7733FF"/>
<stop offset="0.901042" stop-color="#FDB658"/>
</linearGradient>
<linearGradient id="paint63_linear_81_5201" x1="374.426" y1="338.384" x2="374.426" y2="341.222" gradientUnits="userSpaceOnUse">
<stop stop-color="#7733FF"/>
<stop offset="0.901042" stop-color="#FDB658"/>
</linearGradient>
<linearGradient id="paint64_linear_81_5201" x1="405.676" y1="323.187" x2="405.676" y2="326.024" gradientUnits="userSpaceOnUse">
<stop stop-color="#7733FF"/>
<stop offset="0.901042" stop-color="#FDB658"/>
</linearGradient>
<linearGradient id="paint65_linear_81_5201" x1="397.935" y1="330.928" x2="397.935" y2="333.766" gradientUnits="userSpaceOnUse">
<stop stop-color="#7733FF"/>
<stop offset="0.901042" stop-color="#FDB658"/>
</linearGradient>
<linearGradient id="paint66_linear_81_5201" x1="390.194" y1="338.669" x2="390.194" y2="341.507" gradientUnits="userSpaceOnUse">
<stop stop-color="#7733FF"/>
<stop offset="0.901042" stop-color="#FDB658"/>
</linearGradient>
<linearGradient id="paint67_linear_81_5201" x1="382.452" y1="346.411" x2="382.452" y2="349.248" gradientUnits="userSpaceOnUse">
<stop stop-color="#7733FF"/>
<stop offset="0.901042" stop-color="#FDB658"/>
</linearGradient>
<linearGradient id="paint68_linear_81_5201" x1="413.703" y1="331.213" x2="413.703" y2="334.051" gradientUnits="userSpaceOnUse">
<stop stop-color="#7733FF"/>
<stop offset="0.901042" stop-color="#FDB658"/>
</linearGradient>
<linearGradient id="paint69_linear_81_5201" x1="405.962" y1="338.955" x2="405.962" y2="341.792" gradientUnits="userSpaceOnUse">
<stop stop-color="#7733FF"/>
<stop offset="0.901042" stop-color="#FDB658"/>
</linearGradient>
<linearGradient id="paint70_linear_81_5201" x1="398.22" y1="346.696" x2="398.22" y2="349.534" gradientUnits="userSpaceOnUse">
<stop stop-color="#7733FF"/>
<stop offset="0.901042" stop-color="#FDB658"/>
</linearGradient>
<linearGradient id="paint71_linear_81_5201" x1="390.479" y1="354.437" x2="390.479" y2="357.275" gradientUnits="userSpaceOnUse">
<stop stop-color="#7733FF"/>
<stop offset="0.901042" stop-color="#FDB658"/>
</linearGradient>
<linearGradient id="paint72_linear_81_5201" x1="421.729" y1="339.24" x2="421.729" y2="342.078" gradientUnits="userSpaceOnUse">
<stop stop-color="#7733FF"/>
<stop offset="0.901042" stop-color="#FDB658"/>
</linearGradient>
<linearGradient id="paint73_linear_81_5201" x1="413.988" y1="346.981" x2="413.988" y2="349.819" gradientUnits="userSpaceOnUse">
<stop stop-color="#7733FF"/>
<stop offset="0.901042" stop-color="#FDB658"/>
</linearGradient>
<linearGradient id="paint74_linear_81_5201" x1="406.247" y1="354.722" x2="406.247" y2="357.56" gradientUnits="userSpaceOnUse">
<stop stop-color="#7733FF"/>
<stop offset="0.901042" stop-color="#FDB658"/>
</linearGradient>
<linearGradient id="paint75_linear_81_5201" x1="398.505" y1="362.464" x2="398.505" y2="365.302" gradientUnits="userSpaceOnUse">
<stop stop-color="#7733FF"/>
<stop offset="0.901042" stop-color="#FDB658"/>
</linearGradient>
<linearGradient id="paint76_linear_81_5201" x1="429.756" y1="347.266" x2="429.756" y2="350.104" gradientUnits="userSpaceOnUse">
<stop stop-color="#7733FF"/>
<stop offset="0.901042" stop-color="#FDB658"/>
</linearGradient>
<linearGradient id="paint77_linear_81_5201" x1="422.015" y1="355.008" x2="422.015" y2="357.846" gradientUnits="userSpaceOnUse">
<stop stop-color="#7733FF"/>
<stop offset="0.901042" stop-color="#FDB658"/>
</linearGradient>
<linearGradient id="paint78_linear_81_5201" x1="414.273" y1="362.749" x2="414.273" y2="365.587" gradientUnits="userSpaceOnUse">
<stop stop-color="#7733FF"/>
<stop offset="0.901042" stop-color="#FDB658"/>
</linearGradient>
<linearGradient id="paint79_linear_81_5201" x1="406.532" y1="370.49" x2="406.532" y2="373.328" gradientUnits="userSpaceOnUse">
<stop stop-color="#7733FF"/>
<stop offset="0.901042" stop-color="#FDB658"/>
</linearGradient>
<linearGradient id="paint80_linear_81_5201" x1="437.783" y1="355.293" x2="437.783" y2="358.131" gradientUnits="userSpaceOnUse">
<stop stop-color="#7733FF"/>
<stop offset="0.901042" stop-color="#FDB658"/>
</linearGradient>
<linearGradient id="paint81_linear_81_5201" x1="430.041" y1="363.034" x2="430.041" y2="365.872" gradientUnits="userSpaceOnUse">
<stop stop-color="#7733FF"/>
<stop offset="0.901042" stop-color="#FDB658"/>
</linearGradient>
<linearGradient id="paint82_linear_81_5201" x1="422.3" y1="370.775" x2="422.3" y2="373.613" gradientUnits="userSpaceOnUse">
<stop stop-color="#7733FF"/>
<stop offset="0.901042" stop-color="#FDB658"/>
</linearGradient>
<linearGradient id="paint83_linear_81_5201" x1="414.559" y1="378.517" x2="414.559" y2="381.355" gradientUnits="userSpaceOnUse">
<stop stop-color="#7733FF"/>
<stop offset="0.901042" stop-color="#FDB658"/>
</linearGradient>
<linearGradient id="paint84_linear_81_5201" x1="445.81" y1="363.319" x2="445.81" y2="366.157" gradientUnits="userSpaceOnUse">
<stop stop-color="#7733FF"/>
<stop offset="0.901042" stop-color="#FDB658"/>
</linearGradient>
<linearGradient id="paint85_linear_81_5201" x1="438.068" y1="371.061" x2="438.068" y2="373.899" gradientUnits="userSpaceOnUse">
<stop stop-color="#7733FF"/>
<stop offset="0.901042" stop-color="#FDB658"/>
</linearGradient>
<linearGradient id="paint86_linear_81_5201" x1="430.327" y1="378.802" x2="430.327" y2="381.64" gradientUnits="userSpaceOnUse">
<stop stop-color="#7733FF"/>
<stop offset="0.901042" stop-color="#FDB658"/>
</linearGradient>
<linearGradient id="paint87_linear_81_5201" x1="422.585" y1="386.543" x2="422.585" y2="389.381" gradientUnits="userSpaceOnUse">
<stop stop-color="#7733FF"/>
<stop offset="0.901042" stop-color="#FDB658"/>
</linearGradient>
<linearGradient id="paint88_linear_81_5201" x1="453.836" y1="371.346" x2="453.836" y2="374.184" gradientUnits="userSpaceOnUse">
<stop stop-color="#7733FF"/>
<stop offset="0.901042" stop-color="#FDB658"/>
</linearGradient>
<linearGradient id="paint89_linear_81_5201" x1="446.095" y1="379.087" x2="446.095" y2="381.925" gradientUnits="userSpaceOnUse">
<stop stop-color="#7733FF"/>
<stop offset="0.901042" stop-color="#FDB658"/>
</linearGradient>
<linearGradient id="paint90_linear_81_5201" x1="438.353" y1="386.829" x2="438.353" y2="389.667" gradientUnits="userSpaceOnUse">
<stop stop-color="#7733FF"/>
<stop offset="0.901042" stop-color="#FDB658"/>
</linearGradient>
<linearGradient id="paint91_linear_81_5201" x1="430.612" y1="394.57" x2="430.612" y2="397.408" gradientUnits="userSpaceOnUse">
<stop stop-color="#7733FF"/>
<stop offset="0.901042" stop-color="#FDB658"/>
</linearGradient>
<linearGradient id="paint92_linear_81_5201" x1="461.863" y1="379.373" x2="461.863" y2="382.21" gradientUnits="userSpaceOnUse">
<stop stop-color="#7733FF"/>
<stop offset="0.901042" stop-color="#FDB658"/>
</linearGradient>
<linearGradient id="paint93_linear_81_5201" x1="454.122" y1="387.114" x2="454.122" y2="389.952" gradientUnits="userSpaceOnUse">
<stop stop-color="#7733FF"/>
<stop offset="0.901042" stop-color="#FDB658"/>
</linearGradient>
<linearGradient id="paint94_linear_81_5201" x1="446.38" y1="394.855" x2="446.38" y2="397.693" gradientUnits="userSpaceOnUse">
<stop stop-color="#7733FF"/>
<stop offset="0.901042" stop-color="#FDB658"/>
</linearGradient>
<linearGradient id="paint95_linear_81_5201" x1="438.639" y1="402.597" x2="438.639" y2="405.435" gradientUnits="userSpaceOnUse">
<stop stop-color="#7733FF"/>
<stop offset="0.901042" stop-color="#FDB658"/>
</linearGradient>
<linearGradient id="paint96_linear_81_5201" x1="469.889" y1="387.399" x2="469.889" y2="390.237" gradientUnits="userSpaceOnUse">
<stop stop-color="#7733FF"/>
<stop offset="0.901042" stop-color="#FDB658"/>
</linearGradient>
<linearGradient id="paint97_linear_81_5201" x1="462.148" y1="395.141" x2="462.148" y2="397.978" gradientUnits="userSpaceOnUse">
<stop stop-color="#7733FF"/>
<stop offset="0.901042" stop-color="#FDB658"/>
</linearGradient>
<linearGradient id="paint98_linear_81_5201" x1="454.407" y1="402.882" x2="454.407" y2="405.72" gradientUnits="userSpaceOnUse">
<stop stop-color="#7733FF"/>
<stop offset="0.901042" stop-color="#FDB658"/>
</linearGradient>
<linearGradient id="paint99_linear_81_5201" x1="446.665" y1="410.624" x2="446.665" y2="413.461" gradientUnits="userSpaceOnUse">
<stop stop-color="#7733FF"/>
<stop offset="0.901042" stop-color="#FDB658"/>
</linearGradient>
</defs>
</svg>
