<svg width="234" height="58" viewBox="0 0 234 58" fill="none" xmlns="http://www.w3.org/2000/svg">
<path d="M7.06392 18.2311H0.341252V13.1465H19.8609V18.2311H13.1041V37H7.06392V18.2311ZM19.1648 20.6199H24.9661V22.6674C25.6031 21.9394 26.5017 21.382 27.6619 20.9953C28.8222 20.5858 30.1076 20.381 31.5181 20.381V24.9879C30.0166 24.9879 28.6857 25.2041 27.5254 25.6363C26.3879 26.0686 25.6031 26.7169 25.1708 27.5814V37H19.1648V20.6199ZM37.8718 37.5119C35.8243 37.5119 34.1635 37.0228 32.8895 36.0445C31.6382 35.0435 31.0126 33.6557 31.0126 31.8812C31.0126 30.0385 31.6155 28.6279 32.8213 27.6497C34.0498 26.6487 35.8015 26.1482 38.0765 26.1482C38.9638 26.1482 39.851 26.2506 40.7383 26.4553C41.6256 26.6373 42.3877 26.8876 43.0247 27.2061V26.8648C43.0247 25.1131 41.5914 24.2372 38.7249 24.2372C36.7229 24.2372 34.8915 24.6239 33.2308 25.3974V21.2683C33.9588 20.927 34.9143 20.654 36.0973 20.4493C37.2803 20.2218 38.5088 20.108 39.7828 20.108C42.8313 20.108 45.1291 20.7223 46.6761 21.9508C48.2459 23.1565 49.0307 24.8514 49.0307 27.0354V37H43.4001V35.6009C42.7858 36.1924 42.0123 36.6587 41.0796 37C40.1468 37.3413 39.0775 37.5119 37.8718 37.5119ZM39.6463 33.8264C40.3516 33.8264 41.0113 33.6899 41.6256 33.4169C42.2398 33.1211 42.7062 32.7457 43.0247 32.2907V30.8575C42.0464 30.1977 40.9317 29.8678 39.6804 29.8678C38.8842 29.8678 38.2699 30.0385 37.8377 30.3797C37.4054 30.721 37.1893 31.2215 37.1893 31.8812C37.1893 32.4955 37.394 32.9732 37.8035 33.3145C38.2358 33.6557 38.85 33.8264 39.6463 33.8264ZM51.9236 20.6199H57.7249V22.4285C58.4302 21.655 59.2833 21.0749 60.2843 20.6881C61.2853 20.3014 62.3318 20.108 63.4238 20.108C65.7216 20.108 67.4165 20.7109 68.5085 21.9167C69.6232 23.0997 70.1806 24.7149 70.1806 26.7624V37H64.1746V27.5473C64.1746 25.7046 63.3328 24.7832 61.6493 24.7832C60.8758 24.7832 60.1706 24.9652 59.5336 25.3292C58.8966 25.6704 58.3619 26.2051 57.9297 26.9331V37H51.9236V20.6199ZM80.1492 37.5119C78.8297 37.5119 77.4533 37.3754 76.02 37.1024C74.5868 36.8521 73.4493 36.4881 72.6075 36.0104V31.6082C73.5403 32.1542 74.655 32.6092 75.9518 32.9732C77.2713 33.3145 78.4771 33.4851 79.5691 33.4851C80.3653 33.4851 80.9454 33.4282 81.3094 33.3145C81.6734 33.2007 81.8555 32.9732 81.8555 32.632C81.8555 32.359 81.7303 32.1428 81.4801 31.9836C81.2526 31.8016 80.8203 31.6196 80.1833 31.4376C79.5691 31.2328 78.8524 31.0167 78.0334 30.7892C76.6457 30.3797 75.5537 29.9588 74.7574 29.5266C73.9612 29.0943 73.3696 28.5483 72.9829 27.8886C72.5961 27.2288 72.4028 26.3984 72.4028 25.3974C72.4028 23.6229 73.0966 22.3034 74.4844 21.4389C75.8949 20.5516 77.8173 20.108 80.2516 20.108C81.4346 20.108 82.6745 20.2331 83.9712 20.4834C85.2907 20.7336 86.2804 21.0635 86.9401 21.473V25.8069C86.2576 25.3519 85.3476 24.9766 84.2101 24.6808C83.0953 24.385 82.0488 24.2372 81.0706 24.2372C80.2971 24.2372 79.6942 24.3168 79.2619 24.476C78.8297 24.6125 78.6136 24.8628 78.6136 25.2268C78.6136 25.5681 78.8297 25.8297 79.2619 26.0117C79.6942 26.1937 80.4677 26.4212 81.5824 26.6942C82.3105 26.8762 82.6176 26.9558 82.5038 26.9331C83.9598 27.3198 85.086 27.7521 85.8822 28.2298C86.6785 28.7076 87.2359 29.2763 87.5544 29.9361C87.8956 30.5731 88.0662 31.3921 88.0662 32.3931C88.0662 33.9629 87.3837 35.2141 86.0187 36.1469C84.6765 37.0569 82.72 37.5119 80.1492 37.5119ZM91.3692 24.7832H89.0828V20.6199H91.3692V18.5724C91.3692 16.3656 92.0631 14.6594 93.4508 13.4536C94.8613 12.2251 96.6813 11.6108 98.9109 11.6108C100.162 11.6108 101.254 11.8156 102.187 12.2251V17.0026C101.55 16.6841 100.833 16.5249 100.037 16.5249C99.127 16.5249 98.4559 16.7296 98.0236 17.1391C97.5913 17.5486 97.3752 18.197 97.3752 19.0843V20.6199H101.163V24.7832H97.3752V37H91.3692V24.7832ZM112.835 37.5119C109.627 37.5119 107.102 36.7611 105.259 35.2596C103.439 33.7581 102.529 31.631 102.529 28.8782C102.529 26.1709 103.337 24.0324 104.952 22.4627C106.59 20.8929 108.944 20.108 112.016 20.108C113.972 20.108 115.644 20.4834 117.032 21.2342C118.443 21.9622 119.501 22.9745 120.206 24.2713C120.934 25.5453 121.298 26.9899 121.298 28.6052V30.8233H108.228C108.455 31.7333 109.024 32.3931 109.934 32.8026C110.844 33.2121 112.084 33.4169 113.654 33.4169C114.723 33.4169 115.815 33.3259 116.93 33.1439C118.067 32.9618 119.046 32.7116 119.865 32.3931V36.3516C119.023 36.6929 117.965 36.9659 116.691 37.1706C115.44 37.3981 114.154 37.5119 112.835 37.5119ZM115.633 27.0696C115.542 26.1823 115.178 25.4884 114.541 24.9879C113.904 24.4874 113.028 24.2372 111.913 24.2372C110.821 24.2372 109.957 24.4988 109.32 25.0221C108.683 25.5226 108.319 26.2051 108.228 27.0696H115.633ZM123.673 20.6199H129.475V22.6674C130.112 21.9394 131.01 21.382 132.17 20.9953C133.331 20.5858 134.616 20.381 136.027 20.381V24.9879C134.525 24.9879 133.194 25.2041 132.034 25.6363C130.896 26.0686 130.112 26.7169 129.679 27.5814V37H123.673V20.6199Z" fill="#7733FF"/>
<path d="M156.398 37.5119C155.078 37.5119 153.702 37.3754 152.269 37.1024C150.835 36.8521 149.698 36.4881 148.856 36.0104V31.6082C149.789 32.1542 150.904 32.6092 152.2 32.9732C153.52 33.3145 154.726 33.4851 155.818 33.4851C156.614 33.4851 157.194 33.4282 157.558 33.3145C157.922 33.2007 158.104 32.9732 158.104 32.632C158.104 32.359 157.979 32.1428 157.729 31.9836C157.501 31.8016 157.069 31.6196 156.432 31.4376C155.818 31.2328 155.101 31.0167 154.282 30.7892C152.894 30.3797 151.802 29.9588 151.006 29.5266C150.21 29.0943 149.618 28.5483 149.231 27.8886C148.845 27.2288 148.651 26.3984 148.651 25.3974C148.651 23.6229 149.345 22.3034 150.733 21.4389C152.143 20.5516 154.066 20.108 156.5 20.108C157.683 20.108 158.923 20.2331 160.22 20.4834C161.539 20.7336 162.529 21.0635 163.189 21.473V25.8069C162.506 25.3519 161.596 24.9766 160.459 24.6808C159.344 24.385 158.297 24.2372 157.319 24.2372C156.546 24.2372 155.943 24.3168 155.51 24.476C155.078 24.6125 154.862 24.8628 154.862 25.2268C154.862 25.5681 155.078 25.8297 155.51 26.0117C155.943 26.1937 156.716 26.4212 157.831 26.6942C158.559 26.8762 158.866 26.9558 158.752 26.9331C160.208 27.3198 161.334 27.7521 162.131 28.2298C162.927 28.7076 163.484 29.2763 163.803 29.9361C164.144 30.5731 164.315 31.3921 164.315 32.3931C164.315 33.9629 163.632 35.2141 162.267 36.1469C160.925 37.0569 158.968 37.5119 156.398 37.5119ZM164.481 20.6199H170.487L173.115 30.0043L175.742 20.6199H180.588L183.216 30.0043L185.843 20.6199H191.849L186.355 37H180.963L178.165 27.7862L175.367 37H169.975L164.481 20.6199ZM198.534 37.5119C196.486 37.5119 194.825 37.0228 193.551 36.0445C192.3 35.0435 191.674 33.6557 191.674 31.8812C191.674 30.0385 192.277 28.6279 193.483 27.6497C194.712 26.6487 196.463 26.1482 198.738 26.1482C199.626 26.1482 200.513 26.2506 201.4 26.4553C202.287 26.6373 203.049 26.8876 203.686 27.2061V26.8648C203.686 25.1131 202.253 24.2372 199.387 24.2372C197.385 24.2372 195.553 24.6239 193.893 25.3974V21.2683C194.621 20.927 195.576 20.654 196.759 20.4493C197.942 20.2218 199.171 20.108 200.445 20.108C203.493 20.108 205.791 20.7223 207.338 21.9508C208.908 23.1565 209.692 24.8514 209.692 27.0354V37H204.062V35.6009C203.448 36.1924 202.674 36.6587 201.741 37C200.809 37.3413 199.739 37.5119 198.534 37.5119ZM200.308 33.8264C201.013 33.8264 201.673 33.6899 202.287 33.4169C202.902 33.1211 203.368 32.7457 203.686 32.2907V30.8575C202.708 30.1977 201.593 29.8678 200.342 29.8678C199.546 29.8678 198.932 30.0385 198.499 30.3797C198.067 30.721 197.851 31.2215 197.851 31.8812C197.851 32.4955 198.056 32.9732 198.465 33.3145C198.898 33.6557 199.512 33.8264 200.308 33.8264ZM212.585 20.6199H218.387V22.2579C219.911 20.8246 221.845 20.108 224.188 20.108C225.894 20.108 227.407 20.472 228.727 21.2C230.046 21.9053 231.07 22.9177 231.798 24.2372C232.526 25.5339 232.89 27.0468 232.89 28.7758C232.89 30.4821 232.526 32.0063 231.798 33.3486C231.07 34.6681 230.046 35.6919 228.727 36.4199C227.43 37.1479 225.917 37.5119 224.188 37.5119C223.096 37.5119 222.049 37.3413 221.048 37C220.07 36.6815 219.251 36.2379 218.591 35.6691V44.4734H212.585V20.6199ZM222.618 32.8367C223.847 32.8367 224.836 32.4727 225.587 31.7447C226.338 31.0167 226.713 30.0271 226.713 28.7758C226.713 27.5246 226.338 26.5463 225.587 25.8411C224.836 25.1131 223.847 24.749 222.618 24.749C221.708 24.749 220.889 24.9879 220.161 25.4657C219.433 25.9207 218.91 26.5463 218.591 27.3426V30.2432C218.91 31.0395 219.433 31.6765 220.161 32.1542C220.889 32.6092 221.708 32.8367 222.618 32.8367Z" fill="#FDB658"/>
<path d="M145.28 52.4977V52.0689H147.251C147.537 52.0689 147.789 52.0142 148.008 51.9047C148.227 51.7891 148.4 51.628 148.528 51.4212C148.656 51.2083 148.72 50.959 148.72 50.6731C148.72 50.3873 148.656 50.141 148.528 49.9342C148.4 49.7213 148.227 49.5601 148.008 49.4507C147.789 49.3351 147.537 49.2773 147.251 49.2773H145.28V48.8486H147.306C147.671 48.8486 147.993 48.9246 148.273 49.0766C148.559 49.2226 148.784 49.4324 148.948 49.7061C149.118 49.9798 149.203 50.3021 149.203 50.6731C149.203 51.0441 149.118 51.3665 148.948 51.6401C148.784 51.9077 148.559 52.1176 148.273 52.2696C147.993 52.4217 147.671 52.4977 147.306 52.4977H145.28ZM144.989 55.0703V48.8486H145.472V55.0703H144.989ZM152.006 55.1615C151.592 55.1615 151.218 55.0642 150.883 54.8696C150.555 54.6689 150.294 54.4013 150.099 54.0668C149.904 53.7262 149.807 53.3491 149.807 52.9356C149.807 52.522 149.904 52.151 150.099 51.8226C150.294 51.4881 150.555 51.2235 150.883 51.0289C151.218 50.8343 151.592 50.737 152.006 50.737C152.413 50.737 152.781 50.8343 153.109 51.0289C153.444 51.2235 153.708 51.4881 153.903 51.8226C154.098 52.151 154.195 52.522 154.195 52.9356C154.195 53.3552 154.098 53.7323 153.903 54.0668C153.708 54.4013 153.444 54.6689 153.109 54.8696C152.781 55.0642 152.413 55.1615 152.006 55.1615ZM152.006 54.7236C152.328 54.7236 152.617 54.6446 152.872 54.4865C153.134 54.3283 153.337 54.1155 153.483 53.8479C153.636 53.5742 153.712 53.267 153.712 52.9265C153.712 52.5919 153.636 52.2939 153.483 52.0324C153.337 51.7709 153.134 51.5641 152.872 51.4121C152.617 51.2539 152.328 51.1749 152.006 51.1749C151.677 51.1749 151.382 51.2539 151.121 51.4121C150.865 51.5641 150.661 51.7709 150.509 52.0324C150.357 52.2939 150.281 52.595 150.281 52.9356C150.281 53.2762 150.357 53.5803 150.509 53.8479C150.661 54.1155 150.865 54.3283 151.121 54.4865C151.382 54.6446 151.677 54.7236 152.006 54.7236ZM156.3 55.0703L154.694 50.8282H155.178L156.537 54.5777H156.336L157.696 50.8282H157.969L159.329 54.5777H159.128L160.487 50.8282H160.971L159.374 55.0703H159.091L157.714 51.3117H157.96L156.573 55.0703H156.3ZM163.695 55.1615C163.275 55.1615 162.895 55.0642 162.554 54.8696C162.22 54.675 161.955 54.4104 161.761 54.0759C161.566 53.7414 161.469 53.3643 161.469 52.9447C161.469 52.525 161.563 52.151 161.752 51.8226C161.94 51.4881 162.199 51.2235 162.527 51.0289C162.862 50.8343 163.233 50.737 163.64 50.737C164.029 50.737 164.37 50.8252 164.662 51.0015C164.96 51.1718 165.191 51.409 165.355 51.7131C165.525 52.0172 165.611 52.3669 165.611 52.7622C165.611 52.7987 165.608 52.8474 165.601 52.9082C165.595 52.9629 165.586 53.0329 165.574 53.118H161.797V52.7166H165.31L165.154 52.8443C165.167 52.5098 165.112 52.2179 164.99 51.9686C164.869 51.7131 164.692 51.5155 164.461 51.3756C164.23 51.2357 163.953 51.1658 163.631 51.1658C163.296 51.1658 163.001 51.2418 162.746 51.3938C162.491 51.5398 162.29 51.7435 162.144 52.005C162.004 52.2666 161.934 52.5707 161.934 52.9173C161.934 53.2822 162.007 53.6015 162.153 53.8752C162.305 54.1428 162.515 54.3527 162.783 54.5047C163.05 54.6507 163.363 54.7236 163.722 54.7236C163.996 54.7236 164.248 54.675 164.479 54.5777C164.717 54.4743 164.914 54.3222 165.072 54.1215L165.383 54.4226C165.188 54.6537 164.942 54.8362 164.644 54.97C164.352 55.0977 164.035 55.1615 163.695 55.1615ZM166.669 55.0703V50.8282H167.134V55.0703H166.669ZM167.134 52.5342L166.906 52.4521C166.906 51.9108 167.043 51.4911 167.317 51.1931C167.591 50.889 167.949 50.737 168.393 50.737C168.6 50.737 168.792 50.7735 168.968 50.8465C169.151 50.9194 169.318 51.038 169.47 51.2022L169.16 51.5307C169.044 51.4029 168.919 51.3117 168.786 51.257C168.652 51.2022 168.494 51.1749 168.311 51.1749C167.965 51.1749 167.682 51.2935 167.463 51.5307C167.244 51.7618 167.134 52.0963 167.134 52.5342ZM172.025 55.1615C171.605 55.1615 171.225 55.0642 170.884 54.8696C170.55 54.675 170.285 54.4104 170.091 54.0759C169.896 53.7414 169.799 53.3643 169.799 52.9447C169.799 52.525 169.893 52.151 170.082 51.8226C170.27 51.4881 170.529 51.2235 170.857 51.0289C171.191 50.8343 171.562 50.737 171.97 50.737C172.359 50.737 172.7 50.8252 172.992 51.0015C173.29 51.1718 173.521 51.409 173.685 51.7131C173.855 52.0172 173.94 52.3669 173.94 52.7622C173.94 52.7987 173.937 52.8474 173.931 52.9082C173.925 52.9629 173.916 53.0329 173.904 53.118H170.127V52.7166H173.639L173.484 52.8443C173.497 52.5098 173.442 52.2179 173.32 51.9686C173.199 51.7131 173.022 51.5155 172.791 51.3756C172.56 51.2357 172.283 51.1658 171.961 51.1658C171.626 51.1658 171.331 51.2418 171.076 51.3938C170.82 51.5398 170.62 51.7435 170.474 52.005C170.334 52.2666 170.264 52.5707 170.264 52.9173C170.264 53.2822 170.337 53.6015 170.483 53.8752C170.635 54.1428 170.845 54.3527 171.112 54.5047C171.38 54.6507 171.693 54.7236 172.052 54.7236C172.326 54.7236 172.578 54.675 172.809 54.5777C173.046 54.4743 173.244 54.3222 173.402 54.1215L173.712 54.4226C173.518 54.6537 173.271 54.8362 172.973 54.97C172.682 55.0977 172.365 55.1615 172.025 55.1615ZM176.833 55.1615C176.431 55.1615 176.073 55.0642 175.756 54.8696C175.44 54.675 175.191 54.4135 175.008 54.085C174.826 53.7505 174.735 53.3735 174.735 52.9538C174.735 52.5342 174.826 52.1571 175.008 51.8226C175.191 51.4881 175.44 51.2235 175.756 51.0289C176.073 50.8343 176.431 50.737 176.833 50.737C177.143 50.737 177.429 50.7978 177.69 50.9194C177.958 51.0411 178.183 51.2174 178.365 51.4486C178.548 51.6736 178.663 51.9412 178.712 52.2514V53.638C178.657 53.9421 178.542 54.2097 178.365 54.4408C178.189 54.6659 177.967 54.8422 177.699 54.97C177.438 55.0977 177.149 55.1615 176.833 55.1615ZM176.915 54.7236C177.237 54.7236 177.52 54.6476 177.763 54.4956C178.007 54.3435 178.195 54.1367 178.329 53.8752C178.469 53.6076 178.539 53.3005 178.539 52.9538C178.539 52.6011 178.469 52.2939 178.329 52.0324C178.189 51.7648 177.994 51.555 177.745 51.4029C177.502 51.2509 177.216 51.1749 176.888 51.1749C176.565 51.1749 176.276 51.2509 176.021 51.4029C175.771 51.555 175.574 51.7648 175.428 52.0324C175.282 52.2939 175.209 52.598 175.209 52.9447C175.209 53.2914 175.282 53.5985 175.428 53.8661C175.574 54.1337 175.775 54.3435 176.03 54.4956C176.285 54.6476 176.58 54.7236 176.915 54.7236ZM178.986 55.0703H178.521V53.93L178.63 52.89L178.521 51.8591V48.6661H178.986V55.0703ZM184.538 55.1615C184.221 55.1615 183.929 55.0977 183.662 54.97C183.4 54.8422 183.181 54.6659 183.005 54.4408C182.829 54.2097 182.713 53.9421 182.658 53.638V52.2514C182.713 51.9412 182.829 51.6736 183.005 51.4486C183.187 51.2174 183.409 51.0411 183.671 50.9194C183.939 50.7978 184.227 50.737 184.538 50.737C184.939 50.737 185.298 50.8343 185.614 51.0289C185.93 51.2235 186.18 51.4881 186.362 51.8226C186.545 52.1571 186.636 52.5342 186.636 52.9538C186.636 53.3735 186.545 53.7505 186.362 54.085C186.18 54.4135 185.93 54.675 185.614 54.8696C185.298 55.0642 184.939 55.1615 184.538 55.1615ZM184.456 54.7236C184.79 54.7236 185.085 54.6476 185.34 54.4956C185.596 54.3435 185.797 54.1337 185.943 53.8661C186.089 53.5985 186.161 53.2914 186.161 52.9447C186.161 52.598 186.089 52.2909 185.943 52.0233C185.797 51.7557 185.596 51.5489 185.34 51.4029C185.091 51.2509 184.805 51.1749 184.483 51.1749C184.154 51.1749 183.866 51.2509 183.616 51.4029C183.373 51.5489 183.181 51.7557 183.041 52.0233C182.902 52.2909 182.832 52.6011 182.832 52.9538C182.832 53.3005 182.899 53.6076 183.032 53.8752C183.172 54.1367 183.364 54.3435 183.607 54.4956C183.856 54.6476 184.139 54.7236 184.456 54.7236ZM182.385 55.0703V48.6661H182.85V51.8591L182.74 52.89L182.85 53.93V55.0703H182.385ZM188.985 55.0794L187.096 50.8282H187.607L189.24 54.5959H189.003L190.709 50.8282H191.22L189.222 55.0794H188.985ZM187.881 56.8675L188.975 54.6233L189.222 55.0794L188.382 56.8675H187.881ZM194.837 55.0703V50.0254C194.837 49.7396 194.898 49.4902 195.019 49.2773C195.141 49.0584 195.308 48.8881 195.521 48.7665C195.74 48.6448 195.99 48.584 196.269 48.584C196.482 48.584 196.674 48.6205 196.844 48.6935C197.014 48.7665 197.163 48.8729 197.291 49.0128L196.99 49.3229C196.887 49.2135 196.774 49.1344 196.652 49.0858C196.531 49.031 196.4 49.0036 196.26 49.0036C195.956 49.0036 195.719 49.0979 195.549 49.2865C195.378 49.475 195.293 49.7304 195.293 50.0528V55.0703H194.837ZM193.733 51.2387V50.8282H196.789V51.2387H193.733ZM199.375 55.1615C198.956 55.1615 198.576 55.0642 198.235 54.8696C197.9 54.675 197.636 54.4104 197.441 54.0759C197.247 53.7414 197.149 53.3643 197.149 52.9447C197.149 52.525 197.244 52.151 197.432 51.8226C197.621 51.4881 197.879 51.2235 198.208 51.0289C198.542 50.8343 198.913 50.737 199.321 50.737C199.71 50.737 200.05 50.8252 200.342 51.0015C200.64 51.1718 200.871 51.409 201.036 51.7131C201.206 52.0172 201.291 52.3669 201.291 52.7622C201.291 52.7987 201.288 52.8474 201.282 52.9082C201.276 52.9629 201.267 53.0329 201.255 53.118H197.478V52.7166H200.99L200.835 52.8443C200.847 52.5098 200.792 52.2179 200.671 51.9686C200.549 51.7131 200.373 51.5155 200.142 51.3756C199.911 51.2357 199.634 51.1658 199.311 51.1658C198.977 51.1658 198.682 51.2418 198.427 51.3938C198.171 51.5398 197.97 51.7435 197.824 52.005C197.685 52.2666 197.615 52.5707 197.615 52.9173C197.615 53.2822 197.688 53.6015 197.834 53.8752C197.986 54.1428 198.195 54.3527 198.463 54.5047C198.731 54.6507 199.044 54.7236 199.403 54.7236C199.676 54.7236 199.929 54.675 200.16 54.5777C200.397 54.4743 200.595 54.3222 200.753 54.1215L201.063 54.4226C200.868 54.6537 200.622 54.8362 200.324 54.97C200.032 55.0977 199.716 55.1615 199.375 55.1615ZM202.837 55.0703V49.031H203.303V55.0703H202.837ZM201.743 51.2387V50.8282H204.397V51.2387H201.743ZM207.099 55.1615C206.685 55.1615 206.311 55.0642 205.977 54.8696C205.648 54.6689 205.387 54.4013 205.192 54.0668C204.997 53.7262 204.9 53.3491 204.9 52.9356C204.9 52.522 204.997 52.151 205.192 51.8226C205.387 51.4881 205.648 51.2235 205.977 51.0289C206.311 50.8343 206.685 50.737 207.099 50.737C207.409 50.737 207.701 50.7948 207.975 50.9103C208.248 51.0259 208.482 51.1901 208.677 51.4029L208.367 51.7131C208.209 51.5428 208.02 51.4121 207.801 51.3208C207.588 51.2235 207.354 51.1749 207.099 51.1749C206.77 51.1749 206.475 51.2539 206.214 51.4121C205.958 51.5641 205.755 51.7709 205.603 52.0324C205.451 52.2939 205.375 52.595 205.375 52.9356C205.375 53.2762 205.451 53.5803 205.603 53.8479C205.755 54.1155 205.958 54.3283 206.214 54.4865C206.475 54.6446 206.77 54.7236 207.099 54.7236C207.354 54.7236 207.591 54.678 207.81 54.5868C208.035 54.4895 208.227 54.3527 208.385 54.1763L208.695 54.4865C208.495 54.6993 208.254 54.8666 207.975 54.9882C207.701 55.1038 207.409 55.1615 207.099 55.1615ZM211.518 55.1615C211.104 55.1615 210.73 55.0642 210.396 54.8696C210.067 54.6689 209.806 54.4013 209.611 54.0668C209.416 53.7262 209.319 53.3491 209.319 52.9356C209.319 52.522 209.416 52.151 209.611 51.8226C209.806 51.4881 210.067 51.2235 210.396 51.0289C210.73 50.8343 211.104 50.737 211.518 50.737C211.828 50.737 212.12 50.7948 212.393 50.9103C212.667 51.0259 212.901 51.1901 213.096 51.4029L212.786 51.7131C212.628 51.5428 212.439 51.4121 212.22 51.3208C212.007 51.2235 211.773 51.1749 211.518 51.1749C211.189 51.1749 210.894 51.2539 210.633 51.4121C210.377 51.5641 210.174 51.7709 210.021 52.0324C209.869 52.2939 209.793 52.595 209.793 52.9356C209.793 53.2762 209.869 53.5803 210.021 53.8479C210.174 54.1155 210.377 54.3283 210.633 54.4865C210.894 54.6446 211.189 54.7236 211.518 54.7236C211.773 54.7236 212.01 54.678 212.229 54.5868C212.454 54.4895 212.646 54.3527 212.804 54.1763L213.114 54.4865C212.913 54.6993 212.673 54.8666 212.393 54.9882C212.12 55.1038 211.828 55.1615 211.518 55.1615ZM217.285 55.0703V52.5524C217.285 52.1389 217.163 51.8043 216.92 51.5489C216.677 51.2935 216.354 51.1658 215.953 51.1658C215.679 51.1658 215.436 51.2266 215.223 51.3482C215.016 51.4638 214.852 51.6249 214.73 51.8317C214.615 52.0385 214.557 52.2787 214.557 52.5524L214.32 52.4156C214.32 52.0932 214.396 51.8074 214.548 51.558C214.7 51.3026 214.907 51.1019 215.168 50.9559C215.43 50.81 215.728 50.737 216.062 50.737C216.397 50.737 216.689 50.813 216.938 50.965C217.194 51.111 217.391 51.3178 217.531 51.5854C217.671 51.853 217.741 52.1571 217.741 52.4977V55.0703H217.285ZM214.092 55.0703V48.6661H214.557V55.0703H214.092Z" fill="#162B4A"/>
<ellipse cx="139.579" cy="33.298" rx="3.19298" ry="3.64912" fill="#FDB658"/>
</svg>
