<svg width="969" height="687" viewBox="0 0 969 687" fill="none" xmlns="http://www.w3.org/2000/svg">
<path d="M125.822 -126.382C170.363 -93.7317 207.326 -59.0553 234.408 -24.5147C274.168 26.7434 263.72 43.0207 306.744 81.1285C348.565 118.154 413.525 151.577 470.371 169.159C547.94 193.143 560.963 172.334 671.164 178.302C735.964 181.829 857.497 188.399 979.265 245.794C1040.78 274.792 1097.27 314.365 1149.79 351.142C1214.15 396.219 1221.08 408.018 1257.71 427.985C1301.22 451.708 1372.46 479.242 1488.85 486.766" stroke="#1D1F43" stroke-opacity="0.12" stroke-width="0.2" stroke-miterlimit="10"/>
<path d="M122.661 -122.886C162.906 -93.7174 197.196 -62.8406 223.818 -31.7978C226.355 -28.8078 228.872 -25.774 231.395 -22.6859C272.079 27.9062 262.726 43.7217 305.295 81.1503C323.839 97.4922 346.108 113.069 370.807 126.974C388.502 136.926 407.152 145.976 426.278 153.891C440.583 159.807 455.092 164.955 469.532 169.238C485.582 174.105 501.367 177.516 516.25 179.333C543.65 182.647 564.872 180.269 596.319 179.38C620.004 178.718 645.078 179.595 671.26 182.002C685.15 183.222 701.44 184.494 719.99 186.605C769.636 192.218 832.037 201.994 901.497 226.19C925.087 234.351 948.536 243.842 971.397 254.483C974.901 256.109 978.361 257.769 981.763 259.43C1015.46 275.858 1046.46 294.054 1077.6 313.86C1100.91 328.627 1122.45 343.768 1143.93 358.529C1152.9 364.748 1160.91 370.338 1168.12 375.45C1211.65 406.356 1221.75 417.174 1253.44 433.761C1277.53 446.362 1309.84 460.023 1353.44 471.37C1389.19 480.684 1432.93 488.481 1486.12 493.053" stroke="#1D1F43" stroke-opacity="0.12" stroke-width="0.2" stroke-miterlimit="10"/>
<path d="M119.586 -119.326C159.532 -90.7295 193.771 -60.411 220.635 -29.8476C223.204 -26.9088 225.756 -23.9336 228.293 -20.9218C270.018 29.0678 261.817 44.4209 303.869 81.182C322.425 97.6373 344.73 113.343 369.5 127.395C387.298 137.408 406.086 146.483 425.349 154.373C439.707 160.224 454.262 165.237 468.696 169.305C484.762 173.928 500.519 177.189 515.426 178.975C543.891 182.492 565.896 180.832 596.701 180.627C620.244 180.542 645.274 182.198 671.411 185.571C685.102 187.25 700.867 188.867 718.966 191.551C767.196 198.697 825.135 209.384 893.454 234.347C917.082 242.914 940.536 252.548 963.517 263.127C967.069 264.775 970.563 266.424 973.995 268.084C1008.33 284.645 1038.75 301.913 1070.82 321.433C1094.96 336.145 1116.32 351.104 1138.02 365.883C1147.04 372.014 1155.18 377.57 1162.61 382.69C1206.57 413.002 1217.29 423.572 1249.14 439.492C1273.4 451.624 1305.64 464.763 1349.5 476.128C1385.33 485.397 1429.5 493.591 1483.37 499.362" stroke="#1D1F43" stroke-opacity="0.12" stroke-width="0.2" stroke-miterlimit="10"/>
<path d="M116.296 -115.94C156.037 -87.8582 190.298 -58.0344 217.446 -27.889C220.026 -24.9976 222.62 -22.0737 225.175 -19.1275C267.994 30.2699 260.815 45.1296 302.393 81.1899C322.084 98.2614 342.307 113.181 368.113 127.794C386.03 137.876 404.972 146.984 424.389 154.853C438.807 160.638 453.411 165.514 467.835 169.358C483.923 173.743 499.671 176.862 514.624 178.625C544.107 182.324 566.862 181.394 597.043 181.893C620.465 182.388 645.462 184.849 671.524 189.224C685.135 191.416 700.279 193.336 717.903 196.581C764.983 205.245 818.208 216.827 885.395 242.535C909.06 251.512 932.544 261.303 955.665 271.834C959.246 273.482 962.866 275.172 966.205 276.779C999.93 292.941 1032.66 310.438 1063.94 329.027C1088.92 343.673 1110.11 358.503 1132.15 373.289C1141.19 379.354 1149.44 384.854 1157.13 389.992C1201.5 419.689 1212.88 429.999 1244.83 445.276C1269.29 456.969 1301.55 469.586 1345.59 480.938C1381.49 490.238 1426.07 498.687 1480.66 505.602" stroke="#1D1F43" stroke-opacity="0.12" stroke-width="0.2" stroke-miterlimit="10"/>
<path d="M113.114 -112.467C152.587 -84.9216 186.829 -55.6291 214.263 -25.9391C216.861 -23.0915 219.508 -20.2228 222.063 -17.3419C265.835 31.4543 259.891 45.796 300.937 81.2217C321.104 98.5912 340.513 113.327 366.776 128.216C384.793 138.364 403.877 147.495 423.434 155.324C437.946 161.073 452.633 165.83 467.071 169.457C483.141 173.605 498.855 176.598 513.844 178.364C544.348 182.234 567.96 182.119 597.463 183.183C618.271 183.945 641.95 186.997 671.714 192.901C685.233 195.573 699.88 197.837 716.952 201.623C763.144 211.867 811.383 224.303 877.317 250.703C900.991 260.067 924.5 270.009 947.75 280.49C951.385 282.148 954.961 283.806 958.383 285.423C992.279 301.361 1025.35 318.503 1057.24 336.665C1083.11 351.265 1103.97 365.915 1126.32 380.653C1135.27 386.6 1143.79 392.15 1151.72 397.274C1196.45 426.4 1208.52 436.395 1240.63 451.039C1265.27 462.283 1297.51 474.378 1341.75 485.738C1377.68 494.962 1422.67 503.786 1477.94 511.855" stroke="#1D1F43" stroke-opacity="0.12" stroke-width="0.2" stroke-miterlimit="10"/>
<path d="M109.957 -108.982C149.148 -81.9728 183.362 -53.2159 211.08 -23.9891C213.702 -21.1962 216.377 -18.3932 218.961 -15.578C263.802 32.5501 258.919 46.5068 299.443 81.2106C320.081 98.8891 338.676 113.44 365.372 128.595C383.506 138.815 402.749 147.976 422.461 155.773C437.004 161.456 451.708 166.069 466.089 169.46C482.157 173.368 497.858 176.221 512.893 177.965C544.433 182.037 568.913 182.78 597.689 184.388C618.936 185.602 642.733 189.642 671.715 196.482C685.189 199.655 699.331 202.286 715.802 206.527C761.473 218.432 804.432 231.671 869.244 258.795C891.769 268.219 916.704 278.599 939.86 289.091C943.548 290.759 947.08 292.385 950.584 294.012C984.599 309.703 1017.95 326.457 1050.36 344.141C1077.07 358.676 1097.77 373.219 1120.43 387.985C1129.53 393.919 1138.05 399.328 1146.22 404.491C1191.29 433.101 1204.01 443.055 1236.25 456.793C1261.17 467.413 1293.33 479.161 1337.75 490.485C1373.75 499.621 1419.17 508.853 1475.12 518.089" stroke="#1D1F43" stroke-opacity="0.12" stroke-width="0.2" stroke-miterlimit="10"/>
<path d="M106.781 -105.52C145.695 -79.0339 179.886 -50.8062 207.898 -22.0394C210.544 -19.3013 213.268 -16.5425 215.855 -13.8036C261.756 33.7436 257.988 47.1949 297.969 81.2206C319.016 99.1546 336.84 113.553 364.012 129.006C382.234 139.269 401.592 148.441 421.411 156.202C436.034 161.83 450.796 166.312 465.157 169.484C481.196 173.127 496.873 175.841 511.963 177.586C544.525 181.829 569.988 183.429 597.897 185.572C619.626 187.203 643.537 192.308 671.694 200.052C685.171 203.748 699.432 208.695 714.586 211.518C759.662 230.104 798.278 237.472 861.004 266.944C883.153 277.363 908.714 287.364 931.816 297.716C935.552 299.405 939.168 301.041 942.628 302.635C979.688 319.691 1007.91 333.061 1043.44 351.651C1070.98 366.108 1091.45 380.524 1114.43 395.275C1123.44 401.09 1132.19 406.507 1140.61 411.689C1186 439.641 1199.57 449.028 1231.9 462.427C1256.96 472.784 1289.19 483.845 1333.78 495.178C1369.83 504.335 1415.66 513.833 1472.33 524.256" stroke="#1D1F43" stroke-opacity="0.12" stroke-width="0.2" stroke-miterlimit="10"/>
<path d="M103.599 -102.046C142.231 -76.0865 176.401 -48.3963 204.72 -20.1005C207.409 -17.3956 210.161 -14.7025 212.753 -12.0399C259.845 34.9573 257.156 47.9144 296.591 81.273C318.211 99.5472 335.124 113.719 362.724 129.449C381.1 139.808 400.663 149.026 420.679 156.757C436.928 163.102 450.994 166.637 464.52 169.624C480.538 173.012 496.212 175.594 511.376 177.344C544.956 181.769 571.475 184.323 598.516 186.935C620.67 189.05 644.815 195.207 671.967 203.739C685.516 207.999 699.142 213.543 713.708 216.592C757.742 237.576 790.683 246.722 853.106 275.164C875.491 285.373 901.043 296.191 924.086 306.478C927.871 308.123 931.525 309.802 934.97 311.364C972.728 328.54 1000.39 340.95 1036.76 359.375C1065.12 373.756 1085.39 388.044 1108.69 402.79C1117.72 408.54 1126.58 413.9 1135.26 419.1C1181.02 446.514 1195.27 455.597 1227.76 468.32C1253.01 478.239 1285.2 488.778 1330 500.108C1366.07 509.275 1412.34 519.072 1469.71 530.671" stroke="#1D1F43" stroke-opacity="0.12" stroke-width="0.2" stroke-miterlimit="10"/>
<path d="M100.444 -98.5737C138.771 -73.1366 172.908 -45.9938 201.55 -18.184C204.258 -15.523 207.058 -12.8741 209.804 -10.2353C257.869 36.1168 256.337 48.6005 295.158 81.2494C317.254 99.8217 333.349 113.82 361.41 129.816C379.868 140.237 399.555 149.479 419.69 157.173C436.185 163.547 450.109 166.812 463.624 169.626C480.312 173.102 494.52 174.85 510.472 176.965C545.088 181.593 575.251 188.438 598.819 188.16C623.032 193.566 647.488 194.429 672.113 207.382C684.93 214.124 698.783 218.348 712.708 221.612C755.728 244.994 783.906 254.284 845.105 283.352C867.435 293.954 893.371 305.017 916.249 315.154C920.106 316.83 923.793 318.432 927.244 320.049C965.65 337.325 992.784 348.752 1030 366.98C1059.27 381.304 1079.26 395.444 1102.85 410.175C1111.92 415.859 1120.91 421.185 1129.81 426.382C1175.83 453.215 1190.94 461.982 1223.54 474.104C1249.02 483.573 1281.2 493.601 1326.15 504.907C1362.3 514.03 1408.87 524.138 1467.04 536.956" stroke="#1D1F43" stroke-opacity="0.12" stroke-width="0.2" stroke-miterlimit="10"/>
<path d="M97.2686 -95.1118C135.307 -70.1716 169.413 -43.5525 198.358 -16.213C201.09 -13.6067 203.938 -11.0673 206.718 -8.43995C256.022 37.3832 255.381 49.2775 293.704 81.2804C316.305 100.15 331.557 113.965 360.045 130.237C378.622 140.721 398.458 149.988 418.732 157.654C435.474 164.057 449.271 167.019 462.784 169.702C479.228 172.942 493.368 174.452 509.644 176.617C545.287 181.404 576.634 189.506 599.25 189.427C624.035 195.641 649.573 197.599 672.314 211.036C684.754 218.382 698.447 223.173 711.685 226.622C753.693 252.402 777.122 261.867 837.082 291.53C859.361 302.514 885.454 313.748 908.413 323.83L919.5 328.647C958.608 346.033 985.251 356.53 1023.26 374.519C1053.4 388.777 1073.13 402.79 1097.04 417.505C1106.14 423.124 1115.24 428.394 1124.4 433.598C1170.66 459.873 1186.6 468.322 1219.33 479.823C1245 488.832 1277.18 498.348 1322.3 509.652C1358.5 518.731 1405.59 529.234 1464.36 543.175" stroke="#1D1F43" stroke-opacity="0.12" stroke-width="0.2" stroke-miterlimit="10"/>
<path d="M94.0938 -91.6602C131.789 -67.2265 165.83 -41.1598 195.085 -14.3272C197.884 -11.8089 200.732 -9.26958 203.555 -6.74076C253.885 38.4475 254.425 49.8789 292.211 81.2581C315.323 100.415 329.848 114.109 358.672 130.605C377.346 141.162 397.327 150.457 417.736 158.082C434.75 164.525 448.366 167.239 461.883 169.715C478.112 172.654 492.172 174.012 508.769 176.238C545.453 181.217 577.969 190.544 599.484 190.611C624.869 197.632 647.565 206.063 672.323 214.595C685.539 221.745 697.922 227.894 710.567 231.579C751.518 259.79 770.165 269.378 828.949 299.623C851.149 311.054 877.51 322.6 900.462 332.431C904.392 334.139 908.153 335.773 911.622 337.281C951.603 354.382 977.473 364.27 1016.37 382.083C1047.4 396.285 1066.84 410.149 1091.1 424.87C1100.23 430.412 1109.48 435.669 1118.78 440.806C1165.29 466.522 1181.97 474.592 1214.89 485.502C1240.79 494.072 1272.93 503.067 1318.28 514.378C1354.53 523.423 1401.95 534.227 1461.5 549.365" stroke="#1D1F43" stroke-opacity="0.12" stroke-width="0.2" stroke-miterlimit="10"/>
<path d="M90.9424 -88.187C128.369 -64.232 162.412 -38.6878 192.03 -12.3356C194.805 -9.8279 197.71 -7.35466 200.562 -4.89154C252.067 39.7142 253.639 50.6304 290.816 81.289C314.422 100.765 327.989 114.211 357.361 131.038C376.193 141.692 396.38 151.033 416.983 158.626C434.34 165.141 447.833 167.606 461.145 169.824C477.266 172.546 491.19 173.689 508.081 175.9C545.758 181.05 579.493 191.622 599.954 191.856C625.911 199.686 648.59 209.085 672.573 218.206C685.712 225.998 697.638 232.665 709.671 236.566C749.599 267.132 763.444 276.95 821.028 307.767C843.163 319.612 869.815 331.351 892.724 341.085C896.702 342.813 900.463 344.447 903.956 345.966C944.596 363.144 969.97 372.049 1009.69 389.687C1041.56 403.812 1060.77 417.56 1085.35 432.266C1094.5 437.753 1103.81 442.89 1113.49 448.151C1160.23 473.331 1177.85 481.094 1210.8 491.339C1236.9 499.45 1269.03 507.944 1314.56 519.242C1350.84 528.254 1398.79 539.441 1458.94 555.714" stroke="#1D1F43" stroke-opacity="0.12" stroke-width="0.2" stroke-miterlimit="10"/>
<path d="M87.7676 -84.7354C124.887 -61.2565 158.896 -36.2457 188.849 -10.3968C191.648 -7.8785 194.606 -5.52571 197.481 -3.11735C250.192 40.9055 252.795 51.3065 289.367 81.2987C313.484 101.062 326.207 114.324 356.032 131.438C374.93 142.136 395.219 151.487 415.91 159.033C433.3 165.471 446.937 167.804 460.243 169.837C476.038 172.248 489.922 173.217 507.182 175.575C545.905 180.907 580.804 192.714 600.241 193.115C626.799 201.752 649.392 212.013 672.621 221.873C685.663 230.287 697.153 237.494 708.549 241.6C747.458 274.574 756.497 284.569 812.905 315.968C834.971 328.239 861.986 340.005 884.73 349.785C888.757 351.535 892.542 353.179 896.035 354.697C937.382 371.975 962.018 380.39 1002.78 397.36C1035.65 411.046 1054.46 425.028 1079.36 439.751C1088.64 445.203 1098.16 450.471 1107.88 455.534C1154.85 480.188 1173.32 487.59 1206.4 497.213C1232.72 504.875 1264.81 512.857 1310.52 524.142C1346.97 533.173 1395.23 544.64 1456.09 562.089" stroke="#1D1F43" stroke-opacity="0.12" stroke-width="0.2" stroke-miterlimit="10"/>
<path d="M85.6147 -83.6289C122.422 -60.5991 156.388 -36.1071 186.671 -10.7593C189.518 -8.35054 192.5 -5.98721 195.428 -3.63401C249.319 39.7953 253.003 49.7022 288.927 78.9962C313.544 99.0675 325.424 112.146 355.681 129.526C374.69 140.297 395.131 149.679 415.961 157.192C433.724 163.701 447.161 165.764 460.461 167.612C475.987 169.646 489.729 170.41 507.377 172.872C547.102 178.418 583.239 191.426 601.618 192.005C628.752 201.44 651.269 212.606 673.773 223.14C686.713 232.187 697.747 239.911 708.525 244.244C746.422 279.616 750.64 289.885 805.885 321.704C827.906 334.411 855.222 346.346 877.951 356.028L889.347 360.864C931.216 378.667 955.664 385.256 997.069 402.468C1030.71 416.436 1049.36 429.942 1074.59 444.617C1084 450.054 1093.67 455.292 1103.53 460.306C1150.61 484.382 1170.06 491.455 1203.23 500.456C1229.78 507.668 1261.85 515.151 1307.74 526.422C1344.21 535.41 1392.92 547.229 1454.48 565.854" stroke="#1D1F43" stroke-opacity="0.12" stroke-width="0.2" stroke-miterlimit="10"/>
<path d="M83.8604 -83.5693C120.357 -61.0318 154.292 -37.1053 184.925 -12.3107C187.815 -9.93517 190.825 -7.63754 193.782 -5.35005C248.966 37.5604 253.565 46.9537 288.976 75.5692C314.127 95.9378 325.135 108.833 355.844 126.5C374.98 137.33 395.582 146.725 416.55 154.182C434.541 160.698 447.88 162.589 461.095 164.166C476.403 166.04 490.138 166.619 507.989 169.078C548.77 174.783 586.062 189.049 603.412 189.805C631.147 200.048 655.18 210.778 675.361 223.337C689.82 232.341 698.779 241.325 708.895 245.721C745.754 283.48 745.127 294.014 799.211 326.382C821.128 339.526 848.799 351.642 871.435 361.205C875.559 362.997 879.43 364.575 882.918 366.039C925.494 383.942 949.389 389.548 991.658 406.562C1026.15 420.443 1044.55 433.843 1070.12 448.47C1079.65 453.9 1089.45 459.106 1099.45 464.056C1146.72 487.617 1167.06 494.307 1200.36 502.698C1227.11 509.439 1259.17 516.421 1305.23 527.689C1341.72 536.633 1390.88 548.805 1453.17 568.542" stroke="#1D1F43" stroke-opacity="0.12" stroke-width="0.2" stroke-miterlimit="10"/>
<path d="M82.2334 -83.4834C118.421 -61.3968 152.321 -38.0098 183.301 -13.7594C186.239 -11.4281 189.303 -9.18566 192.259 -6.96347C248.648 35.2987 254.263 44.1444 289.021 72.1378C314.658 92.7826 324.819 105.504 356.106 123.501C375.318 134.439 396.066 143.898 417.175 151.341C435.442 157.886 448.697 159.506 461.81 160.921C476.907 162.548 490.564 162.91 508.856 165.482C550.63 171.359 589.111 186.87 605.461 187.804C633.762 198.801 657.857 210.717 677.132 223.702C691.61 233.456 700.049 242.774 709.568 247.548C745.385 287.706 739.919 298.493 792.884 331.378C814.722 344.969 842.654 357.211 865.276 366.743L876.851 371.564C920.104 389.566 943.475 394.189 986.599 411.028C1021.99 424.831 1040.07 438.17 1066 452.759C1075.65 458.193 1085.57 463.377 1095.71 468.275C1143.15 491.322 1164.4 497.629 1197.82 505.408C1224.77 511.69 1256.8 518.16 1303.06 529.426C1352.17 541.041 1402 555.167 1451.96 571.636" stroke="#1D1F43" stroke-opacity="0.12" stroke-width="0.2" stroke-miterlimit="10"/>
<path d="M80.731 -83.875C116.605 -62.2098 150.465 -39.3467 181.783 -15.6419C184.77 -13.3548 187.857 -11.1671 190.842 -9.01063C248.493 32.6678 255.068 41.032 289.236 68.3262C315.431 89.2787 324.696 101.806 356.313 120.037C375.649 131.041 396.565 140.511 417.813 147.883C436.307 154.435 449.483 155.839 462.541 157.048C477.405 158.416 490.978 158.573 509.541 161.185C552.356 167.254 591.929 183.969 607.328 185.101C636.21 196.95 660.298 209.943 678.774 223.375C693.238 233.891 701.148 243.63 710.035 248.598C744.838 291.154 734.503 302.194 786.326 335.585C808.085 349.624 836.357 362.014 858.92 371.415C863.145 373.173 867.089 374.783 870.587 376.225C914.619 394.357 937.359 397.977 981.294 414.609C1017.53 428.323 1035.39 441.513 1061.62 456.131C1071.4 461.547 1081.46 466.687 1091.74 471.51C1139.36 494.065 1161.52 499.957 1195.05 507.135C1222.2 512.946 1254.21 518.927 1300.66 530.168C1350.2 541.914 1400.55 556.619 1450.92 574.046" stroke="#1D1F43" stroke-opacity="0.12" stroke-width="0.2" stroke-miterlimit="10"/>
<path d="M79.5962 -85.1104C115.167 -63.8677 148.993 -41.5374 180.648 -18.401C183.657 -16.1687 186.792 -14.0252 189.801 -11.9234C248.754 29.1489 256.414 37.008 289.832 63.6381C316.562 84.8878 324.95 97.2426 357.028 115.739C376.466 126.817 397.53 136.317 418.906 143.645C437.657 150.205 450.749 151.402 463.728 152.395C478.368 153.549 491.872 153.468 510.754 156.14C554.586 162.39 595.406 180.35 609.723 181.65C639.182 194.296 663.191 208.401 680.939 222.31C695.307 233.58 702.78 243.727 711.054 248.911C744.815 293.865 729.592 305.137 780.325 339.044C801.951 353.52 830.578 366.09 853.101 375.383C857.356 377.141 861.329 378.75 864.831 380.181C909.493 398.392 931.713 401.017 976.478 417.463C1013.59 431.089 1031.2 444.185 1057.71 458.766C1067.62 464.172 1077.83 469.282 1088.24 474.052C1136.04 496.126 1159.08 501.58 1192.73 508.159C1220.08 513.531 1252.11 518.99 1298.74 530.229C1348.64 542.036 1399.48 557.262 1450.17 575.581" stroke="#1D1F43" stroke-opacity="0.12" stroke-width="0.2" stroke-miterlimit="10"/>
<path d="M78.4854 -86.3364C113.741 -65.498 147.524 -43.699 179.507 -21.1504C182.564 -18.9623 185.733 -16.8954 188.765 -14.8485C249.03 25.6612 257.425 32.8895 290.428 58.9486C317.672 80.474 325.208 92.6667 357.714 111.44C377.257 122.602 398.484 132.133 419.999 139.405C439.01 145.961 452.009 146.976 464.939 147.751C479.383 148.625 492.764 148.36 511.967 151.094C556.826 157.569 598.883 176.73 612.122 178.187C638.84 189.969 663.439 204.887 683.084 221.224C697.327 233.245 704.416 243.812 712.048 249.212C744.796 296.563 724.655 308.068 774.323 342.502C795.813 357.426 824.813 370.132 847.258 379.339C851.59 381.117 855.568 382.716 859.104 384.135C904.434 402.402 926.164 404.164 971.784 420.369C1009.71 433.896 1027.13 446.908 1053.97 461.473C1063.31 466.533 1073.49 471.113 1084.87 476.634C1132.08 499.533 1156.79 503.266 1190.57 509.233C1218.13 514.102 1250.13 519.104 1296.93 530.329C1347.25 542.219 1398.61 557.968 1449.63 577.155" stroke="#1D1F43" stroke-opacity="0.12" stroke-width="0.2" stroke-miterlimit="10"/>
<path d="M77.3477 -87.5703C112.303 -67.1224 146.055 -45.8521 178.368 -23.908C181.478 -21.7751 184.666 -19.752 187.751 -17.7602C249.317 22.0128 258.749 28.9109 291.022 54.2619C318.824 76.0951 325.367 88.0514 358.422 107.155C378.106 118.413 399.527 127.988 421.21 135.221C440.459 141.763 453.369 142.583 466.244 143.152C480.406 143.747 493.752 143.298 513.274 146.092C559.193 152.715 602.464 173.133 614.611 174.78C641.824 187.379 666.397 203.191 685.223 220.216C699.272 232.948 706.021 243.965 713.016 249.57C744.751 299.319 719.669 311.046 768.266 346.017C789.648 361.389 818.993 374.232 841.437 383.374C845.798 385.152 849.834 386.749 853.346 388.158C899.388 406.513 920.583 407.248 967.039 423.322C1005.87 436.771 1022.91 449.657 1050.2 464.238C1060.47 469.491 1070.93 474.521 1081.52 479.306C1129.06 501.645 1154.5 505.02 1188.42 510.397C1216.16 514.784 1248.16 519.307 1295.05 530.477C1345.74 542.453 1397.57 558.736 1448.83 578.79" stroke="#1D1F43" stroke-opacity="0.12" stroke-width="0.2" stroke-miterlimit="10"/>
<path d="M76.2148 -88.8071C110.883 -68.7314 144.616 -47.9873 177.263 -26.669C180.397 -24.5908 183.604 -22.6116 186.722 -20.6964C249.58 18.4924 259.991 24.8652 291.698 49.6582C319.967 71.6807 325.627 83.4753 359.115 102.845C378.871 114.173 400.422 123.769 422.208 130.94C441.718 137.478 454.564 138.113 467.336 138.456C481.355 138.846 494.55 138.148 514.416 141.014C561.328 147.808 605.851 169.525 616.93 171.241C644.727 184.668 669.349 201.38 687.418 219.084C701.217 232.527 707.659 243.984 714.041 249.804C744.734 301.952 714.682 313.967 762.291 349.42C783.536 365.24 813.224 378.219 835.596 387.264C840.01 389.052 844.075 390.649 847.596 392.037C894.374 410.489 914.987 410.243 962.297 426.141C1002.01 439.491 1018.76 452.294 1046.34 466.827C1056.72 472.087 1067.31 477.084 1078.05 481.792C1125.92 503.571 1152.09 506.587 1186.13 511.353C1214.09 515.291 1246.11 519.324 1293.16 530.525C1344.26 542.589 1396.59 559.406 1448.08 580.312" stroke="#1D1F43" stroke-opacity="0.12" stroke-width="0.2" stroke-miterlimit="10"/>
<path d="M75.1265 -90.0229C114.612 -67.2007 149.79 -46.1463 176.144 -29.4081C179.351 -27.3636 182.591 -25.461 185.7 -23.5893C249.912 14.9383 261.243 20.8519 292.258 44.8492C321.143 67.244 326.024 78.9081 359.867 98.5229C379.725 109.929 401.431 119.553 423.342 126.667C443.118 133.19 455.89 133.664 468.588 133.778C482.374 133.911 495.485 133.008 515.67 135.934C563.624 142.92 609.364 165.883 619.347 167.799C647.705 182.057 672.336 199.642 689.63 217.974C703.152 232.118 710.565 244.062 715.101 250.082C757.13 306.01 709.695 316.877 756.331 352.844C777.41 369.112 807.52 382.249 829.819 391.197C834.286 392.996 838.361 394.571 841.911 395.957C889.327 414.467 909.382 413.248 957.567 428.993C998.155 442.243 1014.64 454.952 1042.57 469.459C1052.99 474.842 1063.73 479.821 1074.66 484.331C1123.24 504.554 1149.77 508.197 1183.95 512.384C1212.1 515.83 1244.08 519.362 1291.41 530.559C1342.95 542.729 1395.8 560.084 1447.51 581.821" stroke="#1D1F43" stroke-opacity="0.12" stroke-width="0.2" stroke-miterlimit="10"/>
<path d="M73.9668 -91.2671C113.975 -68.3869 149.115 -47.9088 174.983 -32.176C178.243 -30.1866 181.506 -28.3388 184.639 -26.5218C250.254 11.3656 262.453 16.8098 292.815 40.1851C322.263 62.8767 326.234 74.3795 360.509 94.2603C380.484 105.753 402.363 115.412 424.415 122.474C444.438 128.962 457.112 129.262 469.735 129.15C483.336 129.045 496.242 127.883 516.844 130.913C565.819 138.07 612.628 162.226 621.731 164.372C654.112 181.047 676.904 200.273 691.755 216.934C704.945 231.779 711.96 244.24 716.057 250.408C754.867 308.765 704.628 319.845 750.262 356.327C771.179 373.033 801.712 386.328 823.937 395.179C828.462 396.976 832.585 398.572 836.116 399.938C884.249 418.524 903.779 416.322 952.785 431.903C994.224 445.054 1010.42 457.68 1038.69 472.149C1049.24 477.525 1060.13 482.468 1071.18 486.907C1119.96 506.714 1147.37 509.876 1181.69 513.463C1210.02 516.427 1242.01 519.481 1289.57 530.685C1326.43 539.373 1379.02 554.272 1446.85 583.41" stroke="#1D1F43" stroke-opacity="0.12" stroke-width="0.2" stroke-miterlimit="10"/>
<path d="M72.8315 -92.5044C113.324 -69.544 148.45 -49.6969 173.842 -34.9261C177.159 -33.0028 180.447 -31.2098 183.579 -29.3928C250.485 7.71459 263.691 12.7636 293.411 35.4949C323.131 58.2263 326.492 69.8029 361.224 89.9603C381.292 101.541 403.33 111.234 425.508 118.234C445.781 124.675 458.397 124.845 470.941 124.516C484.327 124.175 497.227 122.829 518.052 125.877C568.045 133.281 616.071 158.616 624.121 160.93C657.102 178.413 679.519 198.57 693.92 215.868C706.785 231.327 713.281 244.318 717.07 250.664C752.423 311.269 699.566 322.734 744.279 359.741C765.001 376.896 795.937 390.326 818.137 399.101C822.692 400.898 826.848 402.483 830.481 403.879C879.32 422.499 898.292 419.391 948.134 434.775C990.447 447.838 1006.39 460.391 1034.99 474.823C1045.68 480.194 1056.69 485.105 1067.87 489.477C1116.87 508.857 1145.1 511.517 1179.59 514.525C1208.1 517.007 1240.09 519.582 1287.88 530.794C1324.81 539.46 1377.8 554.679 1446.33 585.016" stroke="#1D1F43" stroke-opacity="0.12" stroke-width="0.2" stroke-miterlimit="10"/>
<path d="M71.7183 -93.729C112.68 -70.7208 147.783 -51.4829 172.694 -37.6631C176.064 -35.795 179.37 -34.0457 182.555 -32.3492C250.767 4.07584 264.928 8.71962 294 30.8179C324.594 54.0593 326.724 65.218 361.907 85.6629C382.077 97.338 404.287 107.066 426.598 113.996C447.127 120.379 459.684 120.42 472.145 119.885C485.326 119.285 498.113 117.734 519.286 120.842C570.296 128.362 620.575 153.558 626.513 157.479C657.182 177.694 682.116 196.836 696.082 214.804C708.584 230.899 714.726 244.439 718.062 251.032C749.803 313.711 694.429 325.724 738.247 363.265C758.779 380.858 790.145 394.424 812.268 403.113C816.9 404.931 821.061 406.505 824.626 407.859C874.162 426.599 892.571 422.465 943.267 437.674C986.436 450.627 1002.09 463.108 1031.05 477.513C1041.87 482.879 1053.03 487.757 1064.32 492.064C1113.53 511.027 1142.62 513.185 1177.22 515.593C1205.91 517.648 1237.93 519.689 1285.93 530.898C1322.9 539.531 1376.34 555.114 1445.55 586.606" stroke="#1D1F43" stroke-opacity="0.12" stroke-width="0.2" stroke-miterlimit="10"/>
<path d="M70.5835 -94.9644C112.016 -71.843 147.108 -53.3125 171.567 -40.4441C174.995 -38.6421 178.32 -36.9366 181.553 -35.2843C251.061 0.414998 266.192 4.68594 294.601 26.1188C325.87 49.7316 326.914 60.6008 362.637 81.3319C382.916 93.092 405.293 102.852 427.734 109.725C448.476 116.017 460.988 115.961 473.336 115.221C486.341 114.363 499.011 112.617 520.499 115.797C572.55 123.509 623.083 151.106 628.913 154.017C664.449 171.791 684.698 195.08 698.155 213.687C707.159 226.5 714.134 239.101 718.965 251.28C747.101 315.948 689.227 328.606 732.246 366.724C752.563 384.745 784.371 398.489 806.449 407.081C811.11 408.898 815.33 410.471 818.826 411.783C869.045 430.546 886.915 425.462 938.476 440.539C982.481 453.36 997.887 465.823 1027.18 480.169C1038.14 485.531 1049.44 490.372 1060.85 494.605C1110.3 513.162 1140.18 514.755 1174.95 516.626C1203.83 518.124 1235.83 519.752 1284.07 530.99C1321.11 539.6 1374.94 555.493 1444.87 588.172" stroke="#1D1F43" stroke-opacity="0.12" stroke-width="0.2" stroke-miterlimit="10"/>
<path d="M69.4482 -96.1997C111.325 -73.1064 146.418 -55.1745 170.431 -43.2032C249.891 -3.59529 266.167 -0.298258 295.197 21.4306C326.965 45.2214 327.241 56.0688 363.308 77.0672C383.689 88.9209 406.236 98.7191 428.808 105.531C471.704 118.183 479.016 104.41 521.712 110.752C574.784 118.635 626.368 147.73 631.307 150.566C697.163 188.298 714.527 236.606 720.056 251.625C744.583 318.161 684.17 331.55 726.22 370.173C750.626 392.587 792.949 408.284 813.123 415.749C864.02 434.612 881.36 428.555 933.757 443.435C992.808 460.192 1000.42 476.312 1057.48 497.2C1148.52 530.473 1175.88 506.47 1282.15 531.039C1319.23 539.615 1373.49 555.851 1444.11 589.706" stroke="#1D1F43" stroke-opacity="0.12" stroke-width="0.2" stroke-miterlimit="10"/>
<path d="M70.1626 -94.2617C111.263 -71.5058 145.664 -53.6403 169.648 -41.6032C246.845 -2.69269 263.593 1.04393 292.424 22.6994C323.571 46.1289 324.397 56.9032 359.504 77.5233C379.441 89.1686 401.458 98.8884 423.605 105.822C465.638 118.997 473.235 105.764 515.177 112.248C567.021 120.17 617.199 148.055 623.068 151.139C678.007 179.948 698.332 218.789 707.883 238.953C709.842 243.072 711.094 246.428 712.196 248.938C738.953 313.462 681.507 326.592 723.244 363.945C748.172 386.222 790.9 401.913 811.876 409.791C831.088 417.032 850.433 422.388 868.845 425.564C887.496 429.1 905.271 431.668 932.649 440.142C941.035 442.745 948.377 445.362 954.962 447.729C994.876 462.067 1007.14 474.803 1055.54 491.371C1074.26 497.8 1092.9 502.561 1110.68 505.451C1158.89 513.381 1194.62 505.476 1268.14 520.32C1272.46 521.188 1276.94 522.155 1281.59 523.221C1319.06 531.77 1374.22 548.048 1446.02 582.202" stroke="#1D1F43" stroke-opacity="0.12" stroke-width="0.2" stroke-miterlimit="10"/>
<path d="M70.8799 -92.3237C111.107 -69.9473 144.956 -52.2046 168.898 -40.0037C243.787 -1.82253 260.924 2.34394 289.649 23.9791C320.241 46.9593 321.513 57.8362 355.611 77.9264C375.119 89.3772 396.62 99.0329 418.351 106.102C459.474 119.715 467.433 107.174 508.627 113.722C559.233 121.771 608.608 147.719 614.784 151.691C663.593 182.991 689.324 216.957 699.674 236.543C701.778 240.53 703.024 243.767 704.149 246.156C733.039 308.691 678.765 321.559 720.125 357.655C745.434 379.719 788.685 395.468 810.466 403.748C829.803 411.107 849.3 416.783 868.095 420.525C886.852 424.549 904.617 427.803 931.394 436.797C939.729 439.585 947.024 442.443 953.609 444.81C993.401 459.095 1005.58 470.231 1053.44 485.458C1072.13 491.37 1090.62 495.693 1108.21 498.27C1154.79 505.493 1192.18 497.489 1267.27 512.441C1271.65 513.326 1276.19 514.285 1280.9 515.34C1318.73 523.851 1374.79 540.171 1447.79 574.624" stroke="#1D1F43" stroke-opacity="0.12" stroke-width="0.2" stroke-miterlimit="10"/>
<path d="M71.5942 -90.3857C110.953 -68.3998 144.201 -50.7357 168.048 -38.3811C240.668 -0.95157 258.229 3.6987 286.809 25.2706C316.803 47.8348 318.583 58.7372 351.817 78.4259C370.892 89.6626 391.868 99.2232 413.153 106.382C453.228 120.347 461.672 108.55 502.097 115.207C551.485 123.338 599.63 147.671 606.555 152.242C644.962 177.899 674.654 206.521 691.496 234.122C693.744 237.976 695.009 241.104 696.128 243.374C727.141 303.811 676.035 316.558 716.945 351.365C742.727 373.27 786.438 389.023 809.015 397.728C828.489 405.19 848.135 411.177 867.285 415.486C886.195 420.019 903.969 423.981 930.083 433.441C938.404 436.458 945.633 439.534 952.218 441.901C991.967 456.154 1003.92 465.672 1051.23 479.525C1069.87 484.895 1088.19 488.785 1105.62 491.079C1150.61 497.52 1189.74 489.578 1266.27 504.531C1270.68 505.405 1275.28 506.367 1280.07 507.417C1318.26 515.902 1375.26 532.273 1449.41 567.025" stroke="#1D1F43" stroke-opacity="0.12" stroke-width="0.2" stroke-miterlimit="10"/>
<path d="M72.3125 -88.4575C110.793 -66.8401 143.47 -49.2551 167.313 -36.7589C237.664 -0.0810457 255.674 5.06357 284.006 26.541C313.373 48.6895 315.768 59.6377 347.939 78.8516C366.586 89.9174 387.053 99.4339 407.92 106.74C447.129 121.175 455.876 110.004 495.562 116.77C543.77 124.895 589.089 149.692 598.311 152.828C647.587 179.8 671.414 213.237 683.328 231.746C685.724 235.456 686.989 238.454 688.267 240.688C721.437 299.081 673.531 311.631 713.978 345.117C740.28 366.884 784.374 382.621 807.781 391.739C827.406 399.315 847.209 405.618 866.686 410.489C885.775 415.542 903.481 420.19 929.008 430.137C937.297 433.362 944.455 436.668 951.089 439.056C990.789 453.288 1002.55 461.143 1049.42 473.728C1069.29 479.054 1086.32 481.72 1103.44 484.003C1146.87 489.737 1187.63 481.674 1265.69 496.758C1270.13 497.618 1274.79 498.579 1279.67 499.642C1318.25 508.088 1376.15 524.501 1451.48 559.553" stroke="#1D1F43" stroke-opacity="0.12" stroke-width="0.2" stroke-miterlimit="10"/>
<path d="M73.0024 -86.5303C110.542 -65.335 142.72 -47.7973 166.655 -35.1827C234.694 0.711432 253.008 6.35244 281.359 27.7861C310.089 49.5409 312.934 60.45 344.265 79.2731C362.453 90.138 382.381 99.5693 402.775 106.964C441.008 121.652 450.168 111.325 489.085 118.199C536.008 126.495 579.771 150.161 590.13 153.4C638.063 179.281 662.451 211.361 675.199 229.346C677.739 232.924 679.022 235.812 680.392 237.969C715.705 294.286 671.067 306.68 710.987 338.857C737.811 360.486 782.315 376.207 806.494 385.738C831.115 395.447 849.203 400.613 866.06 405.49C885.326 411.064 903.792 415.026 927.886 426.812C934.997 430.322 942.355 433.454 949.79 436.135C989.466 450.356 1000.95 456.583 1047.4 467.825C1066.84 472.536 1083.76 474.746 1101.15 476.863C1142.99 481.922 1185.38 473.771 1264.98 488.91C1269.47 489.768 1274.19 490.725 1279.13 491.78C1318.07 500.199 1376.88 516.654 1453.4 552.005" stroke="#1D1F43" stroke-opacity="0.12" stroke-width="0.2" stroke-miterlimit="10"/>
<path d="M73.7134 -84.5806C110.476 -63.7226 141.986 -46.3061 165.772 -33.6133C231.634 1.51705 250.382 7.68525 278.578 29.0775C306.774 50.4698 310.096 61.3396 340.428 79.7413C366.86 95.771 390.627 105.123 397.656 107.331C435.152 119.069 444.466 112.766 482.64 119.76C528.32 128.128 570.561 150.716 581.98 154.038C628.542 178.828 653.486 209.496 667.129 227.012C669.79 230.446 671.091 233.225 672.523 235.305C709.979 289.546 668.697 301.784 708.07 332.695C735.464 354.207 780.307 369.879 805.311 379.834C830.316 389.789 848.507 395.246 865.518 400.568C884.937 406.651 903.79 411.316 926.838 423.584C933.781 427.316 941.118 430.596 948.571 433.301C988.199 447.502 999.434 452.11 1045.43 462.009C1064.47 466.116 1081.2 467.828 1098.7 469.758C1138.95 474.23 1183.03 465.914 1264.14 481.097C1268.67 481.947 1273.45 482.903 1278.46 483.964C1317.79 492.357 1377.5 508.853 1455.2 544.492" stroke="#1D1F43" stroke-opacity="0.12" stroke-width="0.2" stroke-miterlimit="10"/>
<path d="M74.4438 -82.6758C110.319 -62.1645 141.229 -44.8266 165.006 -32.0466C228.627 2.26638 247.77 8.98408 275.821 30.3131C303.346 51.2577 307.245 62.1956 336.636 80.1752C362.291 95.8675 385.25 105.285 392.362 107.568C429.022 119.307 438.561 114.079 476.015 121.203C520.458 129.632 561.07 151.121 573.666 154.524C618.884 178.224 644.345 207.371 658.866 224.526C660.95 227.196 662.836 229.854 664.519 232.49C704.068 284.633 666.219 296.736 704.897 326.328C732.89 347.723 778.075 363.336 803.871 373.726C828.692 383.705 847.53 389.665 864.713 395.453C884.31 402.055 903.518 407.499 925.533 420.151C932.325 424.121 939.698 427.581 947.236 430.337C986.843 444.516 997.796 447.518 1043.37 456.062C1062.03 459.576 1078.52 460.791 1096.25 462.533C1134.97 466.34 1180.67 457.947 1263.28 473.174C1267.86 474.017 1272.69 474.972 1277.78 476.039C1317.42 484.372 1378.09 500.932 1456.98 536.88" stroke="#1D1F43" stroke-opacity="0.12" stroke-width="0.2" stroke-miterlimit="10"/>
<path d="M75.1685 -80.7593C110.18 -60.6494 140.509 -43.4339 164.258 -30.4576C225.604 3.04936 245.148 10.3056 273.175 31.6241C300.097 52.1636 304.519 63.0941 332.948 80.6302C357.973 96.0483 380.004 105.479 387.295 107.88C423.128 119.663 433.004 115.518 469.622 122.708C512.822 131.209 551.957 151.652 565.554 155.14C609.405 177.737 635.286 205.453 650.844 222.147C653.006 224.705 654.968 227.257 656.722 229.792C698.418 279.847 664.012 291.793 701.984 320.089C730.571 341.378 776.066 356.943 802.663 367.746C827.674 377.886 846.839 384.222 864.17 390.465C884.751 397.93 905.06 406.812 924.489 416.847C932.814 421.05 939.576 425.134 946.064 427.524C985.629 441.671 996.289 443.088 1041.45 450.266C1059.63 453.156 1076.01 453.893 1093.98 455.48C1131.18 458.732 1178.47 450.131 1262.69 465.444C1267.29 466.283 1272.21 467.237 1277.4 468.306C1317.46 476.601 1379.04 493.235 1459.02 529.45" stroke="#1D1F43" stroke-opacity="0.12" stroke-width="0.2" stroke-miterlimit="10"/>
<path d="M75.7803 -78.2535C109.923 -58.5341 139.671 -41.3758 163.377 -28.3008C222.391 4.33558 242.336 12.1304 270.057 33.3552C296.401 53.5002 301.315 64.4237 328.804 81.5377C352.955 96.5763 374.256 106.093 381.723 108.622C416.763 120.503 426.825 117.325 462.771 124.666C504.704 133.228 542.313 152.605 556.97 156.175C599.527 177.702 625.672 203.814 642.302 220.232C644.544 222.677 646.591 225.123 648.434 227.558C692.084 275.442 661.367 287.325 698.58 314.315C727.81 335.518 773.565 351.014 800.988 362.241C826.135 372.531 845.651 379.254 863.131 385.952C883.059 393.584 900.959 402.235 923.022 414.048C931.373 418.524 938.03 422.784 944.518 425.108C984.033 439.234 994.427 439.076 1039.18 444.867C1056.93 447.153 1073.12 447.404 1091.31 448.802C1127.01 451.531 1175.89 442.723 1261.53 458.027C1266.19 458.854 1271.14 459.807 1276.41 460.876C1316.82 469.166 1379.25 485.787 1460.5 522.333" stroke="#1D1F43" stroke-opacity="0.12" stroke-width="0.2" stroke-miterlimit="10"/>
<path d="M74.9106 -72.996C108.18 -53.6561 137.347 -36.6202 161.011 -23.3814C217.915 8.46845 238.236 16.8566 265.835 37.9634C291.577 57.7033 297.004 68.6413 323.556 85.3223C346.931 100.024 367.405 109.585 375.071 112.252C409.309 124.254 419.591 122.03 454.793 129.49C495.483 138.059 531.537 156.435 547.288 160.076C588.401 180.547 611.792 205.762 632.691 221.183C635.124 224.012 637.269 226.376 639.033 228.158C684.713 273.89 657.678 285.732 694.083 311.395C723.989 332.502 770.005 347.929 798.224 359.58C823.508 370.021 843.375 377.131 861.012 384.261C881.119 392.413 899.044 401.934 920.33 414.009C928.707 418.756 935.259 423.192 941.727 425.495C981.219 439.61 991.296 437.923 1035.64 442.272C1052.97 443.986 1068.97 443.739 1087.4 444.938C1121.62 447.166 1172.07 438.118 1259.22 453.466C1263.91 454.299 1268.93 455.248 1274.27 456.312C1315.04 464.63 1378.45 481.324 1460.78 518.182" stroke="#1D1F43" stroke-opacity="0.12" stroke-width="0.2" stroke-miterlimit="10"/>
<path d="M74.292 -68.1869C106.761 -49.1949 135.341 -32.2704 158.973 -18.8897C213.675 12.1205 234.465 21.155 261.778 42.1897C286.922 61.5135 292.862 72.4661 318.449 88.7144C341.052 103.067 360.718 112.629 368.589 115.49C402.04 127.644 412.522 126.353 447.077 133.975C486.559 142.67 521.032 159.903 537.867 163.638C577.637 182.952 601.237 206.89 623.326 221.762C625.351 223.989 627.553 226.212 629.923 228.417C677.551 271.989 654.316 283.712 689.852 308.125C720.459 329.146 766.687 344.483 795.697 356.569C821.146 367.159 841.364 374.656 859.116 382.253C879.401 390.925 897.366 401.349 917.957 413.695C926.332 418.714 932.807 423.325 939.3 425.573C978.723 439.646 988.553 436.405 1032.46 439.357C1049.29 440.458 1065.19 439.766 1083.78 440.734C1116.5 442.482 1168.51 433.162 1257.17 448.543C1261.92 449.303 1266.99 450.309 1272.41 451.387C1313.57 459.601 1377.78 476.35 1461.42 513.461" stroke="#1D1F43" stroke-opacity="0.12" stroke-width="0.2" stroke-miterlimit="10"/>
<path d="M73.7935 -63.3271C105.365 -44.7252 133.384 -27.9016 156.924 -14.3781C209.439 15.7595 230.46 25.3241 257.744 46.3592C282.285 65.2779 288.738 76.2451 313.388 92.0603C335.263 106.097 354.435 114.806 362.124 118.681C393.226 134.384 405.475 130.62 439.184 138.329C477.336 147.097 510.346 163.252 528.27 167.07C566.697 185.292 590.476 207.89 613.877 222.264C615.975 224.391 618.255 226.504 620.704 228.589C670.261 269.979 650.871 281.615 685.639 304.809C716.927 325.722 763.382 341.001 793.217 353.511C818.827 364.263 839.367 372.147 857.272 380.188C877.734 389.38 895.682 400.707 915.598 413.346C923.994 418.648 930.35 423.402 936.814 425.716C976.217 439.767 985.785 435.006 1029.23 436.505C1045.74 437.078 1061.38 435.856 1080.24 436.646C1111.42 437.905 1165.07 428.333 1255.27 443.703C1260.04 444.528 1265.18 445.461 1270.69 446.501C1312.22 454.677 1377.38 471.434 1462.17 508.877" stroke="#1D1F43" stroke-opacity="0.12" stroke-width="0.2" stroke-miterlimit="10"/>
<path d="M73.2425 -58.4738C103.922 -40.2076 131.354 -23.5608 154.881 -9.87387C205.208 19.3912 226.572 29.5605 253.706 50.5433C277.649 69.046 284.634 79.9838 308.275 95.465C329.398 109.175 347.806 117.851 355.608 121.932C385.756 137.637 398.376 134.945 431.365 142.784C468.279 151.548 499.759 166.712 518.747 170.602C555.803 187.734 579.916 209.031 604.333 222.792C606.502 224.821 608.861 226.825 611.389 228.788C662.822 267.985 647.422 279.598 681.106 301.435C713.207 322.272 759.791 337.452 790.394 350.386C816.17 361.287 837.056 369.57 855.109 378.066C875.749 387.777 893.67 400.03 912.949 412.874C921.332 418.47 927.616 423.388 934.061 425.681C973.416 439.71 982.765 433.462 1025.82 433.53C1041.91 433.532 1057.37 431.823 1076.44 432.392C1106.29 433.267 1161.36 423.337 1253.03 438.828C1257.85 439.631 1263.04 440.585 1268.6 441.689C1310.51 449.849 1376.55 466.637 1462.53 504.39" stroke="#1D1F43" stroke-opacity="0.12" stroke-width="0.2" stroke-miterlimit="10"/>
<path d="M72.6954 -53.6361C102.452 -35.8357 129.352 -19.225 152.837 -5.37417C201.058 23.0281 222.678 33.8033 249.671 54.7119C273.036 72.82 280.486 83.8166 303.214 98.81C323.561 112.183 341.204 120.826 349.143 125.122C378.291 140.874 391.333 139.199 423.574 147.169C459.226 155.983 489.175 170.091 509.251 174.064C544.964 190.104 569.184 210.029 594.913 223.293C597.162 225.222 599.601 227.114 602.204 228.948C655.348 265.933 644.112 277.455 676.801 298.065C709.489 318.676 756.38 333.949 787.817 347.285C813.734 358.326 834.971 366.995 853.221 375.968C874.015 386.189 891.937 399.301 910.556 412.47C918.926 418.36 925.149 423.42 931.564 425.713C970.876 439.711 980.021 432.007 1022.51 430.538C1038.23 430 1053.49 427.804 1072.78 428.142C1101.18 428.623 1157.78 418.357 1250.96 433.827C1255.81 434.629 1261.06 435.611 1266.72 436.652C1308.96 444.709 1375.94 461.55 1463.06 499.646" stroke="#1D1F43" stroke-opacity="0.12" stroke-width="0.2" stroke-miterlimit="10"/>
<path d="M72.155 -48.8056C101.111 -31.3532 127.381 -14.8859 150.828 -0.882209C196.799 26.594 218.801 38.0168 245.644 58.8731C268.406 76.5761 276.422 87.5974 298.155 102.093C317.774 115.15 334.653 123.76 342.705 128.262C370.899 144.016 384.288 143.403 415.833 151.513C450.204 160.356 478.611 173.43 499.729 177.465C534.08 192.392 558.502 210.986 585.447 223.711C587.796 225.549 590.319 227.338 592.987 229.057C648.075 263.958 640.842 275.292 672.507 294.677C706.201 315.295 753.018 330.341 785.252 344.166C811.315 355.336 832.898 364.403 851.248 373.809C872.22 384.55 890.042 398.622 908.082 411.994C916.421 418.222 922.571 423.382 928.992 425.664C968.274 439.662 977.22 430.491 1019.21 427.516C1034.53 426.429 1049.65 423.822 1069.08 423.842C1096.09 423.951 1154.17 413.326 1248.87 428.829C1253.77 429.631 1259.08 430.568 1264.81 431.641C1307.43 439.747 1375.31 456.619 1463.65 494.969" stroke="#1D1F43" stroke-opacity="0.12" stroke-width="0.2" stroke-miterlimit="10"/>
<path d="M71.6012 -43.9428C99.6843 -26.8699 125.378 -10.536 148.777 3.64251C192.604 30.2129 214.93 42.2842 241.593 63.0886C263.762 80.3646 272.237 91.3904 293.083 105.474C306.789 114.555 321.225 123.259 336.228 131.488C363.475 147.234 377.21 147.683 408.031 155.934C441.12 164.806 468.156 176.855 490.27 180.983C523.245 194.831 547.905 212.083 576.059 224.279C578.501 226.02 581.104 227.696 583.834 229.285C640.531 261.943 637.608 273.184 668.194 291.332C702.749 311.829 749.528 327.093 782.648 341.069C808.967 352.181 830.777 361.854 849.305 371.715C870.381 382.944 888.191 397.974 905.637 411.583C913.955 418.062 920.048 423.418 926.444 425.69C965.683 439.656 974.469 429.062 1015.94 424.559C1030.86 422.934 1045.77 419.807 1065.44 419.617C1091.02 419.354 1150.59 408.36 1246.8 423.896C1251.72 424.73 1257.1 425.623 1262.89 426.695C1305.91 434.752 1374.69 451.676 1464.2 490.326" stroke="#1D1F43" stroke-opacity="0.12" stroke-width="0.2" stroke-miterlimit="10"/>
<path d="M71.0486 -39.0918C98.3797 -22.3457 123.404 -6.19827 146.742 8.12261C188.434 33.7653 211.054 46.4855 237.592 67.2481C259.115 84.087 268.122 95.1488 288.007 108.789C301.304 117.777 315.256 126.451 329.739 134.736C356.096 150.473 370.124 151.973 400.21 160.387C432.027 169.266 457.431 180.292 480.746 184.513C512.382 197.259 537.245 213.18 566.591 224.826C569.135 226.468 571.814 228.033 574.595 229.502C633.024 260.035 634.384 271.107 663.859 288.029C699.313 308.383 746.116 323.593 780.047 338.025C806.526 349.298 828.663 359.348 847.339 369.664C868.642 381.434 886.269 397.348 903.195 411.226C911.423 417.978 917.503 423.497 923.875 425.758C963.094 439.703 971.72 427.685 1012.62 421.634C1027.2 419.481 1041.93 415.899 1061.75 415.435C1085.99 414.853 1147.01 403.458 1244.76 419.027C1249.73 419.816 1255.18 420.752 1261.05 421.823C1304.45 429.864 1374.19 446.85 1464.83 485.768" stroke="#1D1F43" stroke-opacity="0.12" stroke-width="0.2" stroke-miterlimit="10"/>
<path d="M70.4741 -34.2531C96.8396 -17.9396 121.433 -1.86235 144.685 12.6557C184.165 37.35 207.177 50.7612 233.54 71.461C254.509 87.9159 263.966 99.004 282.928 112.178C295.839 121.022 309.314 129.609 323.266 137.884C348.762 153.611 363.073 156.185 392.363 164.708C422.922 173.626 446.785 183.619 471.194 187.911C501.458 199.566 526.53 214.145 557.119 225.251C559.761 226.798 562.518 228.253 565.353 229.598C625.503 258.028 631.108 268.822 659.501 284.584C695.858 304.784 742.68 319.949 777.413 334.861C804.034 346.273 826.522 356.709 845.346 367.48C866.827 379.77 884.32 396.59 900.701 410.726C908.858 417.772 914.915 423.412 921.277 425.695C960.448 439.619 968.991 426.198 1009.3 418.588C1023.5 415.906 1038.15 411.923 1058.03 411.121C1081.01 410.263 1143.35 398.468 1242.67 414.026C1247.67 414.804 1253.17 415.739 1259.13 416.819C1302.89 424.834 1373.49 441.83 1465.35 481.111" stroke="#1D1F43" stroke-opacity="0.12" stroke-width="0.2" stroke-miterlimit="10"/>
<path d="M69.9237 -29.4016C95.411 -13.4566 119.515 2.48606 142.633 17.1801C180.109 40.9776 203.28 55.0178 229.498 75.6543C249.893 91.7037 259.843 102.785 277.835 115.538C290.346 124.281 303.354 132.815 316.794 141.099C341.428 156.817 355.979 160.432 384.636 169.149C413.924 178.074 436.266 187.054 461.758 191.441C490.68 202.004 515.96 215.242 547.755 225.83C550.527 227.239 553.356 228.577 556.223 229.836C617.304 257.85 627.998 266.689 655.251 281.292C692.54 301.272 739.472 316.251 774.872 331.817C801.504 343.534 824.492 354.213 843.465 365.439C865.123 378.249 882.43 395.964 898.32 410.368C906.406 417.71 912.45 423.513 918.792 425.774C957.939 439.687 966.39 424.886 1006.06 415.696C1019.91 412.486 1034.38 408.059 1054.45 406.949C1076.02 405.752 1139.9 393.533 1240.59 409.114C1245.66 409.892 1251.2 410.822 1257.23 411.906C1301.36 419.86 1372.88 436.919 1465.93 476.467" stroke="#1D1F43" stroke-opacity="0.12" stroke-width="0.2" stroke-miterlimit="10"/>
<path d="M69.3788 -24.5606C93.9976 -9.00616 117.559 6.79178 140.596 21.672C176 44.53 199.403 59.2309 225.465 79.8261C245.263 95.4594 255.697 106.555 272.777 118.886C288.577 130.309 301.696 138.613 310.322 144.315C334.129 160.011 348.915 164.679 376.833 173.569C402.105 181.572 427.298 188.706 452.256 194.927C479.537 201.966 507.925 209.511 538.303 226.345C541.103 227.777 544.041 229.018 547.002 230.021C610.654 254.374 624.806 264.482 650.933 277.958C689.197 297.685 736.076 312.719 772.287 328.741C799.163 340.629 822.395 351.675 841.521 363.345C863.309 376.719 880.472 395.296 895.87 409.968C903.862 417.594 909.921 423.56 916.269 425.81C955.347 439.681 963.759 423.509 1002.72 412.707C1016.22 408.968 1030.57 404.151 1050.7 402.692C1070.83 401.233 1136.32 388.653 1238.46 404.138C1243.54 404.927 1249.24 405.88 1255.27 406.927C1299.78 414.866 1372.19 431.956 1466.45 471.812" stroke="#1D1F43" stroke-opacity="0.12" stroke-width="0.2" stroke-miterlimit="10"/>
<path d="M68.8273 -19.7099C92.5728 -4.53496 115.649 11.0522 138.562 26.2171C171.87 48.1251 195.525 63.5081 221.412 84.0404C240.733 99.3104 251.554 110.379 267.673 122.266C282.717 133.373 295.26 141.675 303.848 147.529C326.852 163.215 341.829 168.903 369.033 177.978C395.757 186.896 414.092 191.427 442.746 198.424C468.562 204.721 494.478 215.033 528.875 226.869C532.036 227.957 534.962 229.254 537.798 230.226C603.245 252.574 621.621 262.252 646.614 274.623C685.852 294.031 732.699 309.207 769.677 325.654C796.718 337.691 820.297 349.136 839.58 361.239C861.565 375.089 878.502 394.583 893.429 409.545C901.326 417.455 907.498 423.626 913.724 425.824C952.754 439.674 961.156 422.13 999.511 409.726C1012.69 405.47 1026.94 400.295 1047.13 398.443C1066.14 396.706 1132.85 383.684 1236.48 399.192C1241.62 399.979 1247.28 400.89 1253.48 401.967C1298.34 409.879 1371.68 427.022 1467.09 467.156" stroke="#1D1F43" stroke-opacity="0.12" stroke-width="0.2" stroke-miterlimit="10"/>
<path d="M68.4023 -14.8169C91.2744 -0.0214622 113.852 15.453 136.655 30.7392C167.919 51.7073 191.791 67.7185 217.51 88.2424C236.135 103.054 247.562 114.191 262.739 125.655C277.011 136.414 288.886 144.66 297.515 150.753C319.741 166.439 334.908 173.148 361.393 182.418C386.83 191.311 403.709 195.143 433.359 201.974C457.781 207.562 483.75 216.491 519.539 227.447C522.718 228.425 525.788 229.59 528.716 230.485C596.001 250.858 617.76 262.11 642.416 271.341C684.378 287.155 726.063 304.296 767.203 322.652C794.414 334.829 818.315 346.66 837.81 359.272C859.973 373.642 876.674 394.01 891.085 409.23C898.863 417.414 904.983 423.705 911.277 425.946C950.287 439.774 958.651 420.859 996.318 406.919C1009.17 402.156 1023.36 396.645 1043.56 394.368C1061.3 392.377 1129.35 378.858 1234.49 394.409C1239.67 395.185 1245.31 396.064 1251.66 397.182C1296.92 405.056 1371.13 422.23 1467.73 462.684" stroke="#1D1F43" stroke-opacity="0.12" stroke-width="0.2" stroke-miterlimit="10"/>
<path d="M68.2548 -11.2234C90.2536 3.19259 112.356 18.4996 135.107 34.0368C164.362 54.0537 188.361 70.7706 214.069 91.2511C232.14 105.614 244.026 116.82 258.272 127.84C271.763 138.273 282.995 146.473 291.63 152.752C313.154 168.459 328.44 176.156 354.205 185.621C378.38 194.499 393.852 197.72 424.486 204.211C447.568 209.099 473.668 216.731 510.741 226.722C513.969 227.591 517.105 228.602 520.153 229.419C589.316 247.861 615.454 258.127 638.727 266.756C681.283 282.505 723.566 299.735 765.253 318.315C792.606 330.631 816.853 342.86 836.399 355.885C858.754 370.808 875.21 392.006 889.294 407.513C896.929 415.96 903.011 422.405 909.383 424.666C948.349 438.462 956.747 418.208 993.681 402.635C1006.22 397.343 1020.42 391.549 1040.55 388.816C1057.07 386.581 1126.44 372.564 1233.09 388.149C1238.3 388.914 1244.1 389.833 1250.43 390.919C1296.06 398.755 1371.2 415.981 1468.97 456.724" stroke="#1D1F43" stroke-opacity="0.12" stroke-width="0.2" stroke-miterlimit="10"/>
<path d="M68.7727 -9.03037C89.8982 5.00606 111.588 20.1338 134.036 35.8386C161.282 54.9043 185.556 72.3139 210.91 92.6796C228.393 106.669 240.749 117.858 254.062 128.435C266.797 138.551 277.395 146.685 286.031 153.224C306.854 168.952 322.263 177.627 347.28 187.287C370.197 196.14 384.326 198.868 415.857 204.954C437.604 209.197 463.923 215.531 502.163 224.494C505.458 225.274 508.686 226.143 511.806 226.861C582.952 243.392 613.291 252.554 635.288 260.668C678.11 276.477 724.155 294.69 763.518 312.486C791.046 324.93 815.61 337.557 835.329 351.048C857.847 366.458 874.039 388.531 887.699 404.414C895.21 413.146 901.415 419.774 907.689 421.993C946.627 435.789 955.044 414.164 991.261 396.99C1003.48 391.18 1017.73 385.134 1037.74 381.892C1053.05 379.434 1123.71 364.91 1231.88 380.527C1237.13 381.302 1242.97 382.199 1249.4 383.284C1295.4 391.104 1371.42 408.361 1470.4 449.381" stroke="#1D1F43" stroke-opacity="0.12" stroke-width="0.2" stroke-miterlimit="10"/>
<path d="M69.4461 -6.86411C89.7273 6.7924 111.029 21.7515 133.237 37.6773C159.248 56.1838 184.242 75.0501 208.116 94.1981C225.021 107.793 237.734 118.955 250.242 129.13C262.162 138.931 272.154 146.997 280.807 153.765C300.948 169.535 316.461 179.166 340.725 189.033C362.413 197.859 375.242 200.192 407.597 205.777C428.144 209.33 454.672 214.452 493.979 222.355C497.321 223.026 500.64 223.752 503.851 224.393C576.957 239.003 611.53 246.384 632.218 254.658C675.422 271.975 722.012 288.472 762.176 306.746C789.879 319.318 814.751 332.366 834.623 346.3C857.319 362.23 873.207 385.2 886.478 401.382C893.822 410.367 900.09 417.179 906.36 419.409C945.259 433.162 953.642 410.155 989.19 391.402C1002.01 384.162 1017.5 378.659 1035.3 375.014C1049.45 372.322 1121.36 357.29 1231.02 372.93C1236.32 373.694 1242.21 374.59 1248.72 375.685C1295.09 383.467 1372.04 400.776 1472.17 442.117" stroke="#1D1F43" stroke-opacity="0.12" stroke-width="0.2" stroke-miterlimit="10"/>
<path d="M70.098 -4.78297C117.72 27.8032 162.901 61.3616 205.276 95.621C273.437 150.745 289.58 171.535 334.128 190.672C366.575 204.603 376.92 201.704 485.729 220.099C567.565 233.933 608.466 240.888 629.101 248.554C703.2 276.21 784.437 305.889 833.876 341.446C869.517 367.076 887.533 410.435 905.028 416.631C956.898 434.98 954.771 385.52 1032.86 368.029C1045.86 365.114 1119.01 349.575 1230.18 365.248C1273.33 371.333 1358.37 387.223 1473.97 434.735" stroke="#1D1F43" stroke-opacity="0.12" stroke-width="0.2" stroke-miterlimit="10"/>
<g opacity="0.5" filter="url(#filter0_f_81_5360)">
<ellipse cx="738.135" cy="182.629" rx="157.5" ry="234" transform="rotate(-26.4063 738.135 182.629)" fill="#7733FF" fill-opacity="0.28"/>
</g>
<defs>
<filter id="filter0_f_81_5360" x="279.824" y="-321.411" width="916.622" height="1008.08" filterUnits="userSpaceOnUse" color-interpolation-filters="sRGB">
<feFlood flood-opacity="0" result="BackgroundImageFix"/>
<feBlend mode="normal" in="SourceGraphic" in2="BackgroundImageFix" result="shape"/>
<feGaussianBlur stdDeviation="141.5" result="effect1_foregroundBlur_81_5360"/>
</filter>
</defs>
</svg>
